{
  "title" : "",
  "description" : "",
  "author" : "",
  "width" : 700.0,
  "height" : 400.0,
  "version" : "0.5",
  "editRate" : 30,
  "authoringClientName" :  {
    "name" : "Camtasia Studio",
    "platform" : "Windows",
    "version" : "9.0"
  },
  "sourceBin" : [
    {
      "id" : 1,
      "src" : "C:\\Users\\amari\\Desktop\\Videos\\CawboyRadizeiro.jpg",
      "rect" : [0, 0, 700, 400],
      "lastMod" : "20161207T023424",
      "sourceTracks" : [
        {
          "range" : [0, 1],
          "type" : 1,
          "editRate" : 10000000,
          "trackRect" : [0, 0, 700, 400],
          "sampleRate" : 0,
          "bitDepth" : 24,
          "numChannels" : 0,
          "metaData" : ""
        }
      ]
    },
    {
      "id" : 2,
      "src" : "C:\\Users\\amari\\Desktop\\Videos\\Narration_DMongoBr_CriandoComponentes 1.m4a",
      "rect" : [0, 0, 0, 0],
      "lastMod" : "20161207T154815",
      "sourceTracks" : [
        {
          "range" : [0, 173333333],
          "type" : 2,
          "editRate" : 10000000,
          "trackRect" : [0, 0, 0, 0],
          "sampleRate" : 44100,
          "bitDepth" : 16,
          "numChannels" : 2,
          "metaData" : ""
        }
      ]
    },
    {
      "id" : 3,
      "src" : "C:\\Users\\amari\\Desktop\\Videos\\Narration_DMongoBr_CriandoComponentes 2.m4a",
      "rect" : [0, 0, 0, 0],
      "lastMod" : "20161207T154955",
      "sourceTracks" : [
        {
          "range" : [0, 158000000],
          "type" : 2,
          "editRate" : 10000000,
          "trackRect" : [0, 0, 0, 0],
          "sampleRate" : 44100,
          "bitDepth" : 16,
          "numChannels" : 2,
          "metaData" : ""
        }
      ]
    },
    {
      "id" : 4,
      "src" : "C:\\Users\\amari\\Desktop\\Videos\\Narration_DMongoBr_CriandoComponentes 3.m4a",
      "rect" : [0, 0, 0, 0],
      "lastMod" : "20161207T155853",
      "sourceTracks" : [
        {
          "range" : [0, 119000000],
          "type" : 2,
          "editRate" : 10000000,
          "trackRect" : [0, 0, 0, 0],
          "sampleRate" : 44100,
          "bitDepth" : 16,
          "numChannels" : 2,
          "metaData" : ""
        }
      ]
    },
    {
      "id" : 5,
      "src" : "C:\\Users\\amari\\Desktop\\Videos\\Narration_DMongoBr_CriandoComponentes 4.m4a",
      "rect" : [0, 0, 0, 0],
      "lastMod" : "20161207T160102",
      "sourceTracks" : [
        {
          "range" : [0, 103333333],
          "type" : 2,
          "editRate" : 10000000,
          "trackRect" : [0, 0, 0, 0],
          "sampleRate" : 44100,
          "bitDepth" : 16,
          "numChannels" : 2,
          "metaData" : ""
        }
      ]
    },
    {
      "id" : 6,
      "src" : "C:\\Users\\amari\\Desktop\\Videos\\Narration_DMongoBr_CriandoComponentes 5.m4a",
      "rect" : [0, 0, 0, 0],
      "lastMod" : "20161207T160455",
      "sourceTracks" : [
        {
          "range" : [0, 70000000],
          "type" : 2,
          "editRate" : 10000000,
          "trackRect" : [0, 0, 0, 0],
          "sampleRate" : 44100,
          "bitDepth" : 16,
          "numChannels" : 2,
          "metaData" : ""
        }
      ]
    },
    {
      "id" : 7,
      "src" : "C:\\Users\\amari\\Desktop\\Videos\\Narration_DMongoBr_CriandoComponentes 6.m4a",
      "rect" : [0, 0, 0, 0],
      "lastMod" : "20161207T160648",
      "sourceTracks" : [
        {
          "range" : [0, 178666667],
          "type" : 2,
          "editRate" : 10000000,
          "trackRect" : [0, 0, 0, 0],
          "sampleRate" : 44100,
          "bitDepth" : 16,
          "numChannels" : 2,
          "metaData" : ""
        }
      ]
    },
    {
      "id" : 8,
      "src" : "C:\\Users\\amari\\Desktop\\Videos\\Narration_DMongoBr_CriandoComponentes 7.m4a",
      "rect" : [0, 0, 0, 0],
      "lastMod" : "20161207T160953",
      "sourceTracks" : [
        {
          "range" : [0, 157333333],
          "type" : 2,
          "editRate" : 10000000,
          "trackRect" : [0, 0, 0, 0],
          "sampleRate" : 44100,
          "bitDepth" : 16,
          "numChannels" : 2,
          "metaData" : ""
        }
      ]
    },
    {
      "id" : 9,
      "src" : "C:\\Users\\amari\\Documents\\My CamStudio Videos\\testes3.avi",
      "rect" : [0, 0, 1920, 1080],
      "lastMod" : "20161207T163005",
      "sourceTracks" : [
        {
          "range" : [0, 45666667],
          "type" : 0,
          "editRate" : 10000000,
          "trackRect" : [0, 0, 1920, 1080],
          "sampleRate" : 20,
          "bitDepth" : 16,
          "numChannels" : 0,
          "metaData" : ""
        }
      ]
    },
    {
      "id" : 10,
      "src" : "C:\\Users\\amari\\Documents\\Camtasia Studio\\Rec 12-07-16.trec",
      "rect" : [0, 0, 1920, 1080],
      "lastMod" : "20161207T165529",
      "sourceTracks" : [
        {
          "range" : [0, 3097],
          "type" : 0,
          "editRate" : 30,
          "trackRect" : [0, 0, 1920, 1080],
          "sampleRate" : 17,
          "bitDepth" : 0,
          "numChannels" : 0,
          "metaData" : "Rec 12-07-16.trec;"
        },
        {
          "range" : [0, 4543488],
          "type" : 2,
          "editRate" : 44100,
          "trackRect" : [0, 0, 0, 0],
          "sampleRate" : 44100,
          "bitDepth" : 16,
          "numChannels" : 2,
          "metaData" : ""
        },
        {
          "range" : [0, 4547584],
          "type" : 2,
          "editRate" : 44100,
          "trackRect" : [0, 0, 0, 0],
          "sampleRate" : 44100,
          "bitDepth" : 16,
          "numChannels" : 2,
          "metaData" : ""
        }
      ]
    },
    {
      "id" : 11,
      "src" : "C:\\Users\\amari\\Documents\\Camtasia Studio\\Rec 12-07-16 1.trec",
      "rect" : [0, 0, 1920, 1080],
      "lastMod" : "20161207T170525",
      "sourceTracks" : [
        {
          "range" : [0, 3414],
          "type" : 0,
          "editRate" : 30,
          "trackRect" : [0, 0, 1920, 1080],
          "sampleRate" : 17,
          "bitDepth" : 0,
          "numChannels" : 0,
          "metaData" : "Rec 12-07-16 1.trec;"
        },
        {
          "range" : [0, 5007360],
          "type" : 2,
          "editRate" : 44100,
          "trackRect" : [0, 0, 0, 0],
          "sampleRate" : 44100,
          "bitDepth" : 16,
          "numChannels" : 2,
          "metaData" : ""
        },
        {
          "range" : [0, 5013504],
          "type" : 2,
          "editRate" : 44100,
          "trackRect" : [0, 0, 0, 0],
          "sampleRate" : 44100,
          "bitDepth" : 16,
          "numChannels" : 2,
          "metaData" : ""
        }
      ]
    },
    {
      "id" : 12,
      "src" : "C:\\Users\\amari\\Documents\\Camtasia Studio\\Rec 12-07-16 2.trec",
      "rect" : [0, 0, 1920, 1080],
      "lastMod" : "20161207T171336",
      "sourceTracks" : [
        {
          "range" : [0, 2724],
          "type" : 0,
          "editRate" : 30,
          "trackRect" : [0, 0, 1920, 1080],
          "sampleRate" : 17,
          "bitDepth" : 0,
          "numChannels" : 0,
          "metaData" : "Rec 12-07-16 2.trec;"
        },
        {
          "range" : [0, 3992576],
          "type" : 2,
          "editRate" : 44100,
          "trackRect" : [0, 0, 0, 0],
          "sampleRate" : 44100,
          "bitDepth" : 16,
          "numChannels" : 2,
          "metaData" : ""
        },
        {
          "range" : [0, 4000768],
          "type" : 2,
          "editRate" : 44100,
          "trackRect" : [0, 0, 0, 0],
          "sampleRate" : 44100,
          "bitDepth" : 16,
          "numChannels" : 2,
          "metaData" : ""
        }
      ]
    },
    {
      "id" : 13,
      "src" : "C:\\Users\\amari\\Documents\\Camtasia Studio\\Rec 12-07-16 3.trec",
      "rect" : [0, 0, 1920, 1080],
      "lastMod" : "20161207T171806",
      "sourceTracks" : [
        {
          "range" : [0, 678],
          "type" : 0,
          "editRate" : 30,
          "trackRect" : [0, 0, 1920, 1080],
          "sampleRate" : 17,
          "bitDepth" : 0,
          "numChannels" : 0,
          "metaData" : "Rec 12-07-16 3.trec;"
        },
        {
          "range" : [0, 993280],
          "type" : 2,
          "editRate" : 44100,
          "trackRect" : [0, 0, 0, 0],
          "sampleRate" : 44100,
          "bitDepth" : 16,
          "numChannels" : 2,
          "metaData" : ""
        },
        {
          "range" : [0, 990208],
          "type" : 2,
          "editRate" : 44100,
          "trackRect" : [0, 0, 0, 0],
          "sampleRate" : 44100,
          "bitDepth" : 16,
          "numChannels" : 2,
          "metaData" : ""
        }
      ]
    },
    {
      "id" : 14,
      "src" : "C:\\Users\\amari\\Documents\\Camtasia Studio\\Rec 12-07-16 4.trec",
      "rect" : [0, 0, 1920, 1080],
      "lastMod" : "20161207T172130",
      "sourceTracks" : [
        {
          "range" : [0, 1752],
          "type" : 0,
          "editRate" : 30,
          "trackRect" : [0, 0, 1920, 1080],
          "sampleRate" : 17,
          "bitDepth" : 0,
          "numChannels" : 0,
          "metaData" : "Rec 12-07-16 4.trec;"
        },
        {
          "range" : [0, 2581504],
          "type" : 2,
          "editRate" : 44100,
          "trackRect" : [0, 0, 0, 0],
          "sampleRate" : 44100,
          "bitDepth" : 16,
          "numChannels" : 2,
          "metaData" : ""
        },
        {
          "range" : [0, 2578432],
          "type" : 2,
          "editRate" : 44100,
          "trackRect" : [0, 0, 0, 0],
          "sampleRate" : 44100,
          "bitDepth" : 16,
          "numChannels" : 2,
          "metaData" : ""
        }
      ]
    },
    {
      "id" : 15,
      "src" : "C:\\Users\\amari\\Documents\\Camtasia Studio\\Rec 12-07-16 5.trec",
      "rect" : [0, 0, 1920, 1080],
      "lastMod" : "20161207T172912",
      "sourceTracks" : [
        {
          "range" : [0, 6935],
          "type" : 0,
          "editRate" : 30,
          "trackRect" : [0, 0, 1920, 1080],
          "sampleRate" : 17,
          "bitDepth" : 0,
          "numChannels" : 0,
          "metaData" : "Rec 12-07-16 5.trec;"
        },
        {
          "range" : [0, 10188800],
          "type" : 2,
          "editRate" : 44100,
          "trackRect" : [0, 0, 0, 0],
          "sampleRate" : 44100,
          "bitDepth" : 16,
          "numChannels" : 2,
          "metaData" : ""
        },
        {
          "range" : [0, 10187776],
          "type" : 2,
          "editRate" : 44100,
          "trackRect" : [0, 0, 0, 0],
          "sampleRate" : 44100,
          "bitDepth" : 16,
          "numChannels" : 2,
          "metaData" : ""
        }
      ]
    },
    {
      "id" : 16,
      "src" : "C:\\Users\\amari\\Documents\\Camtasia Studio\\Rec 12-07-16 6.trec",
      "rect" : [0, 0, 1920, 1080],
      "lastMod" : "20161207T174043",
      "sourceTracks" : [
        {
          "range" : [0, 2351],
          "type" : 0,
          "editRate" : 30,
          "trackRect" : [0, 0, 1920, 1080],
          "sampleRate" : 17,
          "bitDepth" : 0,
          "numChannels" : 0,
          "metaData" : "Rec 12-07-16 6.trec;"
        },
        {
          "range" : [0, 3441664],
          "type" : 2,
          "editRate" : 44100,
          "trackRect" : [0, 0, 0, 0],
          "sampleRate" : 44100,
          "bitDepth" : 16,
          "numChannels" : 2,
          "metaData" : ""
        },
        {
          "range" : [0, 3453952],
          "type" : 2,
          "editRate" : 44100,
          "trackRect" : [0, 0, 0, 0],
          "sampleRate" : 44100,
          "bitDepth" : 16,
          "numChannels" : 2,
          "metaData" : ""
        }
      ]
    },
    {
      "id" : 17,
      "src" : "C:\\Users\\amari\\Documents\\Camtasia Studio\\Rec 12-07-16 7.trec",
      "rect" : [0, 0, 1920, 1080],
      "lastMod" : "20161207T180455",
      "sourceTracks" : [
        {
          "range" : [0, 2809],
          "type" : 0,
          "editRate" : 30,
          "trackRect" : [0, 0, 1920, 1080],
          "sampleRate" : 17,
          "bitDepth" : 0,
          "numChannels" : 0,
          "metaData" : "Rec 12-07-16 7.trec;"
        },
        {
          "range" : [0, 4124672],
          "type" : 2,
          "editRate" : 44100,
          "trackRect" : [0, 0, 0, 0],
          "sampleRate" : 44100,
          "bitDepth" : 16,
          "numChannels" : 2,
          "metaData" : ""
        },
        {
          "range" : [0, 4126720],
          "type" : 2,
          "editRate" : 44100,
          "trackRect" : [0, 0, 0, 0],
          "sampleRate" : 44100,
          "bitDepth" : 16,
          "numChannels" : 2,
          "metaData" : ""
        }
      ]
    },
    {
      "id" : 18,
      "src" : "C:\\Users\\amari\\Documents\\Camtasia Studio\\Rec 12-07-16 8.trec",
      "rect" : [0, 0, 1920, 1080],
      "lastMod" : "20161207T180827",
      "sourceTracks" : [
        {
          "range" : [0, 732],
          "type" : 0,
          "editRate" : 30,
          "trackRect" : [0, 0, 1920, 1080],
          "sampleRate" : 17,
          "bitDepth" : 0,
          "numChannels" : 0,
          "metaData" : "Rec 12-07-16 8.trec;"
        },
        {
          "range" : [0, 1082368],
          "type" : 2,
          "editRate" : 44100,
          "trackRect" : [0, 0, 0, 0],
          "sampleRate" : 44100,
          "bitDepth" : 16,
          "numChannels" : 2,
          "metaData" : ""
        },
        {
          "range" : [0, 1075200],
          "type" : 2,
          "editRate" : 44100,
          "trackRect" : [0, 0, 0, 0],
          "sampleRate" : 44100,
          "bitDepth" : 16,
          "numChannels" : 2,
          "metaData" : ""
        }
      ]
    },
    {
      "id" : 19,
      "src" : "C:\\Users\\amari\\Documents\\Camtasia Studio\\Rec 12-07-16 9.trec",
      "rect" : [0, 0, 1920, 1080],
      "lastMod" : "20161207T181535",
      "sourceTracks" : [
        {
          "range" : [0, 10307],
          "type" : 0,
          "editRate" : 30,
          "trackRect" : [0, 0, 1920, 1080],
          "sampleRate" : 18,
          "bitDepth" : 0,
          "numChannels" : 0,
          "metaData" : "Rec 12-07-16 9.trec;"
        },
        {
          "range" : [0, 15150080],
          "type" : 2,
          "editRate" : 44100,
          "trackRect" : [0, 0, 0, 0],
          "sampleRate" : 44100,
          "bitDepth" : 16,
          "numChannels" : 2,
          "metaData" : ""
        },
        {
          "range" : [0, 15156224],
          "type" : 2,
          "editRate" : 44100,
          "trackRect" : [0, 0, 0, 0],
          "sampleRate" : 44100,
          "bitDepth" : 16,
          "numChannels" : 2,
          "metaData" : ""
        }
      ]
    },
    {
      "id" : 20,
      "src" : "C:\\Users\\amari\\Documents\\Camtasia Studio\\Rec 12-07-16 10.trec",
      "rect" : [0, 0, 1920, 1080],
      "lastMod" : "20161207T184238",
      "sourceTracks" : [
        {
          "range" : [0, 17845],
          "type" : 0,
          "editRate" : 30,
          "trackRect" : [0, 0, 1920, 1080],
          "sampleRate" : 24,
          "bitDepth" : 0,
          "numChannels" : 0,
          "metaData" : "Rec 12-07-16 10.trec;"
        },
        {
          "range" : [0, 26218496],
          "type" : 2,
          "editRate" : 44100,
          "trackRect" : [0, 0, 0, 0],
          "sampleRate" : 44100,
          "bitDepth" : 16,
          "numChannels" : 2,
          "metaData" : ""
        },
        {
          "range" : [0, 26229760],
          "type" : 2,
          "editRate" : 44100,
          "trackRect" : [0, 0, 0, 0],
          "sampleRate" : 44100,
          "bitDepth" : 16,
          "numChannels" : 2,
          "metaData" : ""
        }
      ]
    },
    {
      "id" : 21,
      "src" : "C:\\Users\\amari\\Documents\\Camtasia Studio\\Rec 12-07-16 11.trec",
      "rect" : [0, 0, 1920, 1080],
      "lastMod" : "20161207T191610",
      "sourceTracks" : [
        {
          "range" : [0, 11859],
          "type" : 0,
          "editRate" : 30,
          "trackRect" : [0, 0, 1920, 1080],
          "sampleRate" : 25,
          "bitDepth" : 0,
          "numChannels" : 0,
          "metaData" : "Rec 12-07-16 11.trec;"
        },
        {
          "range" : [0, 17421312],
          "type" : 2,
          "editRate" : 44100,
          "trackRect" : [0, 0, 0, 0],
          "sampleRate" : 44100,
          "bitDepth" : 16,
          "numChannels" : 2,
          "metaData" : ""
        },
        {
          "range" : [0, 17433600],
          "type" : 2,
          "editRate" : 44100,
          "trackRect" : [0, 0, 0, 0],
          "sampleRate" : 44100,
          "bitDepth" : 16,
          "numChannels" : 2,
          "metaData" : ""
        }
      ]
    },
    {
      "id" : 22,
      "src" : "C:\\Users\\amari\\Documents\\Camtasia Studio\\Rec 12-07-16 12.trec",
      "rect" : [0, 0, 1920, 1080],
      "lastMod" : "20161207T213142",
      "sourceTracks" : [
        {
          "range" : [0, 16456],
          "type" : 0,
          "editRate" : 30,
          "trackRect" : [0, 0, 1920, 1080],
          "sampleRate" : 25,
          "bitDepth" : 0,
          "numChannels" : 0,
          "metaData" : "Rec 12-07-16 12.trec;"
        },
        {
          "range" : [0, 24189952],
          "type" : 2,
          "editRate" : 44100,
          "trackRect" : [0, 0, 0, 0],
          "sampleRate" : 44100,
          "bitDepth" : 16,
          "numChannels" : 2,
          "metaData" : ""
        },
        {
          "range" : [0, 24204288],
          "type" : 2,
          "editRate" : 44100,
          "trackRect" : [0, 0, 0, 0],
          "sampleRate" : 44100,
          "bitDepth" : 16,
          "numChannels" : 2,
          "metaData" : ""
        }
      ]
    }
  ],
  "timeline" : {
    "id" : 23,
    "sceneTrack" : {
      "scenes" : [
        {
          "duration" : 2371.93333333333,
          "title" : "",
          "type" : "",
          "csml" : {
            "tracks" : [
              {
                "trackIndex" : 0,
                "medias" : [
                  {
                    "id" : 24,
                    "_type" : "IMFile",
                    "src" : 1,
                    "trackNumber" : 0,
                    "trimStartSum" : 0,
                    "attributes" : {
                      "ident" : "CawboyRadizeiro"
                    },
                    "parameters" : {
                      "translation0" : {
                        "type" : "double",
                        "defaultValue" : 3.02691205433803e-12,
                        "interp" : "eioe"
                      },
                      "translation1" : {
                        "type" : "double",
                        "defaultValue" : 1.3882228699913e-11,
                        "interp" : "eioe"
                      },
                      "sourceCrop0" : {
                        "type" : "double",
                        "defaultValue" : 0.0,
                        "interp" : "linr"
                      },
                      "sourceCrop1" : {
                        "type" : "double",
                        "defaultValue" : 0.0,
                        "interp" : "linr"
                      },
                      "sourceCrop2" : {
                        "type" : "double",
                        "defaultValue" : 0.0,
                        "interp" : "linr"
                      },
                      "sourceCrop3" : {
                        "type" : "double",
                        "defaultValue" : 0.0,
                        "interp" : "linr"
                      },
                      "geometryCrop0" : {
                        "type" : "double",
                        "defaultValue" : 0.0,
                        "interp" : "linr"
                      },
                      "geometryCrop1" : {
                        "type" : "double",
                        "defaultValue" : 0.0,
                        "interp" : "linr"
                      },
                      "geometryCrop2" : {
                        "type" : "double",
                        "defaultValue" : 0.0,
                        "interp" : "linr"
                      },
                      "geometryCrop3" : {
                        "type" : "double",
                        "defaultValue" : 0.0,
                        "interp" : "linr"
                      },
                      "opacity" : {
                        "type" : "double",
                        "defaultValue" : 1.0,
                        "interp" : "linr"
                      }
                    },
                    "effects" : [

                    ],
                    "start" : 0,
                    "duration" : 290,
                    "mediaStart" : 0,
                    "mediaDuration" : 1,
                    "scalar" : 1,
                    "metadata" : {
                      "WinSubProjectDisplayName" : "",
                      "clipSpeedAttribute" : true,
                      "default-rotation2" : 0.0,
                      "default-translation0" : 0.0,
                      "default-translation1" : 0.0
                    },
                    "animationTracks" : {

                    }
                  },
                  {
                    "id" : 25,
                    "_type" : "IMFile",
                    "src" : 1,
                    "trackNumber" : 0,
                    "trimStartSum" : 375,
                    "attributes" : {
                      "ident" : "CawboyRadizeiro"
                    },
                    "parameters" : {
                      "translation0" : {
                        "type" : "double",
                        "defaultValue" : 3.02691205433803e-12,
                        "interp" : "eioe"
                      },
                      "translation1" : {
                        "type" : "double",
                        "defaultValue" : 1.3882228699913e-11,
                        "interp" : "eioe"
                      },
                      "sourceCrop0" : {
                        "type" : "double",
                        "defaultValue" : 0.0,
                        "interp" : "linr"
                      },
                      "sourceCrop1" : {
                        "type" : "double",
                        "defaultValue" : 0.0,
                        "interp" : "linr"
                      },
                      "sourceCrop2" : {
                        "type" : "double",
                        "defaultValue" : 0.0,
                        "interp" : "linr"
                      },
                      "sourceCrop3" : {
                        "type" : "double",
                        "defaultValue" : 0.0,
                        "interp" : "linr"
                      },
                      "geometryCrop0" : {
                        "type" : "double",
                        "defaultValue" : 0.0,
                        "interp" : "linr"
                      },
                      "geometryCrop1" : {
                        "type" : "double",
                        "defaultValue" : 0.0,
                        "interp" : "linr"
                      },
                      "geometryCrop2" : {
                        "type" : "double",
                        "defaultValue" : 0.0,
                        "interp" : "linr"
                      },
                      "geometryCrop3" : {
                        "type" : "double",
                        "defaultValue" : 0.0,
                        "interp" : "linr"
                      },
                      "opacity" : {
                        "type" : "double",
                        "defaultValue" : 1.0,
                        "interp" : "linr"
                      }
                    },
                    "effects" : [

                    ],
                    "start" : 290,
                    "duration" : 670,
                    "mediaStart" : 0,
                    "mediaDuration" : 1,
                    "scalar" : 1,
                    "metadata" : {
                      "WinSubProjectDisplayName" : "",
                      "clipSpeedAttribute" : true,
                      "default-rotation2" : 0.0,
                      "default-translation0" : 0.0,
                      "default-translation1" : 0.0
                    },
                    "animationTracks" : {

                    }
                  },
                  {
                    "id" : 26,
                    "_type" : "UnifiedMedia",
                    "video" : 
                        {
                          "id" : 27,
                          "_type" : "ScreenVMFile",
                          "src" : 10,
                          "trackNumber" : 0,
                          "attributes" : {
                            "ident" : "Rec 12-07-16"
                          },
                          "parameters" : {
                            "scale0" : {
                              "type" : "double",
                              "defaultValue" : 0.364583333333333,
                              "interp" : "eioe"
                            },
                            "scale1" : {
                              "type" : "double",
                              "defaultValue" : 0.364583333333333,
                              "interp" : "eioe"
                            },
                            "sourceCrop0" : {
                              "type" : "double",
                              "defaultValue" : 0.0,
                              "interp" : "linr"
                            },
                            "sourceCrop1" : {
                              "type" : "double",
                              "defaultValue" : 0.0,
                              "interp" : "linr"
                            },
                            "sourceCrop2" : {
                              "type" : "double",
                              "defaultValue" : 0.0,
                              "interp" : "linr"
                            },
                            "sourceCrop3" : {
                              "type" : "double",
                              "defaultValue" : 0.0,
                              "interp" : "linr"
                            },
                            "geometryCrop0" : {
                              "type" : "double",
                              "defaultValue" : 0.0,
                              "interp" : "linr"
                            },
                            "geometryCrop1" : {
                              "type" : "double",
                              "defaultValue" : 0.0,
                              "interp" : "linr"
                            },
                            "geometryCrop2" : {
                              "type" : "double",
                              "defaultValue" : 0.0,
                              "interp" : "linr"
                            },
                            "geometryCrop3" : {
                              "type" : "double",
                              "defaultValue" : 0.0,
                              "interp" : "linr"
                            },
                            "opacity" : {
                              "type" : "double",
                              "defaultValue" : 1.0,
                              "interp" : "linr"
                            },
                            "cursorScale" : {
                              "type" : "double",
                              "defaultValue" : 1.0,
                              "interp" : "linr"
                            },
                            "cursorOpacity" : {
                              "type" : "double",
                              "defaultValue" : 1.0,
                              "interp" : "linr"
                            }
                          },
                          "effects" : [

                          ],
                          "start" : 960,
                          "duration" : 1163,
                          "mediaStart" : 0,
                          "mediaDuration" : 1163,
                          "scalar" : 1,
                          "animationTracks" : {

                          }
                        },
                    "audio" : 
                        {
                          "id" : 28,
                          "_type" : "AMFile",
                          "src" : 10,
                          "trackNumber" : 2,
                          "attributes" : {
                            "ident" : "",
                            "sampleRate" : 44100,
                            "bitDepth" : 16,
                            "gain" : 1.0,
                            "mixToMono" : false
                          },
                            "channelNumber" : "0,1",
                          "effects" : [
                              {
                                "effectName" : "NoiseReduction",
                                "parameters" : {
                                  "denoiserAmount" : {
                                    "type" : "double",
                                    "interp" : "linr",
                                    "valueBounds" : {
                                      "minValue" : 0.0,
                                      "maxValue" : 48.0,
                                      "defaultValue" : 20.0
                                    },
                                    "uiHints" : {
                                      "userInterfaceType" : 0,
                                      "unitType" : 0
                                    },
                                    "keyframes" : [
                                      {
                                        "time" : 0,
                                        "value" : 20.0,
                                        "duration" : 0
                                      }
                                    ]
                                  },
                                  "denoiserThreshold" : {
                                    "type" : "double",
                                    "interp" : "linr",
                                    "valueBounds" : {
                                      "minValue" : -20.0,
                                      "maxValue" : 20.0,
                                      "defaultValue" : 0.0
                                    },
                                    "uiHints" : {
                                      "userInterfaceType" : 0,
                                      "unitType" : 0
                                    },
                                    "keyframes" : [
                                      {
                                        "time" : 0,
                                        "value" : 0.0,
                                        "duration" : 0
                                      }
                                    ]
                                  },
                                  "noiseProfile" : "AAAAAAAAAAAAAAAAAAAAAAAAAAAAAAAAAAAAAAAAAAAAAAAAAAAAAAAAAAAAAAAAAAAAAAAAAAAA\r\nAAAAAAAAAAAAAAAAAAAAAAAAAAAAAAAAAAAAAAAAAAAAAAAAAAAAAAAAAAAAAAAAAAAAAAAAAAAA\r\nAAAAAAAAAAAAAAAAAAAAAAAAAAAAAAAAAAAAAAAAAAAAAAAAAAAAAAAAAAAAAAAAAAAAAAAAAAAA\r\nAAAAAAAAAAAAAAAAAAAAAAAAAAAAAAAAAAAAAAAAAAAAAAAAAAAAAAAAAAAAAAAAAAAAAAAAAAAA\r\nAAAAAAAAAAAAAAAAAAAAAAAAAAAAAAAAAAAAAAAAAAAAAAAAAAAAAAAAAAAAAAAAAAAAAAAAAAAA\r\nAAAAAAAAAAAAAAAAAAAAAAAAAAAAAAAAAAAAAAAAAAAAAAAAAAAAAAAAAAAAAAAAAAAAAAAAAAAA\r\nAAAAAAAAAAAAAAAAAAAAAAAAAAAAAAAAAAAAAAAAAAAAAAAAAAAAAAAAAAAAAAAAAAAAAAAAAAAA\r\nAAAAAAAAAAAAAAAAAAAAAAAAAAAAAAAAAAAAAAAAAAAAAAAAAAAAAAAAAAAAAAAAAAAAAAAAAAAA\r\nAAAAAAAAAAAAAAAAAAAAAAAAAAAAAAAAAAAAAAAAAAAAAAAAAAAAAAAAAAAAAAAAAAAAAAAAAAAA\r\nAAAAAAAAAAAAAAAAAAAAAAAAAAAAAAAAAAAAAAAAAAAAAAAAAAAAAAAAAAAAAAAAAAAAAAAAAAAA\r\nAAAAAAAAAAAAAAAAAAAAAAAAAAAAAAAAAAAAAAAAAAAAAAAAAAAAAAAAAAAAAAAAAAAAAAAAAAAA\r\nAAAAAAAAAAAAAAAAAAAAAAAAAAAAAAAAAAAAAAAAAAAAAAAAAAAAAAAAAAAAAAAAAAAAAAAAAAAA\r\nAAAAAAAAAAAAAAAAAAAAAAAAAAAAAAAAAAAAAAAAAAAAAAAAAAAAAAAAAAAAAAAAAAAAAAAAAAAA\r\nAAAAAAAAAAAAAAAAAAAAAAAAAAAAAAAAAAAAAAAAAAAAAAAAAAAAAAAAAAAAAAAAAAAAAAAAAAAA\r\nAAAAAAAAAAAAAAAAAAAAAAAAAAAAAAAAAAAAAAAAAAAAAAAAAAAAAAAAAAAAAAAAAAAAAAAAAAAA\r\nAAAAAAAAAAAAAAAAAAAAAAAAAAAAAAAAAAAAAAAAAAAAAAAAAAAAAAAAAAAAAAAAAAAAAAAAAAAA\r\nAAAAAAAAAAAAAAAAAAAAAAAAAAAAAAAAAAAAAAAAAAAAAAAAAAAAAAAAAAAAAAAAAAAAAAAAAAAA\r\nAAAAAAAAAAAAAAAAAAAAAAAAAAAAAAAAAAAAAAAAAAAAAAAAAAAAAAAAAAAAAAAAAAAAAAAAAAAA\r\nAAAAAAAAAAAAAAAAAAAAAAAAAAAAAAAAAAAAAAAAAAAAAAAAAAAAAAAAAAAAAAAAAAAAAAAAAAAA\r\nAAAAAAAAAAAAAAAAAAAAAAAAAAAAAAAAAAAAAAAAAAAAAAAAAAAAAAAAAAAAAAAAAAAAAAAAAAAA\r\nAAAAAAAAAAAAAAAAAAAAAAAAAAAAAAAAAAAAAAAAAAAAAAAAAAAAAAAAAAAAAAAAAAAAAAAAAAAA\r\nAAAAAAAAAAAAAAAAAAAAAAAAAAAAAAAAAAAAAAAAAAAAAAAAAAAAAAAAAAAAAAAAAAAAAAAAAAAA\r\nAAAAAAAAAAAAAAAAAAAAAAAAAAAAAAAAAAAAAAAAAAAAAAAAAAAAAAAAAAAAAAAAAAAAAAAAAAAA\r\nAAAAAAAAAAAAAAAAAAAAAAAAAAAAAAAAAAAAAAAAAAAAAAAAAAAAAAAAAAAAAAAAAAAAAAAAAAAA\r\nAAAAAAAAAAAAAAAAAAAAAAAAAAAAAAAAAAAAAAAAAAAAAAAAAAAAAAAAAAAAAAAAAAAAAAAAAAAA\r\nAAAAAAAAAAAAAAAAAAAAAAAAAAAAAAAAAAAAAAAAAAAAAAAAAAAAAAAAAAAAAAAAAAAAAAAAAAAA\r\nAAAAAAAAAAAAAAAAAAAAAAAAAAAAAAAAAAAAAAAAAAAAAAAAAAAAAAAAAAAAAAAAAAAAAAAAAAAA\r\nAAAAAAAAAAAAAAAAAAAAAAAAAAAAAAAAAAAAAAAAAAAAAAAAAAAAAAAAAAAAAAAAAAAAAAAAAAAA\r\nAAAAAAAAAAAAAAAAAAAAAAAAAAAAAAAAAAAAAAAAAAAAAAAAAAAAAAAAAAAAAAAAAAAAAAAAAAAA\r\nAAAAAAAAAAAAAAAAAAAAAAAAAAAAAAAAAAAAAAAAAAAAAAAAAAAAAAAAAAAAAAAAAAAAAAAAAAAA\r\nAAAAAAAAAAAAAAAAAAAAAAAAAAAAAAAAAAAAAAAAAAAAAAAAAAAAAAAAAAAAAAAAAAAAAAAAAAAA\r\nAAAAAAAAAAAAAAAAAAAAAAAAAAAAAAAAAAAAAAAAAAAAAAAAAAAAAAAAAAAAAAAAAAAAAAAAAAAA\r\nAAAAAAAAAAAAAAAAAAAAAAAAAAAAAAAAAAAAAAAAAAAAAAAAAAAAAAAAAAAAAAAAAAAAAAAAAAAA\r\nAAAAAAAAAAAAAAAAAAAAAAAAAAAAAAAAAAAAAAAAAAAAAAAAAAAAAAAAAAAAAAAAAAAAAAAAAAAA\r\nAAAAAAAAAAAAAAAAAAAAAAAAAAAAAAAAAAAAAAAAAAAAAAAAAAAAAAAAAAAAAAAAAAAAAAAAAAAA\r\nAAAAAAAAAAAAAAAAAAAAAAAAAAAAAAAAAAAAAAAAAAAAAAAAAAAAAAAAAAAAAAAAAAAAAAAAAAAA\r\nAAAAAAAAAAAAAAAAAAAAAAAAAAAAAAAAAAAAAAAAAAAAAAAAAAAAAAAAAAAAAAAAAAAAAAAAAAAA\r\nAAAAAAAAAAAAAAAAAAAAAAAAAAAAAAAAAAAAAAAAAAAAAAAAAAAAAAAAAAAAAAAAAAAAAAAAAAAA\r\nAAAAAAAAAAAAAAAAAAAAAAAAAAAAAAAAAAAAAAAAAAAAAAAAAAAAAAAAAAAAAAAAAAAAAAAAAAAA\r\nAAAAAAAAAAAAAAAAAAAAAAAAAAAAAAAAAAAAAAAAAAAAAAAAAAAAAAAAAAAAAAAAAAAAAAAAAAAA\r\nAAAAAAAAAAAAAAAAAAAAAAAAAAAAAAAAAAAAAAAAAAAAAAAAAAAAAAAAAAAAAAAAAAAAAAAAAAAA\r\nAAAAAAAAAAAAAAAAAAAAAAAAAAAAAAAAAAAAAAAAAAAAAAAAAAAAAAAAAAAAAAAAAAAAAAAAAAAA\r\nAAAAAAAAAAAAAAAAAAAAAAAAAAAAAAAAAAAAAAAAAAAAAAAAAAAAAAAAAAAAAAAAAAAAAAAAAAAA\r\nAAAAAAAAAAAAAAAAAAAAAAAAAAAAAAAAAAAAAAAAAAAAAAAAAAAAAAAAAAAAAAAAAAAAAAAAAAAA\r\nAAAAAAAAAAAAAAAAAAAAAAAAAAAAAAAAAAAAAAAAAAAAAAAAAAAAAAAAAAAAAAAAAAAAAAAAAAAA\r\nAAAAAAAAAAAAAAAAAAAAAAAAAAAAAAAAAAAAAAAAAAAAAAAAAAAAAAAAAAAAAAAAAAAAAAAAAAAA\r\nAAAAAAAAAAAAAAAAAAAAAAAAAAAAAAAAAAAAAAAAAAAAAAAAAAAAAAAAAAAAAAAAAAAAAAAAAAAA\r\nAAAAAAAAAAAAAAAAAAAAAAAAAAAAAAAAAAAAAAAAAAAAAAAAAAAAAAAAAAAAAAAAAAAAAAAAAAAA\r\nAAAAAAAAAAAAAAAAAAAAAAAAAAAAAAAAAAAAAAAAAAAAAAAAAAAAAAAAAAAAAAAAAAAAAAAAAAAA\r\nAAAAAAAAAAAAAAAAAAAAAAAAAAAAAAAAAAAAAAAAAAAAAAAAAAAAAAAAAAAAAAAAAAAAAAAAAAAA\r\nAAAAAAAAAAAAAAAAAAAAAAAAAAAAAAAAAAAAAAAAAAAAAAAAAAAAAAAAAAAAAAAAAAAAAAAAAAAA\r\nAAAAAAAAAAAAAAAAAAAAAAAAAAAAAAAAAAAAAAAAAAAAAAAAAAAAAAAAAAAAAAAAAAAAAAAAAAAA\r\nAAAAAAAAAAAAAAAAAAAAAAAAAAAAAAAAAAAAAAAAAAAAAAAAAAAAAAAAAAAAAAAAAAAAAAAAAAAA\r\nAAAAAAAAAAAAAAAAAAAAAAAAAAAAAAAAAAAAAAAAAAAAAAAAAAAAAAAAAAAAAAAAAAAAAAAAAAAA\r\nAAAAAAAAAAAAAAAAAAAAAAAAAAAAAAAAAAAAAAAAAAAAAAAAAAAAAAAAAAAAAAAAAAAAAAAAAAAA\r\nAAAAAAAAAAAAAAAAAAAAAAAAAAAAAAAAAAAAAAAAAAAAAAAAAAAAAAAAAAAAAAAAAAAAAAAAAAAA\r\nAAAAAAAAAAAAAAAAAAAAAAAAAAAAAAAAAAAAAAAAAAAAAAAAAAAAAAAAAAAAAAAAAAAAAAAAAAAA\r\nAAAAAAAAAAAAAAAAAAAAAAAAAAAAAAAAAAAAAAAAAAAAAAAAAAAAAAAAAAAAAAAAAAAAAAAAAAAA\r\nAAAAAAAAAAAAAAAAAAAAAAAAAAAAAAAAAAAAAAAAAAAAAAAAAAAAAAAAAAAAAAAAAAAAAAAAAAAA\r\nAAAAAAAAAAAAAAAAAAAAAAAAAAAAAAAAAAAAAAAAAAAAAAAAAAAAAAAAAAAAAAAAAAAAAAAAAAAA\r\nAAAAAAAAAAAAAAAAAAAAAAAAAAAAAAAAAAAAAAAAAAAAAAAAAAAAAAAAAAAAAAAAAAAAAAAAAAAA\r\nAAAAAAAAAAAAAAAAAAAAAAAAAAAAAAAAAAAAAAAAAAAAAAAAAAAAAAAAAAAAAAAAAAAAAAAAAAAA\r\nAAAAAAAAAAAAAAAAAAAAAAAAAAAAAAAAAAAAAAAAAAAAAAAAAAAAAAAAAAAAAAAAAAAAAAAAAAAA\r\nAAAAAAAAAAAAAAAAAAAAAAAAAAAAAAAAAAAAAAAAAAAAAAAAAAAAAAAAAAAAAAAAAAAAAAAAAAAA\r\nAAAAAAAAAAAAAAAAAAAAAAAAAAAAAAAAAAAAAAAAAAAAAAAAAAAAAAAAAAAAAAAAAAAAAAAAAAAA\r\nAAAAAAAAAAAAAAAAAAAAAAAAAAAAAAAAAAAAAAAAAAAAAAAAAAAAAAAAAAAAAAAAAAAAAAAAAAAA\r\nAAAAAAAAAAAAAAAAAAAAAAAAAAAAAAAAAAAAAAAAAAAAAAAAAAAAAAAAAAAAAAAAAAAAAAAAAAAA\r\nAAAAAAAAAAAAAAAAAAAAAAAAAAAAAAAAAAAAAAAAAAAAAAAAAAAAAAAAAAAAAAAAAAAAAAAAAAAA\r\nAAAAAAAAAAAAAAAAAAAAAAAAAAAAAAAAAAAAAAAAAAAAAAAAAAAAAAAAAAAAAAAAAAAAAAAAAAAA\r\nAAAAAAAAAAAAAAAAAAAAAAAAAAAAAAAAAAAAAAAAAAAAAAAAAAAAAAAAAAAAAAAAAAAAAAAAAAAA\r\nAAAAAAAAAAAAAAAAAAAAAAAAAAAAAAAAAAAAAAAAAAAAAAAAAAAAAAAAAAAAAAAAAAAAAAAAAAAA\r\nAAAAAAAAAAAAAAAAAAAAAAAAAAAAAAAAAAAAAAAAAAAAAAAAAAAAAAAAAAAAAAAAAAAAAAAAAAAA\r\nAAAAAAAAAAAAAAAAAAAAAAAAAAAAAAAAAAAAAAAAAAAAAAAAAAAAAAAAAAAAAAAAAAAAAAAAAAAA\r\nAAAAAAAAAAAAAAAAAAAAAAAAAAAAAAAAAAAAAAAAAAAAAAAAAAAAAAAAAAAAAAAAAAAAAAAAAAAA\r\nAAAAAAAAAAAAAAAAAAAAAAAAAAAAAAAAAAAAAAAAAAAAAAAAAAAAAAAAAAAAAAAAAAAAAAAAAAAA\r\nAAAAAAAAAAAAAAAAAAAAAAAAAAAAAAAAAAAAAAAAAAAAAAAAAAAAAAAAAAAAAAAAAAAAAAAAAAAA\r\nAAAAAAAAAAAAAAAAAAAAAAAAAAAAAAAAAAAAAAAAAAAAAAAAAAAAAAAAAAAAAAAAAAAAAAAAAAAA\r\nAAAAAAAAAAAAAAAAAAAAAAAAAAAAAAAAAAAAAAAAAAAAAAAAAAAAAAAAAAAAAAAAAAAAAAAAAAAA\r\nAAAAAAAAAAAAAAAAAAAAAAAAAAAAAAAAAAAAAAAAAAAAAAAAAAAAAAAAAAAAAAAAAAAAAAAAAAAA\r\nAAAAAAAAAAAAAAAAAAAAAAAAAAAAAAAAAAAAAAAAAAAAAAAAAAAAAAAAAAAAAAAAAAAAAAAAAAAA\r\nAAAAAAAAAAAAAAAAAAAAAAAAAAAAAAAAAAAAAAAAAAAAAAAAAAAAAAAAAAAAAAAAAAAAAAAAAAAA\r\nAAAAAAAAAAAAAAAAAAAAAAAAAAAAAAAAAAAAAAAAAAAAAAAAAAAAAAAAAAAAAAAAAAAAAAAAAAAA\r\nAAAAAAAAAAAAAAAAAAAAAAAAAAAAAAAAAAAAAAAAAAAAAAAAAAAAAAAAAAAAAAAAAAAAAAAAAAAA\r\nAAAAAAAAAAAAAAAAAAAAAAAAAAAAAAAAAAAAAAAAAAAAAAAAAAAAAAAAAAAAAAAAAAAAAAAAAAAA\r\nAAAAAAAAAAAAAAAAAAAAAAAAAAAAAAAAAAAAAAAAAAAAAAAAAAAAAAAAAAAAAAAAAAAAAAAAAAAA\r\nAAAAAAAAAAAAAAAAAAAAAAAAAAAAAAAAAAAAAAAAAAAAAAAAAAAAAAAAAAAAAAAAAAAAAAAAAAAA\r\nAAAAAAAAAAAAAAAAAAAAAAAAAAAAAAAAAAAAAAAAAAAAAAAAAAAAAAAAAAAAAAAAAAAAAAAAAAAA\r\nAAAAAAAAAAAAAAAAAAAAAAAAAAAAAAAAAAAAAAAAAAAAAAAAAAAAAAAAAAAAAAAAAAAAAAAAAAAA\r\nAAAAAAAAAAAAAAAAAAAAAAAAAAAAAAAAAAAAAAAAAAAAAAAAAAAAAAAAAAAAAAAAAAAAAAAAAAAA\r\nAAAAAAAAAAAAAAAAAAAAAAAAAAAAAAAAAAAAAAAAAAAAAAAAAAAAAAAAAAAAAAAAAAAAAAAAAAAA\r\nAAAAAAAAAAAAAAAAAAAAAAAAAAAAAAAAAAAAAAAAAAAAAAAAAAAAAAAAAAAAAAAAAAAAAAAAAAAA\r\nAAAAAAAAAAAAAAAAAAAAAAAAAAAAAAAAAAAAAAAAAAAAAAAAAAAAAAAAAAAAAAAAAAAAAAAAAAAA\r\nAAAAAAAAAAAAAAAAAAAAAAAAAAAAAAAAAAAAAAAAAAAAAAAAAAAAAAAAAAAAAAAAAAAAAAAAAAAA\r\nAAAAAAAAAAAAAAAAAAAAAAAAAAAAAAAAAAAAAAAAAAAAAAAAAAAAAAAAAAAAAAAAAAAAAAAAAAAA\r\nAAAAAAAAAAAAAAAAAAAAAAAAAAAAAAAAAAAAAAAAAAAAAAAAAAAAAAAAAAAAAAAAAAAAAAAAAAAA\r\nAAAAAAAAAAAAAAAAAAAAAAAAAAAAAAAAAAAAAAAAAAAAAAAAAAAAAAAAAAAAAAAAAAAAAAAAAAAA\r\nAAAAAAAAAAAAAAAAAAAAAAAAAAAAAAAAAAAAAAAAAAAAAAAAAAAAAAAAAAAAAAAAAAAAAAAAAAAA\r\nAAAAAAAAAAAAAAAAAAAAAAAAAAAAAAAAAAAAAAAAAAAAAAAAAAAAAAAAAAAAAAAAAAAAAAAAAAAA\r\nAAAAAAAAAAAAAAAAAAAAAAAAAAAAAAAAAAAAAAAAAAAAAAAAAAAAAAAAAAAAAAAAAAAAAAAAAAAA\r\nAAAAAAAAAAAAAAAAAAAAAAAAAAAAAAAAAAAAAAAAAAAAAAAAAAAAAAAAAAAAAAAAAAAAAAAAAAAA\r\nAAAAAAAAAAAAAAAAAAAAAAAAAAAAAAAAAAAAAAAAAAAAAAAAAAAAAAAAAAAAAAAAAAAAAAAAAAAA\r\nAAAAAAAAAAAAAAAAAAAAAAAAAAAAAAAAAAAAAAAAAAAAAAAAAAAAAAAAAAAAAAAAAAAAAAAAAAAA\r\nAAAAAAAAAAAAAAAAAAAAAAAAAAAAAAAAAAAAAAAAAAAAAAAAAAAAAAAAAAAAAAAAAAAAAAAAAAAA\r\nAAAAAAAAAAAAAAAAAAAAAAAAAAAAAAAAAAAAAAAAAAAAAAAAAAAAAAAAAAAAAAAAAAAAAAAAAAAA\r\nAAAAAAAAAAAAAAAAAAAAAAAAAAAAAAAAAAAAAAAAAAAAAAAAAAAAAAAAAAAAAAAAAAAAAAAAAAAA\r\nAAAAAAAAAAAAAAAAAAAAAAAAAAAAAAAAAAAAAAAAAAAAAAAAAAAAAAAAAAAAAAAAAAAAAAAAAAAA\r\nAAAAAAAAAAAAAAAAAAAAAAAAAAAAAAAAAAAAAAAAAAAAAAAAAAAAAAAAAAAAAAAAAAAAAAAAAAAA\r\nAAAAAAAAAAAAAAAAAAAAAAAAAAAAAAAAAAAAAAAAAAAAAAAAAAAAAAAAAAAAAAAAAAAAAAAAAAAA\r\nAAAAAAAAAAAAAAAAAAAAAAAAAAAAAAAAAAAAAAAAAAAAAAAAAAAAAAAAAAAAAAAAAAAAAAAAAAAA\r\nAAAAAAAAAAAAAAAAAAAAAAAAAAAAAAAAAAAAAAAAAAAAAAAAAAAAAAAAAAAAAAAAAAAAAAAAAAAA\r\nAAAAAAAAAAAAAAAAAAAAAAAAAAAAAAAAAAAAAAAAAAAAAAAAAAAAAAAAAAAAAAAAAAAAAAAAAAAA\r\nAAAAAAAAAAAAAAAAAAAAAAAAAAAAAAAAAAAAAAAAAAAAAAAAAAAAAAAAAAAAAAAAAAAAAAAAAAAA\r\nAAAAAAAAAAAAAAAAAAAAAAAAAAAAAAAAAAAAAAAAAAAAAAAAAAAAAAAAAAAAAAAAAAAAAAAAAAAA\r\nAAAAAAAAAAAAAAAAAAAAAAAAAAAAAAAAAAAAAAAAAAAAAAAAAAAAAAAAAAAAAAAAAAAAAAAAAAAA\r\nAAAAAAAAAAAAAAAAAAAAAAAAAAAAAAAAAAAAAAAAAAAAAAAAAAAAAAAAAAAAAAAAAAAAAAAAAAAA\r\nAAAAAAAAAAAAAAAAAAAAAAAAAAAAAAAAAAAAAAAAAAAAAAAAAAAAAAAAAAAAAAAAAAAAAAAAAAAA\r\nAAAAAAAAAAAAAAAAAAAAAAAAAAAAAAAAAAAAAAAAAAAAAAAAAAAAAAAAAAAAAAAAAAAAAAAAAAAA\r\nAAAAAAAAAAAAAAAAAAAAAAAAAAAAAAAAAAAAAAAAAAAAAAAAAAAAAAAAAAAAAAAAAAAAAAAAAAAA\r\nAAAAAAAAAAAAAAAAAAAAAAAAAAAAAAAAAAAAAAAAAAAAAAAAAAAAAAAAAAAAAAAAAAAAAAAAAAAA\r\nAAAAAAAAAAAAAAAAAAAAAAAAAAAAAAAAAAAAAAAAAAAAAAAAAAAAAAAAAAAAAAAAAAAAAAAAAAAA\r\nAAAAAAAAAAAAAAAAAAAAAAAAAAAAAAAAAAAAAAAAAAAAAAAAAAAAAAAAAAAAAAAAAAAAAAAAAAAA\r\nAAAAAAAAAAAAAAAAAAAAAAAAAAAAAAAAAAAAAAAAAAAAAAAAAAAAAAAAAAAAAAAAAAAAAAAAAAAA\r\nAAAAAAAAAAAAAAAAAAAAAAAAAAAAAAAAAAAAAAAAAAAAAAAAAAAAAAAAAAAAAAAAAAAAAAAAAAAA\r\nAAAAAAAAAAAAAAAAAAAAAAAAAAAAAAAAAAAAAAAAAAAAAAAAAAAAAAAAAAAAAAAAAAAAAAAAAAAA\r\nAAAAAAAAAAAAAAAAAAAAAAAAAAAAAAAAAAAAAAAAAAAAAAAAAAAAAAAAAAAAAAAAAAAAAAAAAAAA\r\nAAAAAAAAAAAAAAAAAAAAAAAAAAAAAAAAAAAAAAAAAAAAAAAAAAAAAAAAAAAAAAAAAAAAAAAAAAAA\r\nAAAAAAAAAAAAAAAAAAAAAAAAAAAAAAAAAAAAAAAAAAAAAAAAAAAAAAAAAAAAAAAAAAAAAAAAAAAA\r\nAAAAAAAAAAAAAAAAAAAAAAAAAAAAAAAAAAAAAAAAAAAAAAAAAAAAAAAAAAAAAAAAAAAAAAAAAAAA\r\nAAAAAAAAAAAAAAAAAAAAAAAAAAAAAAAAAAAAAAAAAAAAAAAAAAAAAAAAAAAAAAAAAAAAAAAAAAAA\r\nAAAAAAAAAAAAAAAAAAAAAAAAAAAAAAAAAAAAAAAAAAAAAAAAAAAAAAAAAAAAAAAAAAAAAAAAAAAA\r\nAAAAAAAAAAAAAAAAAAAAAAAAAAAAAAAAAAAAAAAAAAAAAAAAAAAAAAAAAAAAAAAAAAAAAAAAAAAA\r\nAAAAAAAAAAAAAAAAAAAAAAAAAAAAAAAAAAAAAAAAAAAAAAAAAAAAAAAAAAAAAAAAAAAAAAAAAAAA\r\nAAAAAAAAAAAAAAAAAAAAAAAAAAAAAAAAAAAAAAAAAAAAAAAAAAAAAAAAAAAAAAAAAAAAAAAAAAAA\r\nAAAAAAAAAAAAAAAAAAAAAAAAAAAAAAAAAAAAAAAAAAAAAAAAAAAAAAAAAAAAAAAAAAAAAAAAAAAA\r\nAAAAAAAAAAAAAAAAAAAAAAAAAAAAAAAAAAAAAAAAAAAAAAAAAAAAAAAAAAAAAAAAAAAAAAAAAAAA\r\nAAAAAAAAAAAAAAAAAAAAAAAAAAAAAAAAAAAAAAAAAAAAAAAAAAAAAAAAAAAAAAAAAAAAAAAAAAAA\r\nAAAAAAAAAAAAAAAAAAAAAAAAAAAAAAAAAAAAAAAAAAAAAAAAAAAAAAAAAAAAAAAAAAAAAAAAAAAA\r\nAAAAAAAAAAAAAAAAAAAAAAAAAAAAAAAAAAAAAAAAAAAAAAAAAAAAAAAAAAAAAAAAAAAAAAAAAAAA\r\nAAAAAAAAAAAAAAAAAAAAAAAAAAAAAAAAAAAAAAAAAAAAAAAAAAAAAAAAAAAAAAAAAAAAAAAAAAAA\r\nAAAAAAAAAAAAAAAAAAAAAAAAAAAAAAAAAAAAAAAAAAAAAAAAAAAAAAAAAAAAAAAAAAAAAAAAAAAA\r\nAAAAAAAAAAAAAAAAAAAAAAAAAAAAAAAAAAAAAAAAAAAAAAAAAAAAAAAAAAAAAAAAAAAAAAAAAAAA\r\nAAAAAAAAAAAAAAAAAAAAAAAAAAAAAAAAAAAAAAAAAAAAAAAAAAAAAAAAAAAAAAAAAAAAAAAAAAAA\r\nAAAAAAAAAAAAAAAAAAAAAAAAAAAAAAAAAAAAAAAAAAAAAAAAAAAAAAAAAAAAAAAAAAAAAAAAAAAA\r\nAAAAAAAAAAAAAAAAAAAAAAAAAAAAAAAAAAAAAAAAAAAAAAAAAAAAAAAAAAAAAAAAAA==",
                                  "noiseTrainingType" : "default"
                                },
                                "metadata" : {
                                  "effectIndex" : "0"
                                }
                              }
                          ],
                          "start" : 960,
                          "duration" : 1163,
                          "mediaStart" : 0,
                          "mediaDuration" : 1163,
                          "scalar" : 1,
                          "animationTracks" : {

                          }
                        }
,
                    "start" : 960,
                    "duration" : 1163,
                    "mediaStart" : 0,
                    "mediaDuration" : 3093,
                    "scalar" : 1,
                    "metadata" : {
                      "AutoAppliedSmartFocus" : "False",
                      "WinSubProjectDisplayName" : "",
                      "clipSpeedAttribute" : false
                    }
                  },
                  {
                    "id" : 29,
                    "_type" : "UnifiedMedia",
                    "video" : 
                        {
                          "id" : 30,
                          "_type" : "ScreenVMFile",
                          "src" : 10,
                          "trackNumber" : 0,
                          "attributes" : {
                            "ident" : "Rec 12-07-16"
                          },
                          "parameters" : {
                            "scale0" : {
                              "type" : "double",
                              "defaultValue" : 0.364583333333333,
                              "interp" : "eioe"
                            },
                            "scale1" : {
                              "type" : "double",
                              "defaultValue" : 0.364583333333333,
                              "interp" : "eioe"
                            },
                            "sourceCrop0" : {
                              "type" : "double",
                              "defaultValue" : 0.0,
                              "interp" : "linr"
                            },
                            "sourceCrop1" : {
                              "type" : "double",
                              "defaultValue" : 0.0,
                              "interp" : "linr"
                            },
                            "sourceCrop2" : {
                              "type" : "double",
                              "defaultValue" : 0.0,
                              "interp" : "linr"
                            },
                            "sourceCrop3" : {
                              "type" : "double",
                              "defaultValue" : 0.0,
                              "interp" : "linr"
                            },
                            "geometryCrop0" : {
                              "type" : "double",
                              "defaultValue" : 0.0,
                              "interp" : "linr"
                            },
                            "geometryCrop1" : {
                              "type" : "double",
                              "defaultValue" : 0.0,
                              "interp" : "linr"
                            },
                            "geometryCrop2" : {
                              "type" : "double",
                              "defaultValue" : 0.0,
                              "interp" : "linr"
                            },
                            "geometryCrop3" : {
                              "type" : "double",
                              "defaultValue" : 0.0,
                              "interp" : "linr"
                            },
                            "opacity" : {
                              "type" : "double",
                              "defaultValue" : 1.0,
                              "interp" : "linr"
                            },
                            "cursorScale" : {
                              "type" : "double",
                              "defaultValue" : 1.0,
                              "interp" : "linr"
                            },
                            "cursorOpacity" : {
                              "type" : "double",
                              "defaultValue" : 1.0,
                              "interp" : "linr"
                            }
                          },
                          "effects" : [

                          ],
                          "start" : 2123,
                          "duration" : 488,
                          "mediaStart" : 1375,
                          "mediaDuration" : 488,
                          "scalar" : 1,
                          "animationTracks" : {

                          }
                        },
                    "audio" : 
                        {
                          "id" : 31,
                          "_type" : "AMFile",
                          "src" : 10,
                          "trackNumber" : 2,
                          "attributes" : {
                            "ident" : "",
                            "sampleRate" : 44100,
                            "bitDepth" : 16,
                            "gain" : 1.0,
                            "mixToMono" : false
                          },
                            "channelNumber" : "0,1",
                          "effects" : [
                              {
                                "effectName" : "NoiseReduction",
                                "parameters" : {
                                  "denoiserAmount" : {
                                    "type" : "double",
                                    "interp" : "linr",
                                    "valueBounds" : {
                                      "minValue" : 0.0,
                                      "maxValue" : 48.0,
                                      "defaultValue" : 20.0
                                    },
                                    "uiHints" : {
                                      "userInterfaceType" : 0,
                                      "unitType" : 0
                                    },
                                    "keyframes" : [
                                      {
                                        "time" : 0,
                                        "value" : 20.0,
                                        "duration" : 0
                                      }
                                    ]
                                  },
                                  "denoiserThreshold" : {
                                    "type" : "double",
                                    "interp" : "linr",
                                    "valueBounds" : {
                                      "minValue" : -20.0,
                                      "maxValue" : 20.0,
                                      "defaultValue" : 0.0
                                    },
                                    "uiHints" : {
                                      "userInterfaceType" : 0,
                                      "unitType" : 0
                                    },
                                    "keyframes" : [
                                      {
                                        "time" : 0,
                                        "value" : 0.0,
                                        "duration" : 0
                                      }
                                    ]
                                  },
                                  "noiseProfile" : "AAAAAAAAAAAAAAAAAAAAAAAAAAAAAAAAAAAAAAAAAAAAAAAAAAAAAAAAAAAAAAAAAAAAAAAAAAAA\r\nAAAAAAAAAAAAAAAAAAAAAAAAAAAAAAAAAAAAAAAAAAAAAAAAAAAAAAAAAAAAAAAAAAAAAAAAAAAA\r\nAAAAAAAAAAAAAAAAAAAAAAAAAAAAAAAAAAAAAAAAAAAAAAAAAAAAAAAAAAAAAAAAAAAAAAAAAAAA\r\nAAAAAAAAAAAAAAAAAAAAAAAAAAAAAAAAAAAAAAAAAAAAAAAAAAAAAAAAAAAAAAAAAAAAAAAAAAAA\r\nAAAAAAAAAAAAAAAAAAAAAAAAAAAAAAAAAAAAAAAAAAAAAAAAAAAAAAAAAAAAAAAAAAAAAAAAAAAA\r\nAAAAAAAAAAAAAAAAAAAAAAAAAAAAAAAAAAAAAAAAAAAAAAAAAAAAAAAAAAAAAAAAAAAAAAAAAAAA\r\nAAAAAAAAAAAAAAAAAAAAAAAAAAAAAAAAAAAAAAAAAAAAAAAAAAAAAAAAAAAAAAAAAAAAAAAAAAAA\r\nAAAAAAAAAAAAAAAAAAAAAAAAAAAAAAAAAAAAAAAAAAAAAAAAAAAAAAAAAAAAAAAAAAAAAAAAAAAA\r\nAAAAAAAAAAAAAAAAAAAAAAAAAAAAAAAAAAAAAAAAAAAAAAAAAAAAAAAAAAAAAAAAAAAAAAAAAAAA\r\nAAAAAAAAAAAAAAAAAAAAAAAAAAAAAAAAAAAAAAAAAAAAAAAAAAAAAAAAAAAAAAAAAAAAAAAAAAAA\r\nAAAAAAAAAAAAAAAAAAAAAAAAAAAAAAAAAAAAAAAAAAAAAAAAAAAAAAAAAAAAAAAAAAAAAAAAAAAA\r\nAAAAAAAAAAAAAAAAAAAAAAAAAAAAAAAAAAAAAAAAAAAAAAAAAAAAAAAAAAAAAAAAAAAAAAAAAAAA\r\nAAAAAAAAAAAAAAAAAAAAAAAAAAAAAAAAAAAAAAAAAAAAAAAAAAAAAAAAAAAAAAAAAAAAAAAAAAAA\r\nAAAAAAAAAAAAAAAAAAAAAAAAAAAAAAAAAAAAAAAAAAAAAAAAAAAAAAAAAAAAAAAAAAAAAAAAAAAA\r\nAAAAAAAAAAAAAAAAAAAAAAAAAAAAAAAAAAAAAAAAAAAAAAAAAAAAAAAAAAAAAAAAAAAAAAAAAAAA\r\nAAAAAAAAAAAAAAAAAAAAAAAAAAAAAAAAAAAAAAAAAAAAAAAAAAAAAAAAAAAAAAAAAAAAAAAAAAAA\r\nAAAAAAAAAAAAAAAAAAAAAAAAAAAAAAAAAAAAAAAAAAAAAAAAAAAAAAAAAAAAAAAAAAAAAAAAAAAA\r\nAAAAAAAAAAAAAAAAAAAAAAAAAAAAAAAAAAAAAAAAAAAAAAAAAAAAAAAAAAAAAAAAAAAAAAAAAAAA\r\nAAAAAAAAAAAAAAAAAAAAAAAAAAAAAAAAAAAAAAAAAAAAAAAAAAAAAAAAAAAAAAAAAAAAAAAAAAAA\r\nAAAAAAAAAAAAAAAAAAAAAAAAAAAAAAAAAAAAAAAAAAAAAAAAAAAAAAAAAAAAAAAAAAAAAAAAAAAA\r\nAAAAAAAAAAAAAAAAAAAAAAAAAAAAAAAAAAAAAAAAAAAAAAAAAAAAAAAAAAAAAAAAAAAAAAAAAAAA\r\nAAAAAAAAAAAAAAAAAAAAAAAAAAAAAAAAAAAAAAAAAAAAAAAAAAAAAAAAAAAAAAAAAAAAAAAAAAAA\r\nAAAAAAAAAAAAAAAAAAAAAAAAAAAAAAAAAAAAAAAAAAAAAAAAAAAAAAAAAAAAAAAAAAAAAAAAAAAA\r\nAAAAAAAAAAAAAAAAAAAAAAAAAAAAAAAAAAAAAAAAAAAAAAAAAAAAAAAAAAAAAAAAAAAAAAAAAAAA\r\nAAAAAAAAAAAAAAAAAAAAAAAAAAAAAAAAAAAAAAAAAAAAAAAAAAAAAAAAAAAAAAAAAAAAAAAAAAAA\r\nAAAAAAAAAAAAAAAAAAAAAAAAAAAAAAAAAAAAAAAAAAAAAAAAAAAAAAAAAAAAAAAAAAAAAAAAAAAA\r\nAAAAAAAAAAAAAAAAAAAAAAAAAAAAAAAAAAAAAAAAAAAAAAAAAAAAAAAAAAAAAAAAAAAAAAAAAAAA\r\nAAAAAAAAAAAAAAAAAAAAAAAAAAAAAAAAAAAAAAAAAAAAAAAAAAAAAAAAAAAAAAAAAAAAAAAAAAAA\r\nAAAAAAAAAAAAAAAAAAAAAAAAAAAAAAAAAAAAAAAAAAAAAAAAAAAAAAAAAAAAAAAAAAAAAAAAAAAA\r\nAAAAAAAAAAAAAAAAAAAAAAAAAAAAAAAAAAAAAAAAAAAAAAAAAAAAAAAAAAAAAAAAAAAAAAAAAAAA\r\nAAAAAAAAAAAAAAAAAAAAAAAAAAAAAAAAAAAAAAAAAAAAAAAAAAAAAAAAAAAAAAAAAAAAAAAAAAAA\r\nAAAAAAAAAAAAAAAAAAAAAAAAAAAAAAAAAAAAAAAAAAAAAAAAAAAAAAAAAAAAAAAAAAAAAAAAAAAA\r\nAAAAAAAAAAAAAAAAAAAAAAAAAAAAAAAAAAAAAAAAAAAAAAAAAAAAAAAAAAAAAAAAAAAAAAAAAAAA\r\nAAAAAAAAAAAAAAAAAAAAAAAAAAAAAAAAAAAAAAAAAAAAAAAAAAAAAAAAAAAAAAAAAAAAAAAAAAAA\r\nAAAAAAAAAAAAAAAAAAAAAAAAAAAAAAAAAAAAAAAAAAAAAAAAAAAAAAAAAAAAAAAAAAAAAAAAAAAA\r\nAAAAAAAAAAAAAAAAAAAAAAAAAAAAAAAAAAAAAAAAAAAAAAAAAAAAAAAAAAAAAAAAAAAAAAAAAAAA\r\nAAAAAAAAAAAAAAAAAAAAAAAAAAAAAAAAAAAAAAAAAAAAAAAAAAAAAAAAAAAAAAAAAAAAAAAAAAAA\r\nAAAAAAAAAAAAAAAAAAAAAAAAAAAAAAAAAAAAAAAAAAAAAAAAAAAAAAAAAAAAAAAAAAAAAAAAAAAA\r\nAAAAAAAAAAAAAAAAAAAAAAAAAAAAAAAAAAAAAAAAAAAAAAAAAAAAAAAAAAAAAAAAAAAAAAAAAAAA\r\nAAAAAAAAAAAAAAAAAAAAAAAAAAAAAAAAAAAAAAAAAAAAAAAAAAAAAAAAAAAAAAAAAAAAAAAAAAAA\r\nAAAAAAAAAAAAAAAAAAAAAAAAAAAAAAAAAAAAAAAAAAAAAAAAAAAAAAAAAAAAAAAAAAAAAAAAAAAA\r\nAAAAAAAAAAAAAAAAAAAAAAAAAAAAAAAAAAAAAAAAAAAAAAAAAAAAAAAAAAAAAAAAAAAAAAAAAAAA\r\nAAAAAAAAAAAAAAAAAAAAAAAAAAAAAAAAAAAAAAAAAAAAAAAAAAAAAAAAAAAAAAAAAAAAAAAAAAAA\r\nAAAAAAAAAAAAAAAAAAAAAAAAAAAAAAAAAAAAAAAAAAAAAAAAAAAAAAAAAAAAAAAAAAAAAAAAAAAA\r\nAAAAAAAAAAAAAAAAAAAAAAAAAAAAAAAAAAAAAAAAAAAAAAAAAAAAAAAAAAAAAAAAAAAAAAAAAAAA\r\nAAAAAAAAAAAAAAAAAAAAAAAAAAAAAAAAAAAAAAAAAAAAAAAAAAAAAAAAAAAAAAAAAAAAAAAAAAAA\r\nAAAAAAAAAAAAAAAAAAAAAAAAAAAAAAAAAAAAAAAAAAAAAAAAAAAAAAAAAAAAAAAAAAAAAAAAAAAA\r\nAAAAAAAAAAAAAAAAAAAAAAAAAAAAAAAAAAAAAAAAAAAAAAAAAAAAAAAAAAAAAAAAAAAAAAAAAAAA\r\nAAAAAAAAAAAAAAAAAAAAAAAAAAAAAAAAAAAAAAAAAAAAAAAAAAAAAAAAAAAAAAAAAAAAAAAAAAAA\r\nAAAAAAAAAAAAAAAAAAAAAAAAAAAAAAAAAAAAAAAAAAAAAAAAAAAAAAAAAAAAAAAAAAAAAAAAAAAA\r\nAAAAAAAAAAAAAAAAAAAAAAAAAAAAAAAAAAAAAAAAAAAAAAAAAAAAAAAAAAAAAAAAAAAAAAAAAAAA\r\nAAAAAAAAAAAAAAAAAAAAAAAAAAAAAAAAAAAAAAAAAAAAAAAAAAAAAAAAAAAAAAAAAAAAAAAAAAAA\r\nAAAAAAAAAAAAAAAAAAAAAAAAAAAAAAAAAAAAAAAAAAAAAAAAAAAAAAAAAAAAAAAAAAAAAAAAAAAA\r\nAAAAAAAAAAAAAAAAAAAAAAAAAAAAAAAAAAAAAAAAAAAAAAAAAAAAAAAAAAAAAAAAAAAAAAAAAAAA\r\nAAAAAAAAAAAAAAAAAAAAAAAAAAAAAAAAAAAAAAAAAAAAAAAAAAAAAAAAAAAAAAAAAAAAAAAAAAAA\r\nAAAAAAAAAAAAAAAAAAAAAAAAAAAAAAAAAAAAAAAAAAAAAAAAAAAAAAAAAAAAAAAAAAAAAAAAAAAA\r\nAAAAAAAAAAAAAAAAAAAAAAAAAAAAAAAAAAAAAAAAAAAAAAAAAAAAAAAAAAAAAAAAAAAAAAAAAAAA\r\nAAAAAAAAAAAAAAAAAAAAAAAAAAAAAAAAAAAAAAAAAAAAAAAAAAAAAAAAAAAAAAAAAAAAAAAAAAAA\r\nAAAAAAAAAAAAAAAAAAAAAAAAAAAAAAAAAAAAAAAAAAAAAAAAAAAAAAAAAAAAAAAAAAAAAAAAAAAA\r\nAAAAAAAAAAAAAAAAAAAAAAAAAAAAAAAAAAAAAAAAAAAAAAAAAAAAAAAAAAAAAAAAAAAAAAAAAAAA\r\nAAAAAAAAAAAAAAAAAAAAAAAAAAAAAAAAAAAAAAAAAAAAAAAAAAAAAAAAAAAAAAAAAAAAAAAAAAAA\r\nAAAAAAAAAAAAAAAAAAAAAAAAAAAAAAAAAAAAAAAAAAAAAAAAAAAAAAAAAAAAAAAAAAAAAAAAAAAA\r\nAAAAAAAAAAAAAAAAAAAAAAAAAAAAAAAAAAAAAAAAAAAAAAAAAAAAAAAAAAAAAAAAAAAAAAAAAAAA\r\nAAAAAAAAAAAAAAAAAAAAAAAAAAAAAAAAAAAAAAAAAAAAAAAAAAAAAAAAAAAAAAAAAAAAAAAAAAAA\r\nAAAAAAAAAAAAAAAAAAAAAAAAAAAAAAAAAAAAAAAAAAAAAAAAAAAAAAAAAAAAAAAAAAAAAAAAAAAA\r\nAAAAAAAAAAAAAAAAAAAAAAAAAAAAAAAAAAAAAAAAAAAAAAAAAAAAAAAAAAAAAAAAAAAAAAAAAAAA\r\nAAAAAAAAAAAAAAAAAAAAAAAAAAAAAAAAAAAAAAAAAAAAAAAAAAAAAAAAAAAAAAAAAAAAAAAAAAAA\r\nAAAAAAAAAAAAAAAAAAAAAAAAAAAAAAAAAAAAAAAAAAAAAAAAAAAAAAAAAAAAAAAAAAAAAAAAAAAA\r\nAAAAAAAAAAAAAAAAAAAAAAAAAAAAAAAAAAAAAAAAAAAAAAAAAAAAAAAAAAAAAAAAAAAAAAAAAAAA\r\nAAAAAAAAAAAAAAAAAAAAAAAAAAAAAAAAAAAAAAAAAAAAAAAAAAAAAAAAAAAAAAAAAAAAAAAAAAAA\r\nAAAAAAAAAAAAAAAAAAAAAAAAAAAAAAAAAAAAAAAAAAAAAAAAAAAAAAAAAAAAAAAAAAAAAAAAAAAA\r\nAAAAAAAAAAAAAAAAAAAAAAAAAAAAAAAAAAAAAAAAAAAAAAAAAAAAAAAAAAAAAAAAAAAAAAAAAAAA\r\nAAAAAAAAAAAAAAAAAAAAAAAAAAAAAAAAAAAAAAAAAAAAAAAAAAAAAAAAAAAAAAAAAAAAAAAAAAAA\r\nAAAAAAAAAAAAAAAAAAAAAAAAAAAAAAAAAAAAAAAAAAAAAAAAAAAAAAAAAAAAAAAAAAAAAAAAAAAA\r\nAAAAAAAAAAAAAAAAAAAAAAAAAAAAAAAAAAAAAAAAAAAAAAAAAAAAAAAAAAAAAAAAAAAAAAAAAAAA\r\nAAAAAAAAAAAAAAAAAAAAAAAAAAAAAAAAAAAAAAAAAAAAAAAAAAAAAAAAAAAAAAAAAAAAAAAAAAAA\r\nAAAAAAAAAAAAAAAAAAAAAAAAAAAAAAAAAAAAAAAAAAAAAAAAAAAAAAAAAAAAAAAAAAAAAAAAAAAA\r\nAAAAAAAAAAAAAAAAAAAAAAAAAAAAAAAAAAAAAAAAAAAAAAAAAAAAAAAAAAAAAAAAAAAAAAAAAAAA\r\nAAAAAAAAAAAAAAAAAAAAAAAAAAAAAAAAAAAAAAAAAAAAAAAAAAAAAAAAAAAAAAAAAAAAAAAAAAAA\r\nAAAAAAAAAAAAAAAAAAAAAAAAAAAAAAAAAAAAAAAAAAAAAAAAAAAAAAAAAAAAAAAAAAAAAAAAAAAA\r\nAAAAAAAAAAAAAAAAAAAAAAAAAAAAAAAAAAAAAAAAAAAAAAAAAAAAAAAAAAAAAAAAAAAAAAAAAAAA\r\nAAAAAAAAAAAAAAAAAAAAAAAAAAAAAAAAAAAAAAAAAAAAAAAAAAAAAAAAAAAAAAAAAAAAAAAAAAAA\r\nAAAAAAAAAAAAAAAAAAAAAAAAAAAAAAAAAAAAAAAAAAAAAAAAAAAAAAAAAAAAAAAAAAAAAAAAAAAA\r\nAAAAAAAAAAAAAAAAAAAAAAAAAAAAAAAAAAAAAAAAAAAAAAAAAAAAAAAAAAAAAAAAAAAAAAAAAAAA\r\nAAAAAAAAAAAAAAAAAAAAAAAAAAAAAAAAAAAAAAAAAAAAAAAAAAAAAAAAAAAAAAAAAAAAAAAAAAAA\r\nAAAAAAAAAAAAAAAAAAAAAAAAAAAAAAAAAAAAAAAAAAAAAAAAAAAAAAAAAAAAAAAAAAAAAAAAAAAA\r\nAAAAAAAAAAAAAAAAAAAAAAAAAAAAAAAAAAAAAAAAAAAAAAAAAAAAAAAAAAAAAAAAAAAAAAAAAAAA\r\nAAAAAAAAAAAAAAAAAAAAAAAAAAAAAAAAAAAAAAAAAAAAAAAAAAAAAAAAAAAAAAAAAAAAAAAAAAAA\r\nAAAAAAAAAAAAAAAAAAAAAAAAAAAAAAAAAAAAAAAAAAAAAAAAAAAAAAAAAAAAAAAAAAAAAAAAAAAA\r\nAAAAAAAAAAAAAAAAAAAAAAAAAAAAAAAAAAAAAAAAAAAAAAAAAAAAAAAAAAAAAAAAAAAAAAAAAAAA\r\nAAAAAAAAAAAAAAAAAAAAAAAAAAAAAAAAAAAAAAAAAAAAAAAAAAAAAAAAAAAAAAAAAAAAAAAAAAAA\r\nAAAAAAAAAAAAAAAAAAAAAAAAAAAAAAAAAAAAAAAAAAAAAAAAAAAAAAAAAAAAAAAAAAAAAAAAAAAA\r\nAAAAAAAAAAAAAAAAAAAAAAAAAAAAAAAAAAAAAAAAAAAAAAAAAAAAAAAAAAAAAAAAAAAAAAAAAAAA\r\nAAAAAAAAAAAAAAAAAAAAAAAAAAAAAAAAAAAAAAAAAAAAAAAAAAAAAAAAAAAAAAAAAAAAAAAAAAAA\r\nAAAAAAAAAAAAAAAAAAAAAAAAAAAAAAAAAAAAAAAAAAAAAAAAAAAAAAAAAAAAAAAAAAAAAAAAAAAA\r\nAAAAAAAAAAAAAAAAAAAAAAAAAAAAAAAAAAAAAAAAAAAAAAAAAAAAAAAAAAAAAAAAAAAAAAAAAAAA\r\nAAAAAAAAAAAAAAAAAAAAAAAAAAAAAAAAAAAAAAAAAAAAAAAAAAAAAAAAAAAAAAAAAAAAAAAAAAAA\r\nAAAAAAAAAAAAAAAAAAAAAAAAAAAAAAAAAAAAAAAAAAAAAAAAAAAAAAAAAAAAAAAAAAAAAAAAAAAA\r\nAAAAAAAAAAAAAAAAAAAAAAAAAAAAAAAAAAAAAAAAAAAAAAAAAAAAAAAAAAAAAAAAAAAAAAAAAAAA\r\nAAAAAAAAAAAAAAAAAAAAAAAAAAAAAAAAAAAAAAAAAAAAAAAAAAAAAAAAAAAAAAAAAAAAAAAAAAAA\r\nAAAAAAAAAAAAAAAAAAAAAAAAAAAAAAAAAAAAAAAAAAAAAAAAAAAAAAAAAAAAAAAAAAAAAAAAAAAA\r\nAAAAAAAAAAAAAAAAAAAAAAAAAAAAAAAAAAAAAAAAAAAAAAAAAAAAAAAAAAAAAAAAAAAAAAAAAAAA\r\nAAAAAAAAAAAAAAAAAAAAAAAAAAAAAAAAAAAAAAAAAAAAAAAAAAAAAAAAAAAAAAAAAAAAAAAAAAAA\r\nAAAAAAAAAAAAAAAAAAAAAAAAAAAAAAAAAAAAAAAAAAAAAAAAAAAAAAAAAAAAAAAAAAAAAAAAAAAA\r\nAAAAAAAAAAAAAAAAAAAAAAAAAAAAAAAAAAAAAAAAAAAAAAAAAAAAAAAAAAAAAAAAAAAAAAAAAAAA\r\nAAAAAAAAAAAAAAAAAAAAAAAAAAAAAAAAAAAAAAAAAAAAAAAAAAAAAAAAAAAAAAAAAAAAAAAAAAAA\r\nAAAAAAAAAAAAAAAAAAAAAAAAAAAAAAAAAAAAAAAAAAAAAAAAAAAAAAAAAAAAAAAAAAAAAAAAAAAA\r\nAAAAAAAAAAAAAAAAAAAAAAAAAAAAAAAAAAAAAAAAAAAAAAAAAAAAAAAAAAAAAAAAAAAAAAAAAAAA\r\nAAAAAAAAAAAAAAAAAAAAAAAAAAAAAAAAAAAAAAAAAAAAAAAAAAAAAAAAAAAAAAAAAAAAAAAAAAAA\r\nAAAAAAAAAAAAAAAAAAAAAAAAAAAAAAAAAAAAAAAAAAAAAAAAAAAAAAAAAAAAAAAAAAAAAAAAAAAA\r\nAAAAAAAAAAAAAAAAAAAAAAAAAAAAAAAAAAAAAAAAAAAAAAAAAAAAAAAAAAAAAAAAAAAAAAAAAAAA\r\nAAAAAAAAAAAAAAAAAAAAAAAAAAAAAAAAAAAAAAAAAAAAAAAAAAAAAAAAAAAAAAAAAAAAAAAAAAAA\r\nAAAAAAAAAAAAAAAAAAAAAAAAAAAAAAAAAAAAAAAAAAAAAAAAAAAAAAAAAAAAAAAAAAAAAAAAAAAA\r\nAAAAAAAAAAAAAAAAAAAAAAAAAAAAAAAAAAAAAAAAAAAAAAAAAAAAAAAAAAAAAAAAAAAAAAAAAAAA\r\nAAAAAAAAAAAAAAAAAAAAAAAAAAAAAAAAAAAAAAAAAAAAAAAAAAAAAAAAAAAAAAAAAAAAAAAAAAAA\r\nAAAAAAAAAAAAAAAAAAAAAAAAAAAAAAAAAAAAAAAAAAAAAAAAAAAAAAAAAAAAAAAAAAAAAAAAAAAA\r\nAAAAAAAAAAAAAAAAAAAAAAAAAAAAAAAAAAAAAAAAAAAAAAAAAAAAAAAAAAAAAAAAAAAAAAAAAAAA\r\nAAAAAAAAAAAAAAAAAAAAAAAAAAAAAAAAAAAAAAAAAAAAAAAAAAAAAAAAAAAAAAAAAAAAAAAAAAAA\r\nAAAAAAAAAAAAAAAAAAAAAAAAAAAAAAAAAAAAAAAAAAAAAAAAAAAAAAAAAAAAAAAAAAAAAAAAAAAA\r\nAAAAAAAAAAAAAAAAAAAAAAAAAAAAAAAAAAAAAAAAAAAAAAAAAAAAAAAAAAAAAAAAAAAAAAAAAAAA\r\nAAAAAAAAAAAAAAAAAAAAAAAAAAAAAAAAAAAAAAAAAAAAAAAAAAAAAAAAAAAAAAAAAAAAAAAAAAAA\r\nAAAAAAAAAAAAAAAAAAAAAAAAAAAAAAAAAAAAAAAAAAAAAAAAAAAAAAAAAAAAAAAAAAAAAAAAAAAA\r\nAAAAAAAAAAAAAAAAAAAAAAAAAAAAAAAAAAAAAAAAAAAAAAAAAAAAAAAAAAAAAAAAAAAAAAAAAAAA\r\nAAAAAAAAAAAAAAAAAAAAAAAAAAAAAAAAAAAAAAAAAAAAAAAAAAAAAAAAAAAAAAAAAAAAAAAAAAAA\r\nAAAAAAAAAAAAAAAAAAAAAAAAAAAAAAAAAAAAAAAAAAAAAAAAAAAAAAAAAAAAAAAAAAAAAAAAAAAA\r\nAAAAAAAAAAAAAAAAAAAAAAAAAAAAAAAAAAAAAAAAAAAAAAAAAAAAAAAAAAAAAAAAAAAAAAAAAAAA\r\nAAAAAAAAAAAAAAAAAAAAAAAAAAAAAAAAAAAAAAAAAAAAAAAAAAAAAAAAAAAAAAAAAAAAAAAAAAAA\r\nAAAAAAAAAAAAAAAAAAAAAAAAAAAAAAAAAAAAAAAAAAAAAAAAAAAAAAAAAAAAAAAAAAAAAAAAAAAA\r\nAAAAAAAAAAAAAAAAAAAAAAAAAAAAAAAAAAAAAAAAAAAAAAAAAAAAAAAAAAAAAAAAAAAAAAAAAAAA\r\nAAAAAAAAAAAAAAAAAAAAAAAAAAAAAAAAAAAAAAAAAAAAAAAAAAAAAAAAAAAAAAAAAAAAAAAAAAAA\r\nAAAAAAAAAAAAAAAAAAAAAAAAAAAAAAAAAAAAAAAAAAAAAAAAAAAAAAAAAAAAAAAAAAAAAAAAAAAA\r\nAAAAAAAAAAAAAAAAAAAAAAAAAAAAAAAAAAAAAAAAAAAAAAAAAAAAAAAAAAAAAAAAAAAAAAAAAAAA\r\nAAAAAAAAAAAAAAAAAAAAAAAAAAAAAAAAAAAAAAAAAAAAAAAAAAAAAAAAAAAAAAAAAAAAAAAAAAAA\r\nAAAAAAAAAAAAAAAAAAAAAAAAAAAAAAAAAAAAAAAAAAAAAAAAAAAAAAAAAAAAAAAAAAAAAAAAAAAA\r\nAAAAAAAAAAAAAAAAAAAAAAAAAAAAAAAAAAAAAAAAAAAAAAAAAAAAAAAAAAAAAAAAAAAAAAAAAAAA\r\nAAAAAAAAAAAAAAAAAAAAAAAAAAAAAAAAAAAAAAAAAAAAAAAAAAAAAAAAAAAAAAAAAAAAAAAAAAAA\r\nAAAAAAAAAAAAAAAAAAAAAAAAAAAAAAAAAAAAAAAAAAAAAAAAAAAAAAAAAAAAAAAAAAAAAAAAAAAA\r\nAAAAAAAAAAAAAAAAAAAAAAAAAAAAAAAAAAAAAAAAAAAAAAAAAAAAAAAAAAAAAAAAAAAAAAAAAAAA\r\nAAAAAAAAAAAAAAAAAAAAAAAAAAAAAAAAAAAAAAAAAAAAAAAAAAAAAAAAAAAAAAAAAAAAAAAAAAAA\r\nAAAAAAAAAAAAAAAAAAAAAAAAAAAAAAAAAAAAAAAAAAAAAAAAAAAAAAAAAAAAAAAAAAAAAAAAAAAA\r\nAAAAAAAAAAAAAAAAAAAAAAAAAAAAAAAAAAAAAAAAAAAAAAAAAAAAAAAAAAAAAAAAAAAAAAAAAAAA\r\nAAAAAAAAAAAAAAAAAAAAAAAAAAAAAAAAAAAAAAAAAAAAAAAAAAAAAAAAAAAAAAAAAAAAAAAAAAAA\r\nAAAAAAAAAAAAAAAAAAAAAAAAAAAAAAAAAAAAAAAAAAAAAAAAAAAAAAAAAAAAAAAAAAAAAAAAAAAA\r\nAAAAAAAAAAAAAAAAAAAAAAAAAAAAAAAAAAAAAAAAAAAAAAAAAAAAAAAAAAAAAAAAAA==",
                                  "noiseTrainingType" : "default"
                                },
                                "metadata" : {
                                  "effectIndex" : "0"
                                }
                              }
                          ],
                          "start" : 2123,
                          "duration" : 488,
                          "mediaStart" : 1375,
                          "mediaDuration" : 488,
                          "scalar" : 1,
                          "animationTracks" : {

                          }
                        }
,
                    "start" : 2123,
                    "duration" : 488,
                    "mediaStart" : 0,
                    "mediaDuration" : 3093,
                    "scalar" : 1,
                    "metadata" : {
                      "AutoAppliedSmartFocus" : "False",
                      "WinSubProjectDisplayName" : "",
                      "clipSpeedAttribute" : false
                    }
                  },
                  {
                    "id" : 32,
                    "_type" : "UnifiedMedia",
                    "video" : 
                        {
                          "id" : 33,
                          "_type" : "ScreenVMFile",
                          "src" : 10,
                          "trackNumber" : 0,
                          "attributes" : {
                            "ident" : "Rec 12-07-16"
                          },
                          "parameters" : {
                            "scale0" : {
                              "type" : "double",
                              "defaultValue" : 0.364583333333333,
                              "interp" : "eioe"
                            },
                            "scale1" : {
                              "type" : "double",
                              "defaultValue" : 0.364583333333333,
                              "interp" : "eioe"
                            },
                            "sourceCrop0" : {
                              "type" : "double",
                              "defaultValue" : 0.0,
                              "interp" : "linr"
                            },
                            "sourceCrop1" : {
                              "type" : "double",
                              "defaultValue" : 0.0,
                              "interp" : "linr"
                            },
                            "sourceCrop2" : {
                              "type" : "double",
                              "defaultValue" : 0.0,
                              "interp" : "linr"
                            },
                            "sourceCrop3" : {
                              "type" : "double",
                              "defaultValue" : 0.0,
                              "interp" : "linr"
                            },
                            "geometryCrop0" : {
                              "type" : "double",
                              "defaultValue" : 0.0,
                              "interp" : "linr"
                            },
                            "geometryCrop1" : {
                              "type" : "double",
                              "defaultValue" : 0.0,
                              "interp" : "linr"
                            },
                            "geometryCrop2" : {
                              "type" : "double",
                              "defaultValue" : 0.0,
                              "interp" : "linr"
                            },
                            "geometryCrop3" : {
                              "type" : "double",
                              "defaultValue" : 0.0,
                              "interp" : "linr"
                            },
                            "opacity" : {
                              "type" : "double",
                              "defaultValue" : 1.0,
                              "interp" : "linr"
                            },
                            "cursorScale" : {
                              "type" : "double",
                              "defaultValue" : 1.0,
                              "interp" : "linr"
                            },
                            "cursorOpacity" : {
                              "type" : "double",
                              "defaultValue" : 1.0,
                              "interp" : "linr"
                            }
                          },
                          "effects" : [

                          ],
                          "start" : 2611,
                          "duration" : 544,
                          "mediaStart" : 2147,
                          "mediaDuration" : 544,
                          "scalar" : 1,
                          "animationTracks" : {

                          }
                        },
                    "audio" : 
                        {
                          "id" : 34,
                          "_type" : "AMFile",
                          "src" : 10,
                          "trackNumber" : 2,
                          "attributes" : {
                            "ident" : "",
                            "sampleRate" : 44100,
                            "bitDepth" : 16,
                            "gain" : 1.0,
                            "mixToMono" : false
                          },
                            "channelNumber" : "0,1",
                          "effects" : [
                              {
                                "effectName" : "NoiseReduction",
                                "parameters" : {
                                  "denoiserAmount" : {
                                    "type" : "double",
                                    "interp" : "linr",
                                    "valueBounds" : {
                                      "minValue" : 0.0,
                                      "maxValue" : 48.0,
                                      "defaultValue" : 20.0
                                    },
                                    "uiHints" : {
                                      "userInterfaceType" : 0,
                                      "unitType" : 0
                                    },
                                    "keyframes" : [
                                      {
                                        "time" : 0,
                                        "value" : 20.0,
                                        "duration" : 0
                                      }
                                    ]
                                  },
                                  "denoiserThreshold" : {
                                    "type" : "double",
                                    "interp" : "linr",
                                    "valueBounds" : {
                                      "minValue" : -20.0,
                                      "maxValue" : 20.0,
                                      "defaultValue" : 0.0
                                    },
                                    "uiHints" : {
                                      "userInterfaceType" : 0,
                                      "unitType" : 0
                                    },
                                    "keyframes" : [
                                      {
                                        "time" : 0,
                                        "value" : 0.0,
                                        "duration" : 0
                                      }
                                    ]
                                  },
                                  "noiseProfile" : "AAAAAAAAAAAAAAAAAAAAAAAAAAAAAAAAAAAAAAAAAAAAAAAAAAAAAAAAAAAAAAAAAAAAAAAAAAAA\r\nAAAAAAAAAAAAAAAAAAAAAAAAAAAAAAAAAAAAAAAAAAAAAAAAAAAAAAAAAAAAAAAAAAAAAAAAAAAA\r\nAAAAAAAAAAAAAAAAAAAAAAAAAAAAAAAAAAAAAAAAAAAAAAAAAAAAAAAAAAAAAAAAAAAAAAAAAAAA\r\nAAAAAAAAAAAAAAAAAAAAAAAAAAAAAAAAAAAAAAAAAAAAAAAAAAAAAAAAAAAAAAAAAAAAAAAAAAAA\r\nAAAAAAAAAAAAAAAAAAAAAAAAAAAAAAAAAAAAAAAAAAAAAAAAAAAAAAAAAAAAAAAAAAAAAAAAAAAA\r\nAAAAAAAAAAAAAAAAAAAAAAAAAAAAAAAAAAAAAAAAAAAAAAAAAAAAAAAAAAAAAAAAAAAAAAAAAAAA\r\nAAAAAAAAAAAAAAAAAAAAAAAAAAAAAAAAAAAAAAAAAAAAAAAAAAAAAAAAAAAAAAAAAAAAAAAAAAAA\r\nAAAAAAAAAAAAAAAAAAAAAAAAAAAAAAAAAAAAAAAAAAAAAAAAAAAAAAAAAAAAAAAAAAAAAAAAAAAA\r\nAAAAAAAAAAAAAAAAAAAAAAAAAAAAAAAAAAAAAAAAAAAAAAAAAAAAAAAAAAAAAAAAAAAAAAAAAAAA\r\nAAAAAAAAAAAAAAAAAAAAAAAAAAAAAAAAAAAAAAAAAAAAAAAAAAAAAAAAAAAAAAAAAAAAAAAAAAAA\r\nAAAAAAAAAAAAAAAAAAAAAAAAAAAAAAAAAAAAAAAAAAAAAAAAAAAAAAAAAAAAAAAAAAAAAAAAAAAA\r\nAAAAAAAAAAAAAAAAAAAAAAAAAAAAAAAAAAAAAAAAAAAAAAAAAAAAAAAAAAAAAAAAAAAAAAAAAAAA\r\nAAAAAAAAAAAAAAAAAAAAAAAAAAAAAAAAAAAAAAAAAAAAAAAAAAAAAAAAAAAAAAAAAAAAAAAAAAAA\r\nAAAAAAAAAAAAAAAAAAAAAAAAAAAAAAAAAAAAAAAAAAAAAAAAAAAAAAAAAAAAAAAAAAAAAAAAAAAA\r\nAAAAAAAAAAAAAAAAAAAAAAAAAAAAAAAAAAAAAAAAAAAAAAAAAAAAAAAAAAAAAAAAAAAAAAAAAAAA\r\nAAAAAAAAAAAAAAAAAAAAAAAAAAAAAAAAAAAAAAAAAAAAAAAAAAAAAAAAAAAAAAAAAAAAAAAAAAAA\r\nAAAAAAAAAAAAAAAAAAAAAAAAAAAAAAAAAAAAAAAAAAAAAAAAAAAAAAAAAAAAAAAAAAAAAAAAAAAA\r\nAAAAAAAAAAAAAAAAAAAAAAAAAAAAAAAAAAAAAAAAAAAAAAAAAAAAAAAAAAAAAAAAAAAAAAAAAAAA\r\nAAAAAAAAAAAAAAAAAAAAAAAAAAAAAAAAAAAAAAAAAAAAAAAAAAAAAAAAAAAAAAAAAAAAAAAAAAAA\r\nAAAAAAAAAAAAAAAAAAAAAAAAAAAAAAAAAAAAAAAAAAAAAAAAAAAAAAAAAAAAAAAAAAAAAAAAAAAA\r\nAAAAAAAAAAAAAAAAAAAAAAAAAAAAAAAAAAAAAAAAAAAAAAAAAAAAAAAAAAAAAAAAAAAAAAAAAAAA\r\nAAAAAAAAAAAAAAAAAAAAAAAAAAAAAAAAAAAAAAAAAAAAAAAAAAAAAAAAAAAAAAAAAAAAAAAAAAAA\r\nAAAAAAAAAAAAAAAAAAAAAAAAAAAAAAAAAAAAAAAAAAAAAAAAAAAAAAAAAAAAAAAAAAAAAAAAAAAA\r\nAAAAAAAAAAAAAAAAAAAAAAAAAAAAAAAAAAAAAAAAAAAAAAAAAAAAAAAAAAAAAAAAAAAAAAAAAAAA\r\nAAAAAAAAAAAAAAAAAAAAAAAAAAAAAAAAAAAAAAAAAAAAAAAAAAAAAAAAAAAAAAAAAAAAAAAAAAAA\r\nAAAAAAAAAAAAAAAAAAAAAAAAAAAAAAAAAAAAAAAAAAAAAAAAAAAAAAAAAAAAAAAAAAAAAAAAAAAA\r\nAAAAAAAAAAAAAAAAAAAAAAAAAAAAAAAAAAAAAAAAAAAAAAAAAAAAAAAAAAAAAAAAAAAAAAAAAAAA\r\nAAAAAAAAAAAAAAAAAAAAAAAAAAAAAAAAAAAAAAAAAAAAAAAAAAAAAAAAAAAAAAAAAAAAAAAAAAAA\r\nAAAAAAAAAAAAAAAAAAAAAAAAAAAAAAAAAAAAAAAAAAAAAAAAAAAAAAAAAAAAAAAAAAAAAAAAAAAA\r\nAAAAAAAAAAAAAAAAAAAAAAAAAAAAAAAAAAAAAAAAAAAAAAAAAAAAAAAAAAAAAAAAAAAAAAAAAAAA\r\nAAAAAAAAAAAAAAAAAAAAAAAAAAAAAAAAAAAAAAAAAAAAAAAAAAAAAAAAAAAAAAAAAAAAAAAAAAAA\r\nAAAAAAAAAAAAAAAAAAAAAAAAAAAAAAAAAAAAAAAAAAAAAAAAAAAAAAAAAAAAAAAAAAAAAAAAAAAA\r\nAAAAAAAAAAAAAAAAAAAAAAAAAAAAAAAAAAAAAAAAAAAAAAAAAAAAAAAAAAAAAAAAAAAAAAAAAAAA\r\nAAAAAAAAAAAAAAAAAAAAAAAAAAAAAAAAAAAAAAAAAAAAAAAAAAAAAAAAAAAAAAAAAAAAAAAAAAAA\r\nAAAAAAAAAAAAAAAAAAAAAAAAAAAAAAAAAAAAAAAAAAAAAAAAAAAAAAAAAAAAAAAAAAAAAAAAAAAA\r\nAAAAAAAAAAAAAAAAAAAAAAAAAAAAAAAAAAAAAAAAAAAAAAAAAAAAAAAAAAAAAAAAAAAAAAAAAAAA\r\nAAAAAAAAAAAAAAAAAAAAAAAAAAAAAAAAAAAAAAAAAAAAAAAAAAAAAAAAAAAAAAAAAAAAAAAAAAAA\r\nAAAAAAAAAAAAAAAAAAAAAAAAAAAAAAAAAAAAAAAAAAAAAAAAAAAAAAAAAAAAAAAAAAAAAAAAAAAA\r\nAAAAAAAAAAAAAAAAAAAAAAAAAAAAAAAAAAAAAAAAAAAAAAAAAAAAAAAAAAAAAAAAAAAAAAAAAAAA\r\nAAAAAAAAAAAAAAAAAAAAAAAAAAAAAAAAAAAAAAAAAAAAAAAAAAAAAAAAAAAAAAAAAAAAAAAAAAAA\r\nAAAAAAAAAAAAAAAAAAAAAAAAAAAAAAAAAAAAAAAAAAAAAAAAAAAAAAAAAAAAAAAAAAAAAAAAAAAA\r\nAAAAAAAAAAAAAAAAAAAAAAAAAAAAAAAAAAAAAAAAAAAAAAAAAAAAAAAAAAAAAAAAAAAAAAAAAAAA\r\nAAAAAAAAAAAAAAAAAAAAAAAAAAAAAAAAAAAAAAAAAAAAAAAAAAAAAAAAAAAAAAAAAAAAAAAAAAAA\r\nAAAAAAAAAAAAAAAAAAAAAAAAAAAAAAAAAAAAAAAAAAAAAAAAAAAAAAAAAAAAAAAAAAAAAAAAAAAA\r\nAAAAAAAAAAAAAAAAAAAAAAAAAAAAAAAAAAAAAAAAAAAAAAAAAAAAAAAAAAAAAAAAAAAAAAAAAAAA\r\nAAAAAAAAAAAAAAAAAAAAAAAAAAAAAAAAAAAAAAAAAAAAAAAAAAAAAAAAAAAAAAAAAAAAAAAAAAAA\r\nAAAAAAAAAAAAAAAAAAAAAAAAAAAAAAAAAAAAAAAAAAAAAAAAAAAAAAAAAAAAAAAAAAAAAAAAAAAA\r\nAAAAAAAAAAAAAAAAAAAAAAAAAAAAAAAAAAAAAAAAAAAAAAAAAAAAAAAAAAAAAAAAAAAAAAAAAAAA\r\nAAAAAAAAAAAAAAAAAAAAAAAAAAAAAAAAAAAAAAAAAAAAAAAAAAAAAAAAAAAAAAAAAAAAAAAAAAAA\r\nAAAAAAAAAAAAAAAAAAAAAAAAAAAAAAAAAAAAAAAAAAAAAAAAAAAAAAAAAAAAAAAAAAAAAAAAAAAA\r\nAAAAAAAAAAAAAAAAAAAAAAAAAAAAAAAAAAAAAAAAAAAAAAAAAAAAAAAAAAAAAAAAAAAAAAAAAAAA\r\nAAAAAAAAAAAAAAAAAAAAAAAAAAAAAAAAAAAAAAAAAAAAAAAAAAAAAAAAAAAAAAAAAAAAAAAAAAAA\r\nAAAAAAAAAAAAAAAAAAAAAAAAAAAAAAAAAAAAAAAAAAAAAAAAAAAAAAAAAAAAAAAAAAAAAAAAAAAA\r\nAAAAAAAAAAAAAAAAAAAAAAAAAAAAAAAAAAAAAAAAAAAAAAAAAAAAAAAAAAAAAAAAAAAAAAAAAAAA\r\nAAAAAAAAAAAAAAAAAAAAAAAAAAAAAAAAAAAAAAAAAAAAAAAAAAAAAAAAAAAAAAAAAAAAAAAAAAAA\r\nAAAAAAAAAAAAAAAAAAAAAAAAAAAAAAAAAAAAAAAAAAAAAAAAAAAAAAAAAAAAAAAAAAAAAAAAAAAA\r\nAAAAAAAAAAAAAAAAAAAAAAAAAAAAAAAAAAAAAAAAAAAAAAAAAAAAAAAAAAAAAAAAAAAAAAAAAAAA\r\nAAAAAAAAAAAAAAAAAAAAAAAAAAAAAAAAAAAAAAAAAAAAAAAAAAAAAAAAAAAAAAAAAAAAAAAAAAAA\r\nAAAAAAAAAAAAAAAAAAAAAAAAAAAAAAAAAAAAAAAAAAAAAAAAAAAAAAAAAAAAAAAAAAAAAAAAAAAA\r\nAAAAAAAAAAAAAAAAAAAAAAAAAAAAAAAAAAAAAAAAAAAAAAAAAAAAAAAAAAAAAAAAAAAAAAAAAAAA\r\nAAAAAAAAAAAAAAAAAAAAAAAAAAAAAAAAAAAAAAAAAAAAAAAAAAAAAAAAAAAAAAAAAAAAAAAAAAAA\r\nAAAAAAAAAAAAAAAAAAAAAAAAAAAAAAAAAAAAAAAAAAAAAAAAAAAAAAAAAAAAAAAAAAAAAAAAAAAA\r\nAAAAAAAAAAAAAAAAAAAAAAAAAAAAAAAAAAAAAAAAAAAAAAAAAAAAAAAAAAAAAAAAAAAAAAAAAAAA\r\nAAAAAAAAAAAAAAAAAAAAAAAAAAAAAAAAAAAAAAAAAAAAAAAAAAAAAAAAAAAAAAAAAAAAAAAAAAAA\r\nAAAAAAAAAAAAAAAAAAAAAAAAAAAAAAAAAAAAAAAAAAAAAAAAAAAAAAAAAAAAAAAAAAAAAAAAAAAA\r\nAAAAAAAAAAAAAAAAAAAAAAAAAAAAAAAAAAAAAAAAAAAAAAAAAAAAAAAAAAAAAAAAAAAAAAAAAAAA\r\nAAAAAAAAAAAAAAAAAAAAAAAAAAAAAAAAAAAAAAAAAAAAAAAAAAAAAAAAAAAAAAAAAAAAAAAAAAAA\r\nAAAAAAAAAAAAAAAAAAAAAAAAAAAAAAAAAAAAAAAAAAAAAAAAAAAAAAAAAAAAAAAAAAAAAAAAAAAA\r\nAAAAAAAAAAAAAAAAAAAAAAAAAAAAAAAAAAAAAAAAAAAAAAAAAAAAAAAAAAAAAAAAAAAAAAAAAAAA\r\nAAAAAAAAAAAAAAAAAAAAAAAAAAAAAAAAAAAAAAAAAAAAAAAAAAAAAAAAAAAAAAAAAAAAAAAAAAAA\r\nAAAAAAAAAAAAAAAAAAAAAAAAAAAAAAAAAAAAAAAAAAAAAAAAAAAAAAAAAAAAAAAAAAAAAAAAAAAA\r\nAAAAAAAAAAAAAAAAAAAAAAAAAAAAAAAAAAAAAAAAAAAAAAAAAAAAAAAAAAAAAAAAAAAAAAAAAAAA\r\nAAAAAAAAAAAAAAAAAAAAAAAAAAAAAAAAAAAAAAAAAAAAAAAAAAAAAAAAAAAAAAAAAAAAAAAAAAAA\r\nAAAAAAAAAAAAAAAAAAAAAAAAAAAAAAAAAAAAAAAAAAAAAAAAAAAAAAAAAAAAAAAAAAAAAAAAAAAA\r\nAAAAAAAAAAAAAAAAAAAAAAAAAAAAAAAAAAAAAAAAAAAAAAAAAAAAAAAAAAAAAAAAAAAAAAAAAAAA\r\nAAAAAAAAAAAAAAAAAAAAAAAAAAAAAAAAAAAAAAAAAAAAAAAAAAAAAAAAAAAAAAAAAAAAAAAAAAAA\r\nAAAAAAAAAAAAAAAAAAAAAAAAAAAAAAAAAAAAAAAAAAAAAAAAAAAAAAAAAAAAAAAAAAAAAAAAAAAA\r\nAAAAAAAAAAAAAAAAAAAAAAAAAAAAAAAAAAAAAAAAAAAAAAAAAAAAAAAAAAAAAAAAAAAAAAAAAAAA\r\nAAAAAAAAAAAAAAAAAAAAAAAAAAAAAAAAAAAAAAAAAAAAAAAAAAAAAAAAAAAAAAAAAAAAAAAAAAAA\r\nAAAAAAAAAAAAAAAAAAAAAAAAAAAAAAAAAAAAAAAAAAAAAAAAAAAAAAAAAAAAAAAAAAAAAAAAAAAA\r\nAAAAAAAAAAAAAAAAAAAAAAAAAAAAAAAAAAAAAAAAAAAAAAAAAAAAAAAAAAAAAAAAAAAAAAAAAAAA\r\nAAAAAAAAAAAAAAAAAAAAAAAAAAAAAAAAAAAAAAAAAAAAAAAAAAAAAAAAAAAAAAAAAAAAAAAAAAAA\r\nAAAAAAAAAAAAAAAAAAAAAAAAAAAAAAAAAAAAAAAAAAAAAAAAAAAAAAAAAAAAAAAAAAAAAAAAAAAA\r\nAAAAAAAAAAAAAAAAAAAAAAAAAAAAAAAAAAAAAAAAAAAAAAAAAAAAAAAAAAAAAAAAAAAAAAAAAAAA\r\nAAAAAAAAAAAAAAAAAAAAAAAAAAAAAAAAAAAAAAAAAAAAAAAAAAAAAAAAAAAAAAAAAAAAAAAAAAAA\r\nAAAAAAAAAAAAAAAAAAAAAAAAAAAAAAAAAAAAAAAAAAAAAAAAAAAAAAAAAAAAAAAAAAAAAAAAAAAA\r\nAAAAAAAAAAAAAAAAAAAAAAAAAAAAAAAAAAAAAAAAAAAAAAAAAAAAAAAAAAAAAAAAAAAAAAAAAAAA\r\nAAAAAAAAAAAAAAAAAAAAAAAAAAAAAAAAAAAAAAAAAAAAAAAAAAAAAAAAAAAAAAAAAAAAAAAAAAAA\r\nAAAAAAAAAAAAAAAAAAAAAAAAAAAAAAAAAAAAAAAAAAAAAAAAAAAAAAAAAAAAAAAAAAAAAAAAAAAA\r\nAAAAAAAAAAAAAAAAAAAAAAAAAAAAAAAAAAAAAAAAAAAAAAAAAAAAAAAAAAAAAAAAAAAAAAAAAAAA\r\nAAAAAAAAAAAAAAAAAAAAAAAAAAAAAAAAAAAAAAAAAAAAAAAAAAAAAAAAAAAAAAAAAAAAAAAAAAAA\r\nAAAAAAAAAAAAAAAAAAAAAAAAAAAAAAAAAAAAAAAAAAAAAAAAAAAAAAAAAAAAAAAAAAAAAAAAAAAA\r\nAAAAAAAAAAAAAAAAAAAAAAAAAAAAAAAAAAAAAAAAAAAAAAAAAAAAAAAAAAAAAAAAAAAAAAAAAAAA\r\nAAAAAAAAAAAAAAAAAAAAAAAAAAAAAAAAAAAAAAAAAAAAAAAAAAAAAAAAAAAAAAAAAAAAAAAAAAAA\r\nAAAAAAAAAAAAAAAAAAAAAAAAAAAAAAAAAAAAAAAAAAAAAAAAAAAAAAAAAAAAAAAAAAAAAAAAAAAA\r\nAAAAAAAAAAAAAAAAAAAAAAAAAAAAAAAAAAAAAAAAAAAAAAAAAAAAAAAAAAAAAAAAAAAAAAAAAAAA\r\nAAAAAAAAAAAAAAAAAAAAAAAAAAAAAAAAAAAAAAAAAAAAAAAAAAAAAAAAAAAAAAAAAAAAAAAAAAAA\r\nAAAAAAAAAAAAAAAAAAAAAAAAAAAAAAAAAAAAAAAAAAAAAAAAAAAAAAAAAAAAAAAAAAAAAAAAAAAA\r\nAAAAAAAAAAAAAAAAAAAAAAAAAAAAAAAAAAAAAAAAAAAAAAAAAAAAAAAAAAAAAAAAAAAAAAAAAAAA\r\nAAAAAAAAAAAAAAAAAAAAAAAAAAAAAAAAAAAAAAAAAAAAAAAAAAAAAAAAAAAAAAAAAAAAAAAAAAAA\r\nAAAAAAAAAAAAAAAAAAAAAAAAAAAAAAAAAAAAAAAAAAAAAAAAAAAAAAAAAAAAAAAAAAAAAAAAAAAA\r\nAAAAAAAAAAAAAAAAAAAAAAAAAAAAAAAAAAAAAAAAAAAAAAAAAAAAAAAAAAAAAAAAAAAAAAAAAAAA\r\nAAAAAAAAAAAAAAAAAAAAAAAAAAAAAAAAAAAAAAAAAAAAAAAAAAAAAAAAAAAAAAAAAAAAAAAAAAAA\r\nAAAAAAAAAAAAAAAAAAAAAAAAAAAAAAAAAAAAAAAAAAAAAAAAAAAAAAAAAAAAAAAAAAAAAAAAAAAA\r\nAAAAAAAAAAAAAAAAAAAAAAAAAAAAAAAAAAAAAAAAAAAAAAAAAAAAAAAAAAAAAAAAAAAAAAAAAAAA\r\nAAAAAAAAAAAAAAAAAAAAAAAAAAAAAAAAAAAAAAAAAAAAAAAAAAAAAAAAAAAAAAAAAAAAAAAAAAAA\r\nAAAAAAAAAAAAAAAAAAAAAAAAAAAAAAAAAAAAAAAAAAAAAAAAAAAAAAAAAAAAAAAAAAAAAAAAAAAA\r\nAAAAAAAAAAAAAAAAAAAAAAAAAAAAAAAAAAAAAAAAAAAAAAAAAAAAAAAAAAAAAAAAAAAAAAAAAAAA\r\nAAAAAAAAAAAAAAAAAAAAAAAAAAAAAAAAAAAAAAAAAAAAAAAAAAAAAAAAAAAAAAAAAAAAAAAAAAAA\r\nAAAAAAAAAAAAAAAAAAAAAAAAAAAAAAAAAAAAAAAAAAAAAAAAAAAAAAAAAAAAAAAAAAAAAAAAAAAA\r\nAAAAAAAAAAAAAAAAAAAAAAAAAAAAAAAAAAAAAAAAAAAAAAAAAAAAAAAAAAAAAAAAAAAAAAAAAAAA\r\nAAAAAAAAAAAAAAAAAAAAAAAAAAAAAAAAAAAAAAAAAAAAAAAAAAAAAAAAAAAAAAAAAAAAAAAAAAAA\r\nAAAAAAAAAAAAAAAAAAAAAAAAAAAAAAAAAAAAAAAAAAAAAAAAAAAAAAAAAAAAAAAAAAAAAAAAAAAA\r\nAAAAAAAAAAAAAAAAAAAAAAAAAAAAAAAAAAAAAAAAAAAAAAAAAAAAAAAAAAAAAAAAAAAAAAAAAAAA\r\nAAAAAAAAAAAAAAAAAAAAAAAAAAAAAAAAAAAAAAAAAAAAAAAAAAAAAAAAAAAAAAAAAAAAAAAAAAAA\r\nAAAAAAAAAAAAAAAAAAAAAAAAAAAAAAAAAAAAAAAAAAAAAAAAAAAAAAAAAAAAAAAAAAAAAAAAAAAA\r\nAAAAAAAAAAAAAAAAAAAAAAAAAAAAAAAAAAAAAAAAAAAAAAAAAAAAAAAAAAAAAAAAAAAAAAAAAAAA\r\nAAAAAAAAAAAAAAAAAAAAAAAAAAAAAAAAAAAAAAAAAAAAAAAAAAAAAAAAAAAAAAAAAAAAAAAAAAAA\r\nAAAAAAAAAAAAAAAAAAAAAAAAAAAAAAAAAAAAAAAAAAAAAAAAAAAAAAAAAAAAAAAAAAAAAAAAAAAA\r\nAAAAAAAAAAAAAAAAAAAAAAAAAAAAAAAAAAAAAAAAAAAAAAAAAAAAAAAAAAAAAAAAAAAAAAAAAAAA\r\nAAAAAAAAAAAAAAAAAAAAAAAAAAAAAAAAAAAAAAAAAAAAAAAAAAAAAAAAAAAAAAAAAAAAAAAAAAAA\r\nAAAAAAAAAAAAAAAAAAAAAAAAAAAAAAAAAAAAAAAAAAAAAAAAAAAAAAAAAAAAAAAAAAAAAAAAAAAA\r\nAAAAAAAAAAAAAAAAAAAAAAAAAAAAAAAAAAAAAAAAAAAAAAAAAAAAAAAAAAAAAAAAAAAAAAAAAAAA\r\nAAAAAAAAAAAAAAAAAAAAAAAAAAAAAAAAAAAAAAAAAAAAAAAAAAAAAAAAAAAAAAAAAAAAAAAAAAAA\r\nAAAAAAAAAAAAAAAAAAAAAAAAAAAAAAAAAAAAAAAAAAAAAAAAAAAAAAAAAAAAAAAAAAAAAAAAAAAA\r\nAAAAAAAAAAAAAAAAAAAAAAAAAAAAAAAAAAAAAAAAAAAAAAAAAAAAAAAAAAAAAAAAAAAAAAAAAAAA\r\nAAAAAAAAAAAAAAAAAAAAAAAAAAAAAAAAAAAAAAAAAAAAAAAAAAAAAAAAAAAAAAAAAAAAAAAAAAAA\r\nAAAAAAAAAAAAAAAAAAAAAAAAAAAAAAAAAAAAAAAAAAAAAAAAAAAAAAAAAAAAAAAAAAAAAAAAAAAA\r\nAAAAAAAAAAAAAAAAAAAAAAAAAAAAAAAAAAAAAAAAAAAAAAAAAAAAAAAAAAAAAAAAAAAAAAAAAAAA\r\nAAAAAAAAAAAAAAAAAAAAAAAAAAAAAAAAAAAAAAAAAAAAAAAAAAAAAAAAAAAAAAAAAAAAAAAAAAAA\r\nAAAAAAAAAAAAAAAAAAAAAAAAAAAAAAAAAAAAAAAAAAAAAAAAAAAAAAAAAAAAAAAAAAAAAAAAAAAA\r\nAAAAAAAAAAAAAAAAAAAAAAAAAAAAAAAAAAAAAAAAAAAAAAAAAAAAAAAAAAAAAAAAAAAAAAAAAAAA\r\nAAAAAAAAAAAAAAAAAAAAAAAAAAAAAAAAAAAAAAAAAAAAAAAAAAAAAAAAAAAAAAAAAAAAAAAAAAAA\r\nAAAAAAAAAAAAAAAAAAAAAAAAAAAAAAAAAAAAAAAAAAAAAAAAAAAAAAAAAAAAAAAAAAAAAAAAAAAA\r\nAAAAAAAAAAAAAAAAAAAAAAAAAAAAAAAAAAAAAAAAAAAAAAAAAAAAAAAAAAAAAAAAAAAAAAAAAAAA\r\nAAAAAAAAAAAAAAAAAAAAAAAAAAAAAAAAAAAAAAAAAAAAAAAAAAAAAAAAAAAAAAAAAAAAAAAAAAAA\r\nAAAAAAAAAAAAAAAAAAAAAAAAAAAAAAAAAAAAAAAAAAAAAAAAAAAAAAAAAAAAAAAAAAAAAAAAAAAA\r\nAAAAAAAAAAAAAAAAAAAAAAAAAAAAAAAAAAAAAAAAAAAAAAAAAAAAAAAAAAAAAAAAAAAAAAAAAAAA\r\nAAAAAAAAAAAAAAAAAAAAAAAAAAAAAAAAAAAAAAAAAAAAAAAAAAAAAAAAAAAAAAAAAAAAAAAAAAAA\r\nAAAAAAAAAAAAAAAAAAAAAAAAAAAAAAAAAAAAAAAAAAAAAAAAAAAAAAAAAAAAAAAAAAAAAAAAAAAA\r\nAAAAAAAAAAAAAAAAAAAAAAAAAAAAAAAAAAAAAAAAAAAAAAAAAAAAAAAAAAAAAAAAAAAAAAAAAAAA\r\nAAAAAAAAAAAAAAAAAAAAAAAAAAAAAAAAAAAAAAAAAAAAAAAAAAAAAAAAAAAAAAAAAAAAAAAAAAAA\r\nAAAAAAAAAAAAAAAAAAAAAAAAAAAAAAAAAAAAAAAAAAAAAAAAAAAAAAAAAAAAAAAAAAAAAAAAAAAA\r\nAAAAAAAAAAAAAAAAAAAAAAAAAAAAAAAAAAAAAAAAAAAAAAAAAAAAAAAAAAAAAAAAAA==",
                                  "noiseTrainingType" : "default"
                                },
                                "metadata" : {
                                  "effectIndex" : "0"
                                }
                              }
                          ],
                          "start" : 2611,
                          "duration" : 544,
                          "mediaStart" : 2147,
                          "mediaDuration" : 544,
                          "scalar" : 1,
                          "animationTracks" : {

                          }
                        }
,
                    "start" : 2611,
                    "duration" : 544,
                    "mediaStart" : 0,
                    "mediaDuration" : 3093,
                    "scalar" : 1,
                    "metadata" : {
                      "AutoAppliedSmartFocus" : "False",
                      "WinSubProjectDisplayName" : "",
                      "clipSpeedAttribute" : false
                    }
                  },
                  {
                    "id" : 35,
                    "_type" : "UnifiedMedia",
                    "video" : 
                        {
                          "id" : 36,
                          "_type" : "ScreenVMFile",
                          "src" : 11,
                          "trackNumber" : 0,
                          "attributes" : {
                            "ident" : "Rec 12-07-16 1"
                          },
                          "parameters" : {
                            "scale0" : {
                              "type" : "double",
                              "defaultValue" : 0.364583333333333,
                              "interp" : "eioe"
                            },
                            "scale1" : {
                              "type" : "double",
                              "defaultValue" : 0.364583333333333,
                              "interp" : "eioe"
                            },
                            "sourceCrop0" : {
                              "type" : "double",
                              "defaultValue" : 0.0,
                              "interp" : "linr"
                            },
                            "sourceCrop1" : {
                              "type" : "double",
                              "defaultValue" : 0.0,
                              "interp" : "linr"
                            },
                            "sourceCrop2" : {
                              "type" : "double",
                              "defaultValue" : 0.0,
                              "interp" : "linr"
                            },
                            "sourceCrop3" : {
                              "type" : "double",
                              "defaultValue" : 0.0,
                              "interp" : "linr"
                            },
                            "geometryCrop0" : {
                              "type" : "double",
                              "defaultValue" : 0.0,
                              "interp" : "linr"
                            },
                            "geometryCrop1" : {
                              "type" : "double",
                              "defaultValue" : 0.0,
                              "interp" : "linr"
                            },
                            "geometryCrop2" : {
                              "type" : "double",
                              "defaultValue" : 0.0,
                              "interp" : "linr"
                            },
                            "geometryCrop3" : {
                              "type" : "double",
                              "defaultValue" : 0.0,
                              "interp" : "linr"
                            },
                            "opacity" : {
                              "type" : "double",
                              "defaultValue" : 1.0,
                              "interp" : "linr"
                            },
                            "cursorScale" : {
                              "type" : "double",
                              "defaultValue" : 1.0,
                              "interp" : "linr"
                            },
                            "cursorOpacity" : {
                              "type" : "double",
                              "defaultValue" : 1.0,
                              "interp" : "linr"
                            }
                          },
                          "effects" : [

                          ],
                          "start" : 3155,
                          "duration" : 222,
                          "mediaStart" : 39,
                          "mediaDuration" : 222,
                          "scalar" : 1,
                          "animationTracks" : {

                          }
                        },
                    "audio" : 
                        {
                          "id" : 37,
                          "_type" : "AMFile",
                          "src" : 11,
                          "trackNumber" : 2,
                          "attributes" : {
                            "ident" : "",
                            "sampleRate" : 44100,
                            "bitDepth" : 16,
                            "gain" : 1.0,
                            "mixToMono" : false
                          },
                            "channelNumber" : "0,1",
                          "effects" : [

                          ],
                          "start" : 3155,
                          "duration" : 222,
                          "mediaStart" : 39,
                          "mediaDuration" : 222,
                          "scalar" : 1,
                          "animationTracks" : {

                          }
                        }
,
                    "start" : 3155,
                    "duration" : 222,
                    "mediaStart" : 0,
                    "mediaDuration" : 3410,
                    "scalar" : 1,
                    "metadata" : {
                      "AutoAppliedSmartFocus" : "False",
                      "WinSubProjectDisplayName" : "",
                      "clipSpeedAttribute" : false
                    }
                  },
                  {
                    "id" : 38,
                    "_type" : "UnifiedMedia",
                    "video" : 
                        {
                          "id" : 39,
                          "_type" : "ScreenVMFile",
                          "src" : 11,
                          "trackNumber" : 0,
                          "attributes" : {
                            "ident" : "Rec 12-07-16 1"
                          },
                          "parameters" : {
                            "scale0" : {
                              "type" : "double",
                              "defaultValue" : 0.364583333333333,
                              "interp" : "eioe"
                            },
                            "scale1" : {
                              "type" : "double",
                              "defaultValue" : 0.364583333333333,
                              "interp" : "eioe"
                            },
                            "sourceCrop0" : {
                              "type" : "double",
                              "defaultValue" : 0.0,
                              "interp" : "linr"
                            },
                            "sourceCrop1" : {
                              "type" : "double",
                              "defaultValue" : 0.0,
                              "interp" : "linr"
                            },
                            "sourceCrop2" : {
                              "type" : "double",
                              "defaultValue" : 0.0,
                              "interp" : "linr"
                            },
                            "sourceCrop3" : {
                              "type" : "double",
                              "defaultValue" : 0.0,
                              "interp" : "linr"
                            },
                            "geometryCrop0" : {
                              "type" : "double",
                              "defaultValue" : 0.0,
                              "interp" : "linr"
                            },
                            "geometryCrop1" : {
                              "type" : "double",
                              "defaultValue" : 0.0,
                              "interp" : "linr"
                            },
                            "geometryCrop2" : {
                              "type" : "double",
                              "defaultValue" : 0.0,
                              "interp" : "linr"
                            },
                            "geometryCrop3" : {
                              "type" : "double",
                              "defaultValue" : 0.0,
                              "interp" : "linr"
                            },
                            "opacity" : {
                              "type" : "double",
                              "defaultValue" : 1.0,
                              "interp" : "linr"
                            },
                            "cursorScale" : {
                              "type" : "double",
                              "defaultValue" : 1.0,
                              "interp" : "linr"
                            },
                            "cursorOpacity" : {
                              "type" : "double",
                              "defaultValue" : 1.0,
                              "interp" : "linr"
                            }
                          },
                          "effects" : [

                          ],
                          "start" : 3377,
                          "duration" : 847,
                          "mediaStart" : 303,
                          "mediaDuration" : 847,
                          "scalar" : 1,
                          "animationTracks" : {

                          }
                        },
                    "audio" : 
                        {
                          "id" : 40,
                          "_type" : "AMFile",
                          "src" : 11,
                          "trackNumber" : 2,
                          "attributes" : {
                            "ident" : "",
                            "sampleRate" : 44100,
                            "bitDepth" : 16,
                            "gain" : 1.0,
                            "mixToMono" : false
                          },
                            "channelNumber" : "0,1",
                          "effects" : [

                          ],
                          "start" : 3377,
                          "duration" : 847,
                          "mediaStart" : 303,
                          "mediaDuration" : 847,
                          "scalar" : 1,
                          "animationTracks" : {

                          }
                        }
,
                    "start" : 3377,
                    "duration" : 847,
                    "mediaStart" : 0,
                    "mediaDuration" : 3410,
                    "scalar" : 1,
                    "metadata" : {
                      "AutoAppliedSmartFocus" : "False",
                      "WinSubProjectDisplayName" : "",
                      "clipSpeedAttribute" : false
                    }
                  },
                  {
                    "id" : 41,
                    "_type" : "UnifiedMedia",
                    "video" : 
                        {
                          "id" : 42,
                          "_type" : "ScreenVMFile",
                          "src" : 11,
                          "trackNumber" : 0,
                          "attributes" : {
                            "ident" : "Rec 12-07-16 1"
                          },
                          "parameters" : {
                            "scale0" : {
                              "type" : "double",
                              "defaultValue" : 0.364583333333333,
                              "interp" : "eioe"
                            },
                            "scale1" : {
                              "type" : "double",
                              "defaultValue" : 0.364583333333333,
                              "interp" : "eioe"
                            },
                            "sourceCrop0" : {
                              "type" : "double",
                              "defaultValue" : 0.0,
                              "interp" : "linr"
                            },
                            "sourceCrop1" : {
                              "type" : "double",
                              "defaultValue" : 0.0,
                              "interp" : "linr"
                            },
                            "sourceCrop2" : {
                              "type" : "double",
                              "defaultValue" : 0.0,
                              "interp" : "linr"
                            },
                            "sourceCrop3" : {
                              "type" : "double",
                              "defaultValue" : 0.0,
                              "interp" : "linr"
                            },
                            "geometryCrop0" : {
                              "type" : "double",
                              "defaultValue" : 0.0,
                              "interp" : "linr"
                            },
                            "geometryCrop1" : {
                              "type" : "double",
                              "defaultValue" : 0.0,
                              "interp" : "linr"
                            },
                            "geometryCrop2" : {
                              "type" : "double",
                              "defaultValue" : 0.0,
                              "interp" : "linr"
                            },
                            "geometryCrop3" : {
                              "type" : "double",
                              "defaultValue" : 0.0,
                              "interp" : "linr"
                            },
                            "opacity" : {
                              "type" : "double",
                              "defaultValue" : 1.0,
                              "interp" : "linr"
                            },
                            "cursorScale" : {
                              "type" : "double",
                              "defaultValue" : 1.0,
                              "interp" : "linr"
                            },
                            "cursorOpacity" : {
                              "type" : "double",
                              "defaultValue" : 1.0,
                              "interp" : "linr"
                            }
                          },
                          "effects" : [

                          ],
                          "start" : 4224,
                          "duration" : 667,
                          "mediaStart" : 1284,
                          "mediaDuration" : 667,
                          "scalar" : 1,
                          "animationTracks" : {

                          }
                        },
                    "audio" : 
                        {
                          "id" : 43,
                          "_type" : "AMFile",
                          "src" : 11,
                          "trackNumber" : 2,
                          "attributes" : {
                            "ident" : "",
                            "sampleRate" : 44100,
                            "bitDepth" : 16,
                            "gain" : 1.0,
                            "mixToMono" : false
                          },
                            "channelNumber" : "0,1",
                          "effects" : [

                          ],
                          "start" : 4224,
                          "duration" : 667,
                          "mediaStart" : 1284,
                          "mediaDuration" : 667,
                          "scalar" : 1,
                          "animationTracks" : {

                          }
                        }
,
                    "start" : 4224,
                    "duration" : 667,
                    "mediaStart" : 0,
                    "mediaDuration" : 3410,
                    "scalar" : 1,
                    "metadata" : {
                      "AutoAppliedSmartFocus" : "False",
                      "WinSubProjectDisplayName" : "",
                      "clipSpeedAttribute" : false
                    }
                  },
                  {
                    "id" : 44,
                    "_type" : "UnifiedMedia",
                    "video" : 
                        {
                          "id" : 45,
                          "_type" : "ScreenVMFile",
                          "src" : 11,
                          "trackNumber" : 0,
                          "attributes" : {
                            "ident" : "Rec 12-07-16 1"
                          },
                          "parameters" : {
                            "scale0" : {
                              "type" : "double",
                              "defaultValue" : 0.364583333333333,
                              "interp" : "eioe"
                            },
                            "scale1" : {
                              "type" : "double",
                              "defaultValue" : 0.364583333333333,
                              "interp" : "eioe"
                            },
                            "sourceCrop0" : {
                              "type" : "double",
                              "defaultValue" : 0.0,
                              "interp" : "linr"
                            },
                            "sourceCrop1" : {
                              "type" : "double",
                              "defaultValue" : 0.0,
                              "interp" : "linr"
                            },
                            "sourceCrop2" : {
                              "type" : "double",
                              "defaultValue" : 0.0,
                              "interp" : "linr"
                            },
                            "sourceCrop3" : {
                              "type" : "double",
                              "defaultValue" : 0.0,
                              "interp" : "linr"
                            },
                            "geometryCrop0" : {
                              "type" : "double",
                              "defaultValue" : 0.0,
                              "interp" : "linr"
                            },
                            "geometryCrop1" : {
                              "type" : "double",
                              "defaultValue" : 0.0,
                              "interp" : "linr"
                            },
                            "geometryCrop2" : {
                              "type" : "double",
                              "defaultValue" : 0.0,
                              "interp" : "linr"
                            },
                            "geometryCrop3" : {
                              "type" : "double",
                              "defaultValue" : 0.0,
                              "interp" : "linr"
                            },
                            "opacity" : {
                              "type" : "double",
                              "defaultValue" : 1.0,
                              "interp" : "linr"
                            },
                            "cursorScale" : {
                              "type" : "double",
                              "defaultValue" : 1.0,
                              "interp" : "linr"
                            },
                            "cursorOpacity" : {
                              "type" : "double",
                              "defaultValue" : 1.0,
                              "interp" : "linr"
                            }
                          },
                          "effects" : [

                          ],
                          "start" : 4891,
                          "duration" : 692,
                          "mediaStart" : 2111,
                          "mediaDuration" : 692,
                          "scalar" : 1,
                          "animationTracks" : {

                          }
                        },
                    "audio" : 
                        {
                          "id" : 46,
                          "_type" : "AMFile",
                          "src" : 11,
                          "trackNumber" : 2,
                          "attributes" : {
                            "ident" : "",
                            "sampleRate" : 44100,
                            "bitDepth" : 16,
                            "gain" : 1.0,
                            "mixToMono" : false
                          },
                            "channelNumber" : "0,1",
                          "effects" : [

                          ],
                          "start" : 4891,
                          "duration" : 692,
                          "mediaStart" : 2111,
                          "mediaDuration" : 692,
                          "scalar" : 1,
                          "animationTracks" : {

                          }
                        }
,
                    "start" : 4891,
                    "duration" : 692,
                    "mediaStart" : 0,
                    "mediaDuration" : 3410,
                    "scalar" : 1,
                    "metadata" : {
                      "AutoAppliedSmartFocus" : "False",
                      "WinSubProjectDisplayName" : "",
                      "clipSpeedAttribute" : false
                    }
                  },
                  {
                    "id" : 47,
                    "_type" : "UnifiedMedia",
                    "video" : 
                        {
                          "id" : 48,
                          "_type" : "ScreenVMFile",
                          "src" : 12,
                          "trackNumber" : 0,
                          "attributes" : {
                            "ident" : "Rec 12-07-16 2"
                          },
                          "parameters" : {
                            "scale0" : {
                              "type" : "double",
                              "defaultValue" : 0.364583333333333,
                              "interp" : "eioe"
                            },
                            "scale1" : {
                              "type" : "double",
                              "defaultValue" : 0.364583333333333,
                              "interp" : "eioe"
                            },
                            "sourceCrop0" : {
                              "type" : "double",
                              "defaultValue" : 0.0,
                              "interp" : "linr"
                            },
                            "sourceCrop1" : {
                              "type" : "double",
                              "defaultValue" : 0.0,
                              "interp" : "linr"
                            },
                            "sourceCrop2" : {
                              "type" : "double",
                              "defaultValue" : 0.0,
                              "interp" : "linr"
                            },
                            "sourceCrop3" : {
                              "type" : "double",
                              "defaultValue" : 0.0,
                              "interp" : "linr"
                            },
                            "geometryCrop0" : {
                              "type" : "double",
                              "defaultValue" : 0.0,
                              "interp" : "linr"
                            },
                            "geometryCrop1" : {
                              "type" : "double",
                              "defaultValue" : 0.0,
                              "interp" : "linr"
                            },
                            "geometryCrop2" : {
                              "type" : "double",
                              "defaultValue" : 0.0,
                              "interp" : "linr"
                            },
                            "geometryCrop3" : {
                              "type" : "double",
                              "defaultValue" : 0.0,
                              "interp" : "linr"
                            },
                            "opacity" : {
                              "type" : "double",
                              "defaultValue" : 1.0,
                              "interp" : "linr"
                            },
                            "cursorScale" : {
                              "type" : "double",
                              "defaultValue" : 1.0,
                              "interp" : "linr"
                            },
                            "cursorOpacity" : {
                              "type" : "double",
                              "defaultValue" : 1.0,
                              "interp" : "linr"
                            }
                          },
                          "effects" : [

                          ],
                          "start" : 5583,
                          "duration" : 1925,
                          "mediaStart" : 29,
                          "mediaDuration" : 1925,
                          "scalar" : 1,
                          "animationTracks" : {

                          }
                        },
                    "audio" : 
                        {
                          "id" : 49,
                          "_type" : "AMFile",
                          "src" : 12,
                          "trackNumber" : 2,
                          "attributes" : {
                            "ident" : "",
                            "sampleRate" : 44100,
                            "bitDepth" : 16,
                            "gain" : 1.0,
                            "mixToMono" : false
                          },
                            "channelNumber" : "0,1",
                          "effects" : [

                          ],
                          "start" : 5583,
                          "duration" : 1925,
                          "mediaStart" : 29,
                          "mediaDuration" : 1925,
                          "scalar" : 1,
                          "animationTracks" : {

                          }
                        }
,
                    "start" : 5583,
                    "duration" : 1925,
                    "mediaStart" : 0,
                    "mediaDuration" : 2721,
                    "scalar" : 1,
                    "metadata" : {
                      "AutoAppliedSmartFocus" : "False",
                      "WinSubProjectDisplayName" : "",
                      "clipSpeedAttribute" : false
                    }
                  },
                  {
                    "id" : 50,
                    "_type" : "UnifiedMedia",
                    "video" : 
                        {
                          "id" : 51,
                          "_type" : "ScreenVMFile",
                          "src" : 13,
                          "trackNumber" : 0,
                          "attributes" : {
                            "ident" : "Rec 12-07-16 3"
                          },
                          "parameters" : {
                            "scale0" : {
                              "type" : "double",
                              "defaultValue" : 0.364583333333333,
                              "interp" : "eioe"
                            },
                            "scale1" : {
                              "type" : "double",
                              "defaultValue" : 0.364583333333333,
                              "interp" : "eioe"
                            },
                            "sourceCrop0" : {
                              "type" : "double",
                              "defaultValue" : 0.0,
                              "interp" : "linr"
                            },
                            "sourceCrop1" : {
                              "type" : "double",
                              "defaultValue" : 0.0,
                              "interp" : "linr"
                            },
                            "sourceCrop2" : {
                              "type" : "double",
                              "defaultValue" : 0.0,
                              "interp" : "linr"
                            },
                            "sourceCrop3" : {
                              "type" : "double",
                              "defaultValue" : 0.0,
                              "interp" : "linr"
                            },
                            "geometryCrop0" : {
                              "type" : "double",
                              "defaultValue" : 0.0,
                              "interp" : "linr"
                            },
                            "geometryCrop1" : {
                              "type" : "double",
                              "defaultValue" : 0.0,
                              "interp" : "linr"
                            },
                            "geometryCrop2" : {
                              "type" : "double",
                              "defaultValue" : 0.0,
                              "interp" : "linr"
                            },
                            "geometryCrop3" : {
                              "type" : "double",
                              "defaultValue" : 0.0,
                              "interp" : "linr"
                            },
                            "opacity" : {
                              "type" : "double",
                              "defaultValue" : 1.0,
                              "interp" : "linr"
                            },
                            "cursorScale" : {
                              "type" : "double",
                              "defaultValue" : 1.0,
                              "interp" : "linr"
                            },
                            "cursorOpacity" : {
                              "type" : "double",
                              "defaultValue" : 1.0,
                              "interp" : "linr"
                            }
                          },
                          "effects" : [

                          ],
                          "start" : 7508,
                          "duration" : 488,
                          "mediaStart" : 33,
                          "mediaDuration" : 488,
                          "scalar" : 1,
                          "animationTracks" : {

                          }
                        },
                    "audio" : 
                        {
                          "id" : 52,
                          "_type" : "AMFile",
                          "src" : 13,
                          "trackNumber" : 2,
                          "attributes" : {
                            "ident" : "",
                            "sampleRate" : 44100,
                            "bitDepth" : 16,
                            "gain" : 1.0,
                            "mixToMono" : false
                          },
                            "channelNumber" : "0,1",
                          "effects" : [

                          ],
                          "start" : 7508,
                          "duration" : 488,
                          "mediaStart" : 33,
                          "mediaDuration" : 488,
                          "scalar" : 1,
                          "animationTracks" : {

                          }
                        }
,
                    "start" : 7508,
                    "duration" : 488,
                    "mediaStart" : 0,
                    "mediaDuration" : 673,
                    "scalar" : 1,
                    "metadata" : {
                      "AutoAppliedSmartFocus" : "False",
                      "WinSubProjectDisplayName" : "",
                      "clipSpeedAttribute" : false
                    }
                  },
                  {
                    "id" : 53,
                    "_type" : "UnifiedMedia",
                    "video" : 
                        {
                          "id" : 54,
                          "_type" : "ScreenVMFile",
                          "src" : 14,
                          "trackNumber" : 0,
                          "attributes" : {
                            "ident" : "Rec 12-07-16 4"
                          },
                          "parameters" : {
                            "scale0" : {
                              "type" : "double",
                              "defaultValue" : 0.364583333333333,
                              "interp" : "eioe"
                            },
                            "scale1" : {
                              "type" : "double",
                              "defaultValue" : 0.364583333333333,
                              "interp" : "eioe"
                            },
                            "sourceCrop0" : {
                              "type" : "double",
                              "defaultValue" : 0.0,
                              "interp" : "linr"
                            },
                            "sourceCrop1" : {
                              "type" : "double",
                              "defaultValue" : 0.0,
                              "interp" : "linr"
                            },
                            "sourceCrop2" : {
                              "type" : "double",
                              "defaultValue" : 0.0,
                              "interp" : "linr"
                            },
                            "sourceCrop3" : {
                              "type" : "double",
                              "defaultValue" : 0.0,
                              "interp" : "linr"
                            },
                            "geometryCrop0" : {
                              "type" : "double",
                              "defaultValue" : 0.0,
                              "interp" : "linr"
                            },
                            "geometryCrop1" : {
                              "type" : "double",
                              "defaultValue" : 0.0,
                              "interp" : "linr"
                            },
                            "geometryCrop2" : {
                              "type" : "double",
                              "defaultValue" : 0.0,
                              "interp" : "linr"
                            },
                            "geometryCrop3" : {
                              "type" : "double",
                              "defaultValue" : 0.0,
                              "interp" : "linr"
                            },
                            "opacity" : {
                              "type" : "double",
                              "defaultValue" : 1.0,
                              "interp" : "linr"
                            },
                            "cursorScale" : {
                              "type" : "double",
                              "defaultValue" : 1.0,
                              "interp" : "linr"
                            },
                            "cursorOpacity" : {
                              "type" : "double",
                              "defaultValue" : 1.0,
                              "interp" : "linr"
                            }
                          },
                          "effects" : [

                          ],
                          "start" : 7996,
                          "duration" : 1487,
                          "mediaStart" : 0,
                          "mediaDuration" : 1487,
                          "scalar" : 1,
                          "animationTracks" : {

                          }
                        },
                    "audio" : 
                        {
                          "id" : 55,
                          "_type" : "AMFile",
                          "src" : 14,
                          "trackNumber" : 2,
                          "attributes" : {
                            "ident" : "",
                            "sampleRate" : 44100,
                            "bitDepth" : 16,
                            "gain" : 1.0,
                            "mixToMono" : false
                          },
                            "channelNumber" : "0,1",
                          "effects" : [

                          ],
                          "start" : 7996,
                          "duration" : 1487,
                          "mediaStart" : 0,
                          "mediaDuration" : 1487,
                          "scalar" : 1,
                          "animationTracks" : {

                          }
                        }
,
                    "start" : 7996,
                    "duration" : 1487,
                    "mediaStart" : 0,
                    "mediaDuration" : 1752,
                    "scalar" : 1,
                    "metadata" : {
                      "AutoAppliedSmartFocus" : "False",
                      "WinSubProjectDisplayName" : "",
                      "clipSpeedAttribute" : false
                    }
                  },
                  {
                    "id" : 56,
                    "_type" : "UnifiedMedia",
                    "video" : 
                        {
                          "id" : 57,
                          "_type" : "ScreenVMFile",
                          "src" : 15,
                          "trackNumber" : 0,
                          "attributes" : {
                            "ident" : "Rec 12-07-16 5"
                          },
                          "parameters" : {
                            "scale0" : {
                              "type" : "double",
                              "defaultValue" : 0.364583333333333,
                              "interp" : "eioe"
                            },
                            "scale1" : {
                              "type" : "double",
                              "defaultValue" : 0.364583333333333,
                              "interp" : "eioe"
                            },
                            "sourceCrop0" : {
                              "type" : "double",
                              "defaultValue" : 0.0,
                              "interp" : "linr"
                            },
                            "sourceCrop1" : {
                              "type" : "double",
                              "defaultValue" : 0.0,
                              "interp" : "linr"
                            },
                            "sourceCrop2" : {
                              "type" : "double",
                              "defaultValue" : 0.0,
                              "interp" : "linr"
                            },
                            "sourceCrop3" : {
                              "type" : "double",
                              "defaultValue" : 0.0,
                              "interp" : "linr"
                            },
                            "geometryCrop0" : {
                              "type" : "double",
                              "defaultValue" : 0.0,
                              "interp" : "linr"
                            },
                            "geometryCrop1" : {
                              "type" : "double",
                              "defaultValue" : 0.0,
                              "interp" : "linr"
                            },
                            "geometryCrop2" : {
                              "type" : "double",
                              "defaultValue" : 0.0,
                              "interp" : "linr"
                            },
                            "geometryCrop3" : {
                              "type" : "double",
                              "defaultValue" : 0.0,
                              "interp" : "linr"
                            },
                            "opacity" : {
                              "type" : "double",
                              "defaultValue" : 1.0,
                              "interp" : "linr"
                            },
                            "cursorScale" : {
                              "type" : "double",
                              "defaultValue" : 1.0,
                              "interp" : "linr"
                            },
                            "cursorOpacity" : {
                              "type" : "double",
                              "defaultValue" : 1.0,
                              "interp" : "linr"
                            }
                          },
                          "effects" : [

                          ],
                          "start" : 9483,
                          "duration" : 3688,
                          "mediaStart" : 0,
                          "mediaDuration" : 3688,
                          "scalar" : 1,
                          "animationTracks" : {

                          }
                        },
                    "audio" : 
                        {
                          "id" : 58,
                          "_type" : "AMFile",
                          "src" : 15,
                          "trackNumber" : 2,
                          "attributes" : {
                            "ident" : "",
                            "sampleRate" : 44100,
                            "bitDepth" : 16,
                            "gain" : 1.0,
                            "mixToMono" : false
                          },
                            "channelNumber" : "0,1",
                          "effects" : [

                          ],
                          "start" : 9483,
                          "duration" : 3688,
                          "mediaStart" : 0,
                          "mediaDuration" : 3688,
                          "scalar" : 1,
                          "animationTracks" : {

                          }
                        }
,
                    "start" : 9483,
                    "duration" : 3688,
                    "mediaStart" : 0,
                    "mediaDuration" : 6930,
                    "scalar" : 1,
                    "metadata" : {
                      "AutoAppliedSmartFocus" : "False",
                      "WinSubProjectDisplayName" : "",
                      "clipSpeedAttribute" : false
                    }
                  },
                  {
                    "id" : 59,
                    "_type" : "UnifiedMedia",
                    "video" : 
                        {
                          "id" : 60,
                          "_type" : "ScreenVMFile",
                          "src" : 15,
                          "trackNumber" : 0,
                          "attributes" : {
                            "ident" : "Rec 12-07-16 5"
                          },
                          "parameters" : {
                            "scale0" : {
                              "type" : "double",
                              "defaultValue" : 0.364583333333333,
                              "interp" : "eioe"
                            },
                            "scale1" : {
                              "type" : "double",
                              "defaultValue" : 0.364583333333333,
                              "interp" : "eioe"
                            },
                            "sourceCrop0" : {
                              "type" : "double",
                              "defaultValue" : 0.0,
                              "interp" : "linr"
                            },
                            "sourceCrop1" : {
                              "type" : "double",
                              "defaultValue" : 0.0,
                              "interp" : "linr"
                            },
                            "sourceCrop2" : {
                              "type" : "double",
                              "defaultValue" : 0.0,
                              "interp" : "linr"
                            },
                            "sourceCrop3" : {
                              "type" : "double",
                              "defaultValue" : 0.0,
                              "interp" : "linr"
                            },
                            "geometryCrop0" : {
                              "type" : "double",
                              "defaultValue" : 0.0,
                              "interp" : "linr"
                            },
                            "geometryCrop1" : {
                              "type" : "double",
                              "defaultValue" : 0.0,
                              "interp" : "linr"
                            },
                            "geometryCrop2" : {
                              "type" : "double",
                              "defaultValue" : 0.0,
                              "interp" : "linr"
                            },
                            "geometryCrop3" : {
                              "type" : "double",
                              "defaultValue" : 0.0,
                              "interp" : "linr"
                            },
                            "opacity" : {
                              "type" : "double",
                              "defaultValue" : 1.0,
                              "interp" : "linr"
                            },
                            "cursorScale" : {
                              "type" : "double",
                              "defaultValue" : 1.0,
                              "interp" : "linr"
                            },
                            "cursorOpacity" : {
                              "type" : "double",
                              "defaultValue" : 1.0,
                              "interp" : "linr"
                            }
                          },
                          "effects" : [

                          ],
                          "start" : 13171,
                          "duration" : 2898,
                          "mediaStart" : 3892,
                          "mediaDuration" : 2898,
                          "scalar" : 1,
                          "animationTracks" : {

                          }
                        },
                    "audio" : 
                        {
                          "id" : 61,
                          "_type" : "AMFile",
                          "src" : 15,
                          "trackNumber" : 2,
                          "attributes" : {
                            "ident" : "",
                            "sampleRate" : 44100,
                            "bitDepth" : 16,
                            "gain" : 1.0,
                            "mixToMono" : false
                          },
                            "channelNumber" : "0,1",
                          "effects" : [

                          ],
                          "start" : 13171,
                          "duration" : 2898,
                          "mediaStart" : 3892,
                          "mediaDuration" : 2898,
                          "scalar" : 1,
                          "animationTracks" : {

                          }
                        }
,
                    "start" : 13171,
                    "duration" : 2898,
                    "mediaStart" : 0,
                    "mediaDuration" : 6930,
                    "scalar" : 1,
                    "metadata" : {
                      "AutoAppliedSmartFocus" : "False",
                      "WinSubProjectDisplayName" : "",
                      "clipSpeedAttribute" : false
                    }
                  }
                ]
              },
              {
                "trackIndex" : 1,
                "medias" : [
                  {
                    "id" : 62,
                    "_type" : "AMFile",
                    "src" : 4,
                    "trackNumber" : 0,
                    "attributes" : {
                      "ident" : "Narration_DMongoBr_CriandoComponentes 3",
                      "sampleRate" : 44100,
                      "bitDepth" : 16,
                      "gain" : 1.0,
                      "mixToMono" : false
                    },
                      "channelNumber" : "0,1",
                    "parameters" : {
                      "volume" : {
                        "type" : "double",
                        "interp" : "linr",
                        "keyframes" : [
                          {
                            "time" : 0,
                            "value" : 0.643356643356643,
                            "duration" : 0
                          }
                        ]
                      }
                    },
                    "effects" : [
                        {
                          "effectName" : "NoiseReduction",
                          "parameters" : {
                            "denoiserAmount" : {
                              "type" : "double",
                              "interp" : "linr",
                              "valueBounds" : {
                                "minValue" : 0.0,
                                "maxValue" : 48.0,
                                "defaultValue" : 20.0
                              },
                              "uiHints" : {
                                "userInterfaceType" : 0,
                                "unitType" : 0
                              },
                              "keyframes" : [
                                {
                                  "time" : 0,
                                  "value" : 20.0,
                                  "duration" : 0
                                }
                              ]
                            },
                            "denoiserThreshold" : {
                              "type" : "double",
                              "interp" : "linr",
                              "valueBounds" : {
                                "minValue" : -20.0,
                                "maxValue" : 20.0,
                                "defaultValue" : 0.0
                              },
                              "uiHints" : {
                                "userInterfaceType" : 0,
                                "unitType" : 0
                              },
                              "keyframes" : [
                                {
                                  "time" : 0,
                                  "value" : 0.0,
                                  "duration" : 0
                                }
                              ]
                            },
                            "noiseProfile" : "HGo7PzYtVj+h84s/WBzGPw4cukEoTGxA76GEQUyZHkJYuDdBSddxQrJlfEIFJABDEFqEQh2XDULO\r\nK0xCidmaQWNhoEFauitB5UuoQARBeD+2EABA2Lj/PyEMiEB61/I/S2y7QDrOc0DDEcE/iPJpP7AT\r\n6z9MEpI/1XVfP8YMv0Av9M5Av1u0QCkfU0AB3MhAHb84QAYZ1kAvHTtBgJW3Qa47C0HmCoVBehq1\r\nQfaSDEL4pgtCPrjhQTWsNUHdGcJAG49KQOfOHEF6H5FBYJsIQXBmykGtkV5BG5CSQcIVzUBsKxZB\r\nqMakQPhmRUCdjudAzA9GQXwSs0H135hBZjMVQXnFkkEhEkRB4BkaQHzlEUBoTNpAaE8+QWimlEFK\r\nh3BBMYK0QFNL6UCO3LRAjy7+QMjkBUANi1tAnakzQF4TAUHz5CFAfBFSQBLJ1T/ZupQ/VauUP56i\r\nPj/o/+I+ChxxPjNeMj7Cq989Ii0UPs5Ziz70hbY+kBw6Po/Zwz3+INM9u8A0PnIv9T0XsaY9NEEE\r\nPuBHoT6mF7o9VpSBPXZ4rj3LQSM97iMlPfwZxj3aRV092xqJPd5ZlT2sZqg96se3PStEiT0Te3Q9\r\nWbKFPXSFgz3FF5I9CZGhPTH0ND1yKt08DWUNPaOLBj2UDu48BsE6PaedmTwOMGY9yoUKPbhWFj2B\r\nf1c9e3TOPLUXkzx22dU8zmXWPGKqdjzLGqU80+UkPf5/UD3IHMc89vYzPWBCFz0ROfU8ZFj8PArp\r\nvTzg8gc9kH6TPUYHQD0XOOw8ArImPVTyiD04llo9KJ0OPmyVxz1QMdQ8nJw2PZpWJT1fDus8IHrf\r\nPDL0wDzp0Z48he/0PL+YyzxG0wM9Iz/ePHXGIz1ag108Pu67PAsk9zyRWMw8qhf2PAzWrTwUn5g8\r\nmY8RPX/oMj1VdIc9vuYuPRQVcj17SC89HMlFPfdMdj3ARb08xhYxPWlyfT1G8ik9nfypPFEHVj1V\r\nArw8rhwPPJVfgjxKIBQ9MSOrPDqkrTxPvl08phevPK0fQzyGrS084QtGPD5FKTz1lJQ8MgxWPCCa\r\nljy3Ipo8o152PK2kyzxDFTM8of8SPFDGyzzUwW88fR4nPG7kqjxQ9KM7B6AsPP/WBjz0N9M7cJ7l\r\nO9xgmzsGFFM7QMaoO9JS2Ts+eGY7FCfSOxt5kTtPRcw7MW2uO6i8XjtEcEE7avZSO6AxFzuxKFQ7\r\nciHoOrAfGTu35vs6+hgDO/VVCzuS3A87OnD2OvXIPztN/QQ7uYDsOja1GTsPPyg7AwQWO0XmCDvd\r\nayQ77goHO3j7GTsw0Q47Lz4KO70DCztJQQs7BVwMO7kwDDuptAE7+NoROw/aADtmDvw6bNEBO9Wo\r\n4zpMSPw6+bwVO6UoCDvqUOw6pbf7Om3BFDumv6w6ATMFO6zQ/jp+WQQ7rlarOqBnIzupW+c6jPHG\r\nOmVnvjp2oCA7Ba30Ohf8zDoVcaw6bFIaO0qjLzsk8js7wEQLO0BtqTolDwg7Zol9OozHEDtMNKU6\r\nwIihOtZJEzvglsM6skI5O9eb1zpMxuk6aUXWOnd44DoLRso6mjESO3Sq3zpBz946jvr0Ot6//zr7\r\nlhE7wh8vOyga9zr2jrA6kMHIOpgIGjvGhN46qaAVO0r0KDvYWtY64PHsOsW/CTtEzPA6VBkfO5HH\r\ndzrvIgU7OrjGOhu+qTrDcrs6ZcwbO4ClnDqnq6g6MwZ0OyCJpjpLEpI6tGIMOzZrlTqeV+k6TN+U\r\nOjwe4DqOPA87tyUSO/CDgDoB8Qs7t8lROhFcNzss0Pg6ed2rOvSxtjp9Gg07RgOaOsIeszqaEHQ6\r\nB1DoOlpFdTpsX7A6XpQ5O1JU8zrkpaQ6+RYdO25rvDpSKZw6AyyOOiQeazpQ+6M6sV2mOja5+DpQ\r\nWPw6Ba3dOqGWwTrn2rc6zk2cOvRTxzq2kBg7EX7HOomsgjq0Cko7aNuMOhhnsjpYerc61E6KOlbC\r\nUDo0Xmw69/GDOqMHDjqPeIc6r9dLOqwIhTr1v3U6l9VjOmpTGjpys2Y663QOOsgGaDoZnl46qdtz\r\nOvf5aDpv+I86vbFiOm1AWDoQxlM66yhtOjazETqqGIA6kgIsOh2aFTrW9Vs694rYOppNSzqt21Q6\r\nvhdOOvVOJTqH/VQ6DiZCOiHaRzq2NGA6sY+LOgRrZTqeCDo6smkWOiK2Ozq0Cbo6V5FqOgbOazoK\r\nny86XaQXOuTg+jlSJEw6A3luOsFUVzr6pks6AIUcOqtSUzrpvWU6QtxZOuzbsDrMM/851RaXOiLp\r\nCjrSBEc6d7sqOqrZXTqeKgs6ppFXOk7jUDqBOVw60uJfOoz1YTqK4nc65mc+OvgYDjpm45E65NZv\r\nOozggTrW41A6MvYpOnDImTrC/mo6ve/EOphbCj2W/c06TM9wOvQ+gzqytf85fMs/Oi5v6DngBhg6\r\nTjhDOvKO9TpezGk6nAzxOZzpETq8eZM6PGWrOrxM4Dltwjo6BVxEOvrp4zl+JBg6Sg4COgxuQzr2\r\nTS06OCYeOm4FGDqmMSM6iJUzOpqR7zkKaSs6xsUaOjsNBjoJBms68xMWOnJ2wTmAgv45XNJQOuYZ\r\nCjqq1eQ5whfwOdytNDr8lBw6rHIuOoWmezod4RQ6S92EOtPOPzqt5Qg69F17OiwhZjpY/vU5TOAh\r\nOoqqDjq5Xhc6IWWaOlYw9jletLc5bhtqOnExDzpXwk464FEuOg1jBzoSkd05s2ACOpriWTrQSzg6\r\nvQc1OprzBjqmmyE6CGdoOnKDWDrbXVo6chk0OvrQcDoNL046uOtMOuS5LDoBT+056cxjOh4VKTrF\r\nCjs6gNEmOvaP8TlbWyg6QYT2Ocsodzq6MGA6jnx9OuxgZzoTow46KPwcOnw3WTpcnnQ6diomOvNC\r\nGDqqrxo6cluxOkg+Jzoyx585/i6ZOrh4ADqRrwE6PgYpOmIdHTreTys6Rt7sOfAoxTll7wQ6jtPI\r\nOWcqHzrnq0Y6YssiOqK9xDkhVfg5HdSpOb5+QzogTNM5tOQOOs0QCzoKbOo5hu0fOjZtVTrYRbo5\r\nnm8NOn4j8Tnfzrc5bV3iORan1TmmVdo5RikLOggryzkAYP05eNmnOX44BDrUe7c5P0ZKOurAMzp6\r\nZSs6NmXSOepckDrqGMc5XxyYOd247Tmflvo5ItY0Ovtyvjl9DCs6wi5dOgstxjluwtc5OreiOSw3\r\n4TnznvQ5XGvAOfpa4zlaG6Q5Lm6dOTjHiTlmprI5FSewOUCl5zlue9I5FlIXOuELtDm+cqs5OlEH\r\nOqNbuTl5EMU5wbjOOT0HNTraC405YmsAOtRoPjmUHbE51omAOQ5AmDlLoMM5dy/rOYd32Tmy+Q06\r\nng28OZyzpjn1XKE5DgCeOZw9vDnFc7Y5fWWTOeKdBTqwa805pH63OaPfsDnklOM5cLbqOS/k0znQ\r\nKd854PTiOXZN6Dk82Ls5KKT4ObXL0TmereE5Ah3COaqTeDn6LME5uBqiOUIOiDlqVHE55BeXOVjC\r\n2jkEV6I5Lsi0OUWGuTnSyto5Avz5OUEVrDnZa585TPShOQkHmjlkcno5gDTtOQGSXznxwv05lALb\r\nOVrN1jnln5g5SG7eOWl41TkGDc05JqW1ObybiTmK28E5HX3JOXZN2znbsac5pcSuOX+wgDkzEKk5\r\n0vPnOaDw4zk8rOs5IX+tOTrfYzlGqao54emwOcxatTlQULs5b694OdrmwTncDqE5dTmmOVoByDl7\r\nZqQ5fHGQOUTlfzlj5r45iFebOQ0xtTneM6U5NO6uOQ3qtjnWA7Q5rZuxOUrWsDnwWLU5lG+6OVN6\r\nrTmNW7A5gca1OfFQsDnDv6o5sGeuOeRirzksQLA52QWqOeq2szlnDrI5UgOmOdBVpjkIpqg56W2h\r\nOT9CsDm2aa05la2uOTzEqDmYO6w5G/OnOcmMnznG1qg5DqelOdTCqjmYtKk5YsSqOcvznjkCsaY5\r\nF2akOcttoznVpKI5Jt6iOdURoDlss6Y5cCmfOX2VpTmxH5o5xrmkOW78qDnglaA5PxCkOUI2ojlq\r\n76Y56kSkORiAojlCfaM5IPukORkdoTkoCKI5YsSlOapTozmnIKc5nOWWOT5fpDnOGps5K6+aOYeF\r\nnjnBSp85stahOSLcpDl7WZ856y+ZOUpWmjm1zJ85CKOYOW8YnjkVcZY5ZPaYOXQJmTkHyJ45Knmg\r\nOYQSnDmyZKU5bueOOZg2nzlGW6M5zK2dOdzMnzl1xJ85ogOdOe6pozl6wpc5+lycOa9GmDlCgZs5\r\ne/iYOQ3GnTk69545NvacOeqTnzkiqZo5UqGXORdGlzlroJo5OcKYOSVcmTmxY5M5JGWYOe73mzmi\r\n45w56DuTOXq8kznKfZs5pQmXOeycoTnYn5Q5CsWROQxVmTmQoZw5EvOQOSMaljkxzZo5IeuaOaik\r\nlDm7p5M5EAGXOdDGizmEyJo5UoabOU5MjjkrMJk5bo+dOTN5mzkHKJE5fpmMOcQnlDnCoJY5yXGS\r\nOe5GizlXh5A5xx6ROe5oljkeq5g5cc+MOelYjjllUYs54kqROSJbkjmky4o5Q6CSOa3UjTknbJY5\r\nuGOROUiQmDn08pE5zb2NOaBEkDlhKZI5tD6QOWZxkjk6B4s5jmCPOVWJjzkbypE5B62QOVIsjTlw\r\nWJU5Z9ecObsCjTnY7o05RjuNOSZ4jTmxI5Y5re6IOZuDizkO6Y85u1yOOfJjizlbQI85CBKKOfrG\r\nlzmYwok5+k6POQO/kjmbuJI57D+KORa5lDkKJo05lyqKOQOmkzmj5485kZaQOavSkjn1SX06dlFx\r\nOsRgjTmu1os5HHiROTIxlTmZQIc5c2OTOYYFkjmUAYs55NCKOaShizmkDI05+yaROfRBjzljMo85\r\ny62KOWbskTkUiIg5pjiPOYs6hznAuow5pF+OORp1jDlrvI45OmGFOc8pjTmEU5E5OjqGOQAfiTnh\r\nTI05HT2DObelkTnzoIk5br2HOfNMjznNt4s5UHGUOU5Nhzkyc4c5bnCKOSrYgzn51Yw5uKmJOYHP\r\niTlxooo5ITeQOUDbjTn9Z4U565aOOaAdhznOyow5cKyPOWNgijmrQJA5csaMOa1lizm40Iw5//uB\r\nOWxXijk3OI05ODWEOQLSiDkwvHo5Cl+EOaM6jTnyw5E52OqPOdUajTmnpIw5xsmKObBYgjmCqII5\r\nfrKMOT2GhTkQWYU5zeKDOQfJiznTzYk5uV2HOTlygjkFQoQ5YLeAOTsmjjm/P485lPaMORDviDlV\r\n4Y45a+WEOQOqjDnO5oc5vBZ9OVA4hDl/YY05m0mOOcKFizlAEY05PZODOfNmgjlm0YY5Yp6OOf1j\r\ngDlby4M5YGGCOQVPiTnjJIc5trCTOSKEiDmiEII5rk2DOXjhjDn35Ig5RJqLOUjxjzmJsIc5yx+K\r\nOYjrhTkbdos5ytaEOQ58gTnjUoI59d2DOWltkDneEYc52/uQOYnkhznHpIw5qgd7OYBwjzkcajs/\r\nnSRWP87tiz86GcY/3Cu6QfJHbEDvoYRBH50eQmm7N0FWz3FCQWV8QgIiAEMQWoRCvpoNQgItTEKx\r\n1ZpBNmqgQZbFK0HAT6hABEF4P0gMAEB2nP8/bAiIQOLB8j96artAutpzQEQKwT+I8mk/gtHqP0wS\r\nkj+WMF8/xgy/QDjuzkBHUrRAdDxTQN7wyEBBwjhAnBvWQC8dO0HekrdB7kQLQWgMhUF8D7VBr5cM\r\nQgeqC0IOt+FBQKc1QSwtwkCojEpAaMwcQeQYkUFikAhBxWDKQa+YXkFukJJBphDNQLQpFkHG3aRA\r\nNG5FQD+T50A4FkZBdhGzQfvemEEYLRVBzb2SQbMUREFoFRpAYuMRQJFJ2kDUSz5BsqOUQdaPcEEH\r\ne7RAZ1DpQLDFtEAZJv5Ar9oFQNyBW0ANqTNAaAMBQfPkIUBxGVJAt77VP/7FlD92rJQ/c7Y+P9IJ\r\n4z73w3A+FXkyPjMF4D0sWxQ+55OLPsiBtj5KgDo+egPEPeaJ0z1yyTQ+q870PX2Zpj2M9AM+DZqh\r\nPs0Vuj2z0IE91ACvPUcqIz1q7yQ9gFTGPUCUXT3bGok9RJeVPZh/qD2ju7c9s9GIPWOwdD09wIU9\r\n7ASEPaUrkj217KE92780PWBR3DxkMQ09o4sGPSSC7jyvwzo9QSeZPELtZT04ywo93I0WPRaFVz1K\r\nhs48JX2SPCRo1jztJdY80cl1PF+xpDzosCU9f5ZQPa50xjyOZDM9YEIXPXes9TyQFf087gK+PL8U\r\nCD11j5M9mVdAPRc47DwCsiY9hM6IPXA+Wj0kpA4+HInHPZd30zz3IzY97LglPcC36zxXHt883ELB\r\nPFKxnzwIZfU8G1LMPG7ZAz0Dx948dcYjPYHoXDyhGrw8ynD2PI/myzyJF/Y8VoqtPNh+mTzXhxE9\r\n3gszPWWehz3e1C49qB5yPXtILz0sjEU9+uR2PepPvjxKDzE9CrZ8PcxcKT0sLKk80klWPY8/vDyQ\r\nnhA8tP+BPM6xFD2yXKs8TaquPOYoXjzjPK88YOBCPCZALjwtdkU8+mcpPIMelTyKzFY8ra6WPEdy\r\nmTxmbHU8AzvLPEMVMzySvxI8kA3MPM4Abzz8MCc8eyyrPM1hpTu+OSw8DtsEPPQ30zvnw+M7OQ6b\r\nOwYUUzuVKak70lLZO5tiZzsqks87LpmSOz7QyzvoBKw7qLxeO3xtQztq9lI7FPMWOy/ZUzt1qOY6\r\njXkZO2A//Do/bwM7s2YMO0MLDzv0s/U6r2k+OweIBzt9Nug6fVsYOwNsKTvxnxY7QGwIO2cBJjtD\r\nVg479NcXO88RBjswEQ87clAHO0kQDjvGlAk7yVERO4C2BTt0BQo7mboAO9lh/jpWIP86cArsOueb\r\n/To5qBM7/RMDO+iH9TpYIQI7j6ITO3PprzoKkwg7K4gBO/8YAjuuVqs6oGcjO6lC4TqM8cY6IP67\r\nOtjAHzsFrfQ600fJOsU4rTpsUho7SqMvOyTyOzvzYQ476bauOupJCjtSfoE6Jv8JO+wlozrAiKE6\r\njQsZO1p2xjrCrDk7S5PbOpDw5zoUstM6mzTgOgtGyjqNvRI7dKrfOonB3zqmKPQ6nQcBOyxXEDvC\r\nHy87XyD5OrOCsTrtxsg6YjQZO78h3zog+BQ7SvQoO10D1TpL0uo6puMJO9pr7zpUGR87ryF3Ou8i\r\nBTs6uMY6wqKqOqMIvDpcjho7+l6UOlwOqDpqcnQ7JOmjOksSkjrymgk7UOCROhX44zpM35Q6Yxfc\r\nOv3jDjt/oRA7yA+AOoVqDTujqlc6ZPM1O4rG+Dp0z6k6oVq2OjqoDDviRpk6nfq0OljSgTrBIvE6\r\nDA12OmxfsDrUHDk7UlTzOqAeqDr4uRo7Rz2/OsA3nDrgwo86autdOnjcojrdC6c6eRj3OtYJ+joF\r\nrd06e7HAOmqEtDqtVZ06dKfIOlgyGjsgWcc6iayCOkRATDto24w6VH61OgdYuDqkvYk6PfVOOvNJ\r\nbTrJu4A6+8QLOqqzizqv10s6rAiFOvDTdjpCKGU6rkkdOnKzZjpwkw06untqOnstZTpg73E6gIps\r\nOnpqkDqYj2E6KhFeOt1qVzrMxmg6A6gVOqoYgDqSYTM6lcwYOtb1WzockNg60/xROuysWDq+F046\r\nHQ0qOv1JTzoOJkI6LvtFOuSRXDrgNow6so1nOkJKOzrjXxg6QAA3OkCftjpRb2o6sbppOnqrMDr4\r\nnxM6pOD+OVIkTDo6w206xmtZOmRFTjq/dR46+LFOOiQHaDp4HVk6S064OkZz+Dma65Q6CuALOvrd\r\nRjpF4is6oY1ZOnx3Bzo0gVY62n1OOg0mXzrzSl06Fs1iOmI5dTobzz86BHgOOmbjkTqhSWw6jLJ+\r\nOjxmUTo/7Sc6FKaZOkvgZDq7vsc6F7sKPRaW0jqfpXM68NKCOiXSAzqrHkA67tXhOcSeETqs2kU6\r\n8o71OuvraDqrGvA5PngSOjgHkzq72ac6B1jeOQarPToFXEQ6BF/lOZq2GDocGAk61V4+OkomKDpC\r\nGiA6SU8cOoF/JjpHezE6QATsOWHyKToLuhs6picBOicfbDrRcRQ6pm3AOTG79zngtUs6becDOsAw\r\n6DnZ+fI5ooI2OqCRGzpnLC46WBB6Oh3hFDp8SoU6Ec9AOjYlBDqfkHk6sIdkOux69jlVPSE60woS\r\nOrleFzp4o5Y6WS/3OfK8vTkZl2I6NSoSOqI4SjpwcC86dpkGOktD3TlVfwI6VJlUOhAZODqbRz06\r\nTZ0FOnXYJDpkQWY6WzFWOmr3WjpyGTQ6SlVvOpxoTzq460w6hDUwOjcY6znFCGM6F+IoOhA7OTpu\r\nvCc61OjxObtmJTq0iAA6yyh3OgxRYzq9cYE6lIhmOm6uDTpfyBs6ww9ZOtwsfzonRy86xEYcOlnJ\r\nGjpjpK46+oQjOhkQoDnW/pk6uHgAOhp88jk+Bik6lmMeOq9iKTpG3uw5SdzDOXoDBjqO08g5FDEi\r\nOupjRDpnSSU6+6/AOavg9TkBsak5unpEOnXE1jnieg06ip4JOkhr8TkLzB06fndYOgbouzkdtgg6\r\n4zj0OePIvjkKEuM5KN7WOV5c2zkyJwg6FjLJOb9pATow66c50MMGOtR7tznzZU46k0c0OlnKLjpi\r\nANM5pLWSOmkmwjlm9Js50p3lOTw3/jk4EzM6FJy7OX0MKzp+/Fw6kpLBOS4/zTnRO6Y52cXlOZY2\r\n8jlca8A5EFXcOUBhmjn8DKA5iUuHOWamsjk02685G57XOQSp1jmMeRY6Oia0OfHJqznDMQM6JmG7\r\nOVoEwDnBuM45ikI3OkKsiTmQbP45GAE7OerItzklCYI5lDuWOfQIyDkjFO855HnaOa1CDToi28E5\r\nG/ilOVNqpzkqzp45JaS9Of/4qzmv4ok5f10FOiGdzDkweLw5U7+wOZpG5jnFsOQ5ZPPZORQ44zmU\r\n7Os5nsXlOVxJsjlQ5/U52F/NOWf34jnOCbw5jKJsOSf2vjkkXaI5En+DOTmhcTl3AJw5jpPaOVUr\r\npzljKrQ5Lu27OWBU3Tmid/Q5LoOsOcLMpTnei6s58neWOZMvejnwRe85l+xhOUg3+znsct45Kh/T\r\nOUZpoTnTw905HXrROTJWxzl897M5S8KGOePmvTme9sU5jhvbOfSJqzkCo6o5ykOGOZ7rqjnUPeg5\r\n6fLmOaBu6zlVda45j6NgOcZ0qzmITK859fKzOUa/uTnWBHU52AbDORtVnTmd8aM5FpXHOYBsqDmX\r\nbJo5WgdzOcbMvznKq585i6WzOYHmoTllqq05vZS3OXjcsTl5rao5Abm4OR21sznesrU5cMyzOUCW\r\ntDkzea45T/euOciirDkunLI5FE6uOa3rsjn8WrM5EGSpOQf1sDnO5qo51aClOUeJpDnCx6E5smSu\r\nOXG/qjlAoas55vuoORavqjmwiqU5sauiOZv1qDkD36c5NiylOc6mpDkOca45SAyjOVLlpzmaI6A5\r\nD32nOQ7Cozk00p05AVWhOUhaqjno1qQ5Z8GiOQdFnTnxs6U5aXmpOf4hpzmHzKU5lHGhOTj+qDmX\r\nzqY55J2jORIkoTn1Tak5himiORK7nDlTSqY5VyqiOUiBoznwyJo5Q6SgOaDilzm8H6A5syiiOcGn\r\nnDlOPKU5scWaOV9dojn7Rpk5Rt2XOft1qjn64Jk55MCcOelBmDnTU5o5iRGcOWJSoDlTEp85z8Wd\r\nOZvfpDn4V5I5akqdOd7Rpjm84aA5RMCYOaJJojkVRZ45WTafOdSZlDkOJ6I5vt+VOa5blzk9EZE5\r\nJW2bOQTxoDl355o5aWGZOQTjnTlbCpc5qWeTOQZTmzn5V5A5DjeVOTFiljnk45c5KZ+aOWYpojnE\r\nf5g5u56WOeKVmDmQuZg5IDScOW70kjn7a5I5RrqTOcfgmzlyipM5EiuUOelPmzm/y5Y53fmYOXVX\r\nlDm5jIs5FQONOaMznDmRb5Y5+leNOep/mTmQzJI5RuCZOel8jjlWaZg5IKKKOaL3mTkorZA5hFWP\r\nOaGrizlFtpQ5Og2ZORWrlDkaIpg5OrOIOc29iznNg5c5eOGYOenckjluW4s5liGTOSs1ljnUc405\r\nYqWNOdeClTlukow5ckmTOZpnkjnAIJI57teOOaWcjTlaKow51pCNOVtrjjleDZI563KOOQRdizl1\r\n3J85VASTOfL+iTmFZ5M5YM+MOdYwkjlot4k5pRSPOUgwkzkQR5A5SRqJOaDtjzki4Is5ZzOROW+t\r\niznOBI455O+VOfDFkjnViJA57m2VObR4jDnQToo5qD+OOUDekzkCxIw5yKSQOeDedzqaUGo6aD+M\r\nOX/3izmpQo85V3GMOWxthjkIdJA5pXWPOZoVhzkfHo45VRaOOcuRhjkwf405sBaSOf3wizm4mZA5\r\n8IKNOelVkTk2XYw5kQyROT6xjDlsuIk5gt+MOaNYiTk+DIo56I+HOVoQlTk5/oc5FuGJOWZqjTkC\r\nC4Q5EtKOOTzfjzlo7oI5MkOROY+ajDnxJo85/iGKOesWjTkw+Is5Wd2IOVPnhzmeyI05YS2JOeyP\r\nhzloS4o59+KOOV/dgjlyLpA5jyKMOczHhDkH+ZM5nsyLORPUjTnBy5A5mUSJOdH6hjkHTos5z96N\r\nOV5ZizlqgIc5mkSKOeXBgzkVQ4A5jBWLOZQ1kDmluJA5V/GOOU22jDlha5I5uBOHOeLAijk85Yk5\r\n2CZ+OfyJhDkGKoI5kBeEOVlnhjnYv4U50OmIOS3ygTmSeIU5MSOKOYpjkTlvZog5BP2GOcOeiznj\r\nfog5ms6LOakZhzmqI4I5XVCCOawJjjmrxJA5zUiNOVvyhDl7zYE5dpJ9OQCrgDkF+JY5WbWIOeY1\r\nijmEFHw5BKiLOcPKjDlqP5A5bRODOXQjizm0T4Q5EOCMOYBRjTmcuYU58aeOOTSmgDlRPow5mq+H\r\nOb75jTnuaI45lXGAOaHNgzns0og5VzSOOaw7hjk2AY85g1OPOYCAhTlXeoU5ADKKOQ==",
                            "noiseTrainingType" : "default"
                          }
                        }
                    ],
                    "start" : 18,
                    "duration" : 272,
                    "mediaStart" : 0,
                    "mediaDuration" : 272,
                    "scalar" : 1,
                    "metadata" : {
                      "WinSubProjectDisplayName" : "",
                      "clipSpeedAttribute" : false
                    },
                    "animationTracks" : {

                    }
                  },
                  {
                    "id" : 63,
                    "_type" : "AMFile",
                    "src" : 6,
                    "trackNumber" : 0,
                    "attributes" : {
                      "ident" : "Narration_DMongoBr_CriandoComponentes 5",
                      "sampleRate" : 44100,
                      "bitDepth" : 16,
                      "gain" : 1.0,
                      "mixToMono" : false
                    },
                      "channelNumber" : "0,1",
                    "parameters" : {
                      "volume" : {
                        "type" : "double",
                        "interp" : "linr",
                        "keyframes" : [
                          {
                            "time" : 0,
                            "value" : 0.727272727272726,
                            "duration" : 0
                          }
                        ]
                      }
                    },
                    "effects" : [
                        {
                          "effectName" : "NoiseReduction",
                          "parameters" : {
                            "denoiserAmount" : {
                              "type" : "double",
                              "interp" : "linr",
                              "valueBounds" : {
                                "minValue" : 0.0,
                                "maxValue" : 48.0,
                                "defaultValue" : 20.0
                              },
                              "uiHints" : {
                                "userInterfaceType" : 0,
                                "unitType" : 0
                              },
                              "keyframes" : [
                                {
                                  "time" : 0,
                                  "value" : 20.0,
                                  "duration" : 0
                                }
                              ]
                            },
                            "denoiserThreshold" : {
                              "type" : "double",
                              "interp" : "linr",
                              "valueBounds" : {
                                "minValue" : -20.0,
                                "maxValue" : 20.0,
                                "defaultValue" : 0.0
                              },
                              "uiHints" : {
                                "userInterfaceType" : 0,
                                "unitType" : 0
                              },
                              "keyframes" : [
                                {
                                  "time" : 0,
                                  "value" : 0.0,
                                  "duration" : 0
                                }
                              ]
                            },
                            "noiseProfile" : "HSI6P9/hYz+ccI4/h+XgP8j48UFsKpZAJyDkQd3q/EElkwNBWbuLQu7OlkKLLbhCVpz7QU7PY0IG\r\nmapB1Yi3QWW190FCnTRCMA9uQrtbRUB3ikdAm4wFQGg2ckDDtpZA46zXQCVOvkASbYU/ZFfXQIuO\r\noD8s9qE/mfKJPjYbgz/J1T9AC9atP1wljj9oZNw/+yUCQcDFiECBV2pAauUEQOQnyz/7QgBAonhT\r\nQPVi8j/oowxAKKkFQDy0UEC678c/CUmUP9LwPj8w6sg/3RR1P87twT+MVPM/0UBoPzRf9D+PFn0/\r\nQfVmP+nRvj57pMk+dSQRP9qskD/zVpI/gtwQP/NcLz/YkRZAawc2P5UhCz/IWP4+InyGPlPToj74\r\n/iQ/HInzPvwXjD8SDrE+bMytP6Adoz/R08w/8F1uP3Bt3T4vr+Q/g/xIP6w6Fz9z+BM/DxQzP4ai\r\n4T4yA24+5YVyPm1t1z7Wpso+mPhiPpNJUj5qA0c+WmF3PpCxRD6yO64+aJMePmHLOT4VB+Y+yBJu\r\nPzMfpT4IYzQ+WuijPunnVj9US2M/oQkPPs7LGz66gyA/IqYvP3Bu5D7/M4Y+z0TLPhUZiz4TcxA+\r\ne56LPTbXsD73mpg/fZXWPR7cgT4KtK498p7TPZbpJz7CuZc+3b3VPne0xT4834Y+sHuwPSrgET61\r\nK50+5Mn/PkZy3T3W3M09zj9hPoRaYz4tsec9MKyXPqppjz3GQDQ+IP7VPeDKqD39ThQ9vrBsPXKx\r\njz1VfQE+jdduPRsz3j1ZcCc+PJuRPlXGAz7Slr0+kgxLP0HUDD/ORHo+hqNJPqfEyj4S2Hw+gyd6\r\nPf1MJD7o2rE+VmUDPlmTgT3LYhM+a7r0PWBxxzzaIK88/ndmPNitWj2dBlU96VC9PFRiXT145js9\r\nZ2huPMdvKz3p19c8LsuFPd6Qojy2Rrk9RHM5Pa7L1z3ukBg9JMVcPRodqz3zf9k81vhzPDhsaD34\r\nabg8ohfpPPR/Zj1Ntwo96odBPByVwzzcDo08NwN4PDCngzw0qtA8ThalPIC/oD2mc8o8Wv5VPcx7\r\n0zzRiAk9rRFhPMRWJD2wo8Q8Tx+SPEDtujz/2po8vrMNPDqbxjxUSK07gLSyO7EfhTuoCCo8Yo6y\r\nO6SOJTzT6K47cEVcO29sSzvzCCs7q8qbO0WyrzvT6I47p0FrO83k1ztuv1M7we/NOsqepDpcHao6\r\nFFfbOqxNijosNZ46Q2eBOs5kADqJjJU6vvMEOg3E4zkydQ86gqcnOl4GcDkSJbQ5HnOrOahBljnr\r\nogc5bd5QOfnKTTnPK105gj9fOQ4SPDkocP84xjM3OQYDSDmbnCM50OggOXxwMTl4xWc5W4xGOQQ5\r\nXjmsk2I5Ti1vOZX/xDlIPp45ByluOSv5JTnU+/w5uKo1Oh97yDloBZ45vxkuOp/x7DlpIIs5M3LW\r\nORhb4zkwai06nmvTOoi4hzl5Ng4680LqOakt0jn4gWQ6upzbOQhfEjrQukw6GaCSOhJ5jTokHIw6\r\nQjo9Ohu4aTqr20M6/aYNOhhJgTqvCQY68hZNOk4LkTpkaD46erMDOqAYeDrfG0w6KXlZOs65gTpa\r\nAZ86dNdSOpeLgjrM1Yw6MC7OOp22IDug5XA6PfA9OmoAUTpxOmU6E+FJOuJAzjpnwx46Wt9XOiVA\r\nnjpGeK86Q6NQOuOuMjoM2V86QN7vOrE+Tjo8BL06vEGMOri/FDoEkDs67jGWOmRlszrxbYw6YNj+\r\nOQKEgzp/bnc6JFWYOtZUhjr8Qp86sXxzOqWQmTpikPM5oURfOhKdNjrSzRY6NsiPOdcrDTqUfzA6\r\nxrNTOsHZVDqmO/w5WEwuOkd3dzohQCM6TquzOlRV1joBJJI6AIooOn93lTrq/lw6yZGJOobbFTqC\r\n7jY6um/lOvo5JDqRpZA6ogMmOoyKdzqEM8s6TBqHOvkBODqylLs6jsrxOUnbOTrrvgA6zFAPOk14\r\nEjo/aHw6bTmvOplcpTmPTiA6Lx3aOd7kUjqrATQ6kloDOvmMPTqJthY6cOvuOaymtznKpxk6osu0\r\nOVcHpTl0k4g6iJGyOvv7TTlZw1U5WxHrOQ5uCjpFWMQ5LslCOgrlsDmhjJU54seaOdROXjn3yz45\r\npSbTOYHKVjl8pO85Mv+9OeVmRjls5LY5vCRVOvIA2TkQg0A5wSoCOsjkCjoa9Is5zG/QOaKuNjqI\r\nvOI5A430OE2t9jkQ73k5cHj8Odbt6jlnLaQ5me/nOTh8gzlsOuw5cYEXOiXJAzr+S9Y5ouB1OfcZ\r\n5Tlk4Jg51nE9OcO+0Tm2jXQ6p82COgehWDlKHjA6IL5rOupq+jmys+k5WpJWOU5XZjk2cxg6x+dh\r\nOWfAYDnvRRI6nZY6OhfAaDmkWM4547NROtgQIT2QXGg6kVMHOjXkGzr+Lq05EzqyOftAhDnRsyg6\r\nsHKqOWKN2jnLVA469ZV4OnsCzjmSDo45uY1nOQdXSDoaIHc5k6aPObJ+fzl2/2c5y0BAOaSovTnc\r\nuGc5cXGFOSG/xTkAPmU5VqSvOQDoCznjoUU5FuE2ORT5VzlE2Dk5VaUqOXj+TTm/kKk57B5EOcWN\r\nmjmlzZw5QDkLOop5PjnDPKk5rgVdOUnrYDnOxoY5ovosOTbMFjpIHBk6VM+tOQNa4TkjiRg6towO\r\nOkTNBzpQi7E5W/YJOkZu/TlyUt05aSqGOSRzFTp/YAU6QeWjOYfbGDoRBN45biVBOp6u/DmQNB86\r\nPQCkOW41hzm9PyY6ijY6OdLmAzqFeNM5M7tAOY1G4Tn9L7A5u0EBOvIN/TlKF6k5h6WVOYO/gTkr\r\nrs85EtQROu1vvjlkScU5leAdOq4UoDpX0pE5JpXtOQ3RszmuiVA6sJcPOgUeNDr528E5EjJqOQd3\r\nmjlrhd85v9AaOpNkTzrm78Y5CCc1OhefUzkN2+45cbUmOquicDklMIQ5aICsOU5vDjnro2E5J/BZ\r\nObz7gzlMJH05qjs8ObZWHzlTmT05iiRWOf0YbzlK8uA5h0S7OSQc/zhYlT85aaKPOWgavzhQZ445\r\ncICEOezDLzkuKw05+j8LOVWDzTnna/45DSlDOTX9jDlTh8k5CwQUOgqqAzoQwbY50s/HOQWaojme\r\nCgo5S7jpOJZkKjlKcT45tCSEOXoj4jhIZmo5VZPNOU+VyDj0Qxw5mzhxOQTmnDgocQ85f12HOMZl\r\n9zjzg3c4R7LMOKp6rDisMbo4/irgOET8DzkOf9M4USAPORosAjmUNDM5Evo9Obqv1TgC0QE5HcwU\r\nOLaLizgBGCo4IqCnOLz/0Tg4yoU4jySOOIA2mjg7/Yk477d0OLn9mjiKtHM4DCicOI6PqjjoWcg4\r\nuiOJOB6H0DitheQ4hs88OdUKkTiAWU05v8azOLSEhjjrl5U4TQu8OFlXPjgNFwQ5xD6fOPhF8Tgb\r\n9ts445aPOCzNVjiOCQg4Uba5OCYIDziHp1s49tIyOMVNIjgEcIU4lZ1BOCD/GTiCBP03EMb8N77s\r\nNjhWgjQ5uNEjOJdb4zdi27U4Jtd8OKMeYziuVpM4k6AJOcL8TjimYII4ToXLOERmQTjY0mo4eqJZ\r\nOBC/DziHiOU4UAlKOFrm7zgtm5U4cUV7OP0DvTjZWYs4e6GEODQXJTicgt04LqY4OUBLyzhwAQk5\r\n05k8ORTuCzm08wE5zdZBOAK4izjT2LQ4R5yGODxQVDjdVT44RQ6DOP1HBThgNh049iF6OOjdiDhA\r\nRzs4RcoCOIAmojgiMYo43tLoOEqVjDgT4xM4vHUKOBS5DzhSLBQ4q5kAOB7E0ze5khQ43mPqN4wq\r\nBDjC1P43isvSN+4WCjhdb9w3OB0lOGQz9zeoV9o3Wz3oN3dd+zeedvs3p/gLOI05zTcIJfk3SPoE\r\nOGEZ3TcvO9o36C35NwtC1zdZzgQ4bznxNxpK3jd+HPU3KRXRN+/Yvze3hco3H2LpN1jSAzgifMo3\r\n/gX5N+qeAjhRnuk3ynfbN9Br2jdZnOM3RwbeN+cNDTifRPI3E171N6QxCzgx4+03o2XSN7K46Tds\r\nifg38LDbN+9T9jcz9uQ3rljTN2847jeQpAE4t0PXN93++zdRQ/M3IEjZNybZ2TdgHec3g534N7FS\r\n5zejf+03OHDUN3S26jfI08g3N3HdNw0X1DdUxM03wNvjN9/Z+zdX9M43CILtN0349jfpTNg31X7O\r\nN4gxwTe0Hwc4tOy9N6CE0Df2BfM3DAv7N7CS0jfEUuI3dWT5N7+3zDf2vdI3cTr6N8nUyjcBkNw3\r\nPnXXN0TwBzhGHd43unPSN3LH0jcw/dw3Mi/wN/wE6jfEet03rsvnN5K82jfGmPU3s6ThN+zQ/Td1\r\nCtA3xBvEN3Jl1jcMG/M3M6bWN6k17TftL783MJz2Nw3l+jdJywQ4KMv1Nz7t5DfyOss3WRHAN1ah\r\nATg/DAg41KoIOEi4wzefpNY3hiHMN4j07zcodto34hXEN/6gADh0Vbk3S1bLN+4dwjcGVtA3Jxrk\r\nN1y66zfywvQ3VeWwN+iq3DdUGvE3sf+4N3Ji4DcyF7k3n1jmN+qKwTd+Z/U33IfIN5BC0jfWFME3\r\n7r3iN4j65jclr+Y3OIDJN7LT8DfZTNo3ARjeN/BizTcY9/A3vf/TN4GSFji4Kh44zoBPOItY9ze+\r\n7UQ4M2STN4/78DfNX9E4UJrrOBI/sTjysgA4K2GPODJo8TeFJ+c3bsIQOBAfADhSoRE5EJ8JOAaY\r\nDDgRSPg3eZAkOHb9wzj2nAk4Jm2BOP3TTTgNRR44dWWbOPVCGDk8qow4D1QqOW//pzliwR07sZ3/\r\nObyuSDlACzQ4VtfgOAxVETi1fxg59LGTOVJrlTjAYOQ3q+DlOF3q2ThL2zU5EsUDOtfZlzhEoZ84\r\nctd8OF/4oziHCXU5sAJdObsNaDllAmw5lLhoOTYMFDnuP8k4XOq3OPGI0jmYfLY5bMbSOMfdVjmi\r\nhKI5F13uOHreGDj27uI39yzVN84qxzeVCc837gXGN8/5vjcJ39g3YfrENwCslDcEvK03PGq3N3Yy\r\nyzc9adM3MPm+N/9gvzej0qw3FFnGN6YnsTetTrw392PMN2LzwzdqrLs3W3fmN3IbszdoUrY3GIPC\r\nNynBxTcI/5g30hStN1c9vTdo18k3v33FN4e+yzfI0LM3RaXLN2CPvzdEOqk3Nfm5NyhCvzdXFL43\r\nUl6hN3MFtzf+ubI3YKSsNwMjqzeAJbk3JwDLN4ogtje6mb43+zmnN9+MxjfW6bE3z2OvN2CJojdf\r\n/bg3kmu+N6dpyjeiJcc34K3JN/oVwTcXIss3kFrEN9k8wjcKD6A3oqrCN1uGqDc0dr83UHy2N1ZG\r\nsDf2MMY3rKKvN5RxuDcgTtM3Fm3AN/btwjd93LE3lLf8N6Lczjfn5Mg33HnHN9K0tDcN27A3nTTB\r\nNyICsTcpTMM3ENWlNxIHpjcOMqc3rCHJN7+PpDeeqtU3NNXFN86SuTe9ptQ3VH26NwBIuTc7RDo/\r\n/+ZjP+Frjj+c/+A//fzxQQUzlkDMHeRBHfT8QT6UA0FtuYtCb86WQiwuuELekftBSNNjQrySqkEm\r\nfbdB5q/3QRuZNEJoCW5COmVFQJeQR0AalAVAdDdyQHi6lkC3qddA6VK+QPdxhT96SddAG5egPwr1\r\noT8HKoo+pCODPwzRP0Bb0K0/KBmOPxhA3D9JJwJBq7uIQK5RakBS3ARAth7LP7ZJAEBqeVNAC2ny\r\nP3KxDEAOvgVAmqRQQG3+xz84SJQ/hAU/P6TnyD9YKHU/ZOrBP1Up8z9cJ2g/x1f0PwgifT/fymY/\r\nFcG+PgCnyT7VPRE/wrGQP+dVkj/dwhA/cnkvP359FkAFIjY/FyELP2g5/j4mYoY++u2iPmtCJT80\r\ncPM+jA6MP2wOsT7ul60/mQ6jP8rkzD+5hG4/2FTdPrKR5D+YF0k/JD8XP3EVFD9C3jI/AKDhPtA3\r\nbj6Zw3I+CnXXPuaryj5KGWM+zERSPnDcRj4wv3c+YklEPiD2rT6iwB4+qtI5PmkJ5j4G520/Dg6l\r\nPlFoND56uqM+9fxWP+lGYz/lIw8+RLgbPpaRID+qoS8/zVrkPsU3hj7lNss+oh2LPuOLED5huos9\r\nafuwPqiOmD80TtY9LKiBPrzyrj0Oj9M9JgMoPo26lz7wtdU+68HFPsLwhj5qrbA9vJ4RPq5pnT4V\r\niP8+zGndPYOWzT1KU2E+GRZjPieF5z2Zupc++zqPPWNnND6YvdU9V/6oPSIUFD3XB209eqKPPViI\r\nAT61mG49idndPSBeJz5aypE+kAMEPgqRvT4zHks/08wMP2dOej4njUk+TsPKPpq6fD7NmXg9XqUk\r\nPhLZsT48iwM+KJ+BPeg9Ez4Cn/Q9QibHPH3Krzxa6WU8U/1aPZAVVT3Fq7w8AFJdPXJlPD15G248\r\nigQrPTuz2DwE5YU9DKejPAhruT28vDk9rMHXPVrbGD01I1w93GSrPbWl2TxhhHM8usRnPWkquDxo\r\n8ug89sdlPR/pCj2U2UE863jEPA+BjTyW1XY8f/2DPMtv0DzFG6U8O9egPWrnyTweB1Y9shXUPJqF\r\nCT1M32A8FHEkPb2mxDxd+pE83g+7PAelmjxyrA080anGPKvnrDsII7M75H+FO44YKzwJg687Ae0k\r\nPJWLrju95lk7gLZKO2uMKDvGRJ47yd6uO27ujzv82mw73TLYO2qhVjtKaMw6/OShOuXRrDr1sdg6\r\nowKLOsr4nToDiYA6Vvj+OZK+lzqeOgU6ecHnOdQCEjohQyc6QAdzOVDltjlOXrg57V+aOaI1+zg1\r\nbmM5GuFAOZQMRDlvaVA5KyRCOVrZAzmWjkI5lA9XOdAvEDlibxc59Gk6OWAKSjl7HVg5LK5POTwM\r\nQjn1Q3g5r0G3OYhanDkxZmE5fIg+OQ6A/TntukE6T8THOWZDtzlgiDA6GOrsOU5OkTkpK+A5H7HU\r\nOR3xKzr9ZdE6eYSIOTQBEjrks/o5PRjcOdSdXzoDauc5nm0SOjNgQjp9upU6uoKOOqK0hzoUpy06\r\nY6hlOlTKPzrWfgw6J4eHOua38zkgsUU67SaPOjsCOTptUwU67JJ5Om1uTTqtr1I6yj9/OhAinzoU\r\n0FA610uBOmj5jTqzAdE6+jsfOz/CbDodmTw6HX5QOuJYZzpCBkQ61ALQOiAHHDrEIF46dVObOhzs\r\nqToj+k86XX0yOrFTXTo61vI68GhLOtzjszpxRI46du4OOvG9OzrsZ5s6xQO1OjxdjTpKVPY5cQ+G\r\nOjOZezpeWJk6ShuHOmKNmzpHb3M63PCWOnKA9zltEmM6tVwxOuW7FzqJqI454EQKOo/iODowglE6\r\n+IVROqSj7jmZ0Cw65hF1OsE0JTof2Lc6bjTXOuixjjoheCw6XF6VOmbAWTrhRow6IHQWOtLPOTrU\r\nWec6NXYmOlayjzon+Cg6KO5vOj+PyDoUV4Y6x7Q0OjwpuDoMSvQ50C84OioOATqtBhI6KK0XOtgK\r\nejqJjq86mxqgOQ15Hjoqhd053sZLOsICNzojXQE6/3U8OhEBGDqBoes5NKS1OVTEFzp+arM59H2n\r\nOd1ihzqDPrM6gitLOXbSUjlxBu45FmkPOpiRszmoQEI6cK2vOeTelDmZ25s5RUd3OaEaRjlGPtA5\r\nqnFNOflg9Dmew8I5THlHOb9btDm6WVg6CMnXOWiPOzmAIwQ6xpsEOhUIjDnEzNI5ZjU0OpTN4zmo\r\nhPI4bKf0OVe2fzmGZvk5fsvrOQwVojmXY+Y5GpyFOaEq8Dl8txk6gxAEOv7Z0jlPQnc5n0jgORp6\r\nmTnApj85eSvNOXbYdDo8M4Q6v+RXOYP8Lzo1Sm46ZZT3OZXE6jkAymc56OZxOfmsFjqJKWU5Z/Jr\r\nOejtDjo0Qzc6bhFuOaIBxjlX5VI6AqsgPbJKcDrVCwM6zNsdOoidrjlNyLM5yBaFOUj7ITp/86M5\r\nI3vQOQMgETqOonY6nknNOY4Kizm4qmk5I89EOoQrbzm5opM5+XqEOefxTDksdUI57dS/OXAGaDnc\r\n0Iw5l2vDObh1Vjnh8LA5RxgWOVwnUzn230o5VCVYOaztOjntczA5RIBUOSssqjm3pDU5BzeaORNv\r\nmzk29Qw6y6tGOSScoTn8NVs566ViOQ/eiDke9y85ojYUOkYZGToObq45+JHiOYmOGDovHg46HOQM\r\nOlpIszna2Q06bkH+OaLW3Tm++Ys55B4dOlXrAzrsXqQ5d6wXOmiW6DlkV0M6Ncr+OVAjIzpwP6Q5\r\nYJyCOXe+Jjqw8DM5OwYLOuav2jlPzkc5A8viORuQtjnEpgI6eN74OVdzqzl/kZ85AFyEOTtS0zkh\r\nYg86Ct68OWVTyTllPhg6n9GgOnVAkTkMsug51K6yOYmFUzp62A86ilEyOtzpwTkuEHE5WtyUObyg\r\n4DkXgRk6w8RLOqTuyzkiDDE6G+xUOf3g7jkhPCc6RopqOdOrhDmbCLI5Mk4bOfwWajkiF1Y500WG\r\nOV6jZznDuTo5pF4gOUuBRjkmV1A5FC5xOeCw5zn8o7I5fuzxOH42PTkTuI05RGS8OO9jjjm5/n05\r\n/zE5OTpHFDkh0Qo59irROZG+ADpPBEg55eaLOcFfuTkOvBg6s10FOjaEsTlSpsE5q32hOe5iDjkf\r\nPOQ4/44pObb3QTlUnoc5NGPnOL8tXjl2R805SqLIOJKDITncOnQ5B2qUOKgAFzmRwYw4sr3yOCfm\r\nbjiUAc44KxqhOFBXuTg/gdQ4w0QLOcZt2DhodQk5jgr6OKENIzmkOko5NJ7GOODj8jieIy04iLiE\r\nOBMJIjiqj684igPAOC/AgDiGS4c4N9ymOC1AhzgVgnw4+nyeOOT2hDiV9pk4jnmnOJSyxThVWYg4\r\nkLLBOMXx2DgxmjE5PiiXONRQPjn2pa84vFNxOEdRmzjDubc4kKBKOACgEzkiqZ04sbbzODYy4ziI\r\n15A49KFZOBQNBDgAtL44vA4nOKIobDiqcCM4igspOHzpiDggEj44sUwWOF3C+jdNmAE42DczOAo/\r\nQTnV3iE4IbP2NyiNsDjR3Ww4MKdeOI75jzicMgA5WvtFOKKEcji6FMw41J1COAm6czjhg1E4pR4P\r\nON6z7jhmoEM4eBjpOEdziThc7X84KMa6OLecgDhVV4g4cjk5ON5U3zjUnTM5wTzfOO2cCzlIvTs5\r\nKLgROUhiBzlpTFE4NC+DOMBgwzjU/Iw4uVc+OED8ajhjQ4c4xIoFOAAsJzgt33I4ya+FOAc4Izjg\r\nudU3IVyLOIB1izj1jd84BhCHOEYlEzg8Vws4a9UJOB3dGTiU4vQ31RTpN8DZ/DeDTOc3+A4NODi9\r\nyTcgUe83xxAIOKke8jeBjg04NiLbN0OA9jfR0e43tZHaNz45+DfcmAg4vNLZN0Xa6Tecp/035dj+\r\nN0Le3TcRQeY3j7/eN8FHCDiHIe03UYTkNwea/jd2csI3hCX2N7QS9TeH9u03G4gBODhTzTdEoPQ3\r\n6N//N46K8jdm+Nc3CM7cN2ARzzfo/uE3WmXuN9Xx/Ddr9g44VIwIOJry4DdH1ts3PPgDOE4iAjj3\r\n/983Nqn9N2ah6Td22eg3ZCL2N40QAzjwu9k3IBbeNyKj9TdlIds3S/HNN02q4jdExd43O47eN/lK\r\n5TfTDcs3nqXON0293TdgzdQ3B8/SN2xx1Td2PvU3yv7zN7o32zdHbgA4yT3jNzBi/jc7ePI3r4HI\r\nN6FS3jel9No3oGrIN+aA2zfo/Ps3uCzbN0H8zjetX8U3SMPTNw2SuDcA+PY3Ste/N7M73zf0YO83\r\n9vcMOAU/6Tc9IdI3Ypa8N6px0TfwTeI3p/jgN37X0DcpDeU3+hjuNw1Z9zdC5Pg3tX3YN3VuvTc9\r\nsPM3Uv3aNyRV6Tc8Zc83mBfLN3vUxDcOUfw3IELfNwmc7zeWT9w35RLGNz5U3zesZO831dv0Nx6B\r\nAzhV2f43YQDLN54i4DeEksk3cM/dNzYZzTf69d83KmzTNz8HwjfQAd83w0DPN97L1zcTQdc3yRHd\r\nNzXy7zfBprY3D4LqN5aQ0zduoOM3bKPRN91YzDdaMtI3oCnTN7T47TeJvMA3KRXhN4bPwDfFBuc3\r\nbOrsN6KX9DdA9PI3D67jN8OYzzddiPY3aKPTN9VG1zfy+NI3xLwLOMI4FThlNWo4FvD3N/ZXMTiW\r\nubI3ISHeNzpn6jiPN+Y4J0W1OAk2Azgokos4smzmN3nk8jcaQRg48NsBOP9UDzmPZhY4poMiOLxl\r\nBzirkRc4lwq/OKxvDThb7204zZtIOJSjFziUFpM4wBYmOTwijjg9ySM5xqunOdUqHjsIpwA6bJZK\r\nOWyjPzgvLtg4TU4NODc9FTkw4JE5YsaFOBZeATi19944KlXPOHETPTkKMgc6qdiTODQIljgenmU4\r\nJTW3OKv3fjnJHWc5UPBlOZacXzltwm45ZqIWOZXUwziPDMA4oe3LOeOWujnIA9k4Oo5UObQ6nzkU\r\nO/A44g0WOHjx4TcJN9U3Yo+iN2orrzeErL832XuoN07CuTeaxcM3lJuvN7NOsDdJPtE3MzXKN89h\r\nyDeDtss3FKiuNycx2zeH3L03V2y/N7mnujeGrcs30enKN18lqjd28r43HFGtNx2oxDfXJMs3RWW4\r\nNxxlpDdJ57U3vaS2N1kIzDcpQLY3IgzDN5BdsjftFd431GqkNzXZqDdK9MU3fqGwN11azzcXCbc3\r\nIWerN/1ssDd8yaY3Yc2fNx0psjcwxcU3MpDaN2zVuzfDkqA3Y+qjNznnrTfo/LM3lpLCN3iTvzdo\r\nwdk3XM22N8rnzDf5zbk3BUa+N66ayzcVb7s3SmLONxvwrDdfx743g+OnN9F5rTeJgrU3PDayNyEf\r\nrDdL48U31czLN4IhujfHM+E3DzLCN+wOszemPN430pXENxbptTdrOLM3Xe+uN8Y3sDfgmrc3Pumn\r\nN9z9xjdkipg3CMyoN188pzc31dQ3xkbLN0wU1DcuSb03WJu4NwHJuDcjvc83AEjXNw==",
                            "noiseTrainingType" : "default"
                          }
                        }
                    ],
                    "start" : 290,
                    "duration" : 136,
                    "mediaStart" : 18,
                    "mediaDuration" : 136,
                    "scalar" : 1,
                    "metadata" : {
                      "WinSubProjectDisplayName" : "",
                      "clipSpeedAttribute" : false
                    },
                    "animationTracks" : {

                    }
                  },
                  {
                    "id" : 64,
                    "_type" : "AMFile",
                    "src" : 7,
                    "trackNumber" : 0,
                    "attributes" : {
                      "ident" : "Narration_DMongoBr_CriandoComponentes 6",
                      "sampleRate" : 44100,
                      "bitDepth" : 16,
                      "gain" : 1.0,
                      "mixToMono" : false
                    },
                      "channelNumber" : "0,1",
                    "parameters" : {
                      "volume" : {
                        "type" : "double",
                        "interp" : "linr",
                        "keyframes" : [
                          {
                            "time" : 0,
                            "value" : 0.699300699300699,
                            "duration" : 0
                          }
                        ]
                      }
                    },
                    "effects" : [
                        {
                          "effectName" : "NoiseReduction",
                          "parameters" : {
                            "denoiserAmount" : {
                              "type" : "double",
                              "interp" : "linr",
                              "valueBounds" : {
                                "minValue" : 0.0,
                                "maxValue" : 48.0,
                                "defaultValue" : 20.0
                              },
                              "uiHints" : {
                                "userInterfaceType" : 0,
                                "unitType" : 0
                              },
                              "keyframes" : [
                                {
                                  "time" : 0,
                                  "value" : 20.0,
                                  "duration" : 0
                                }
                              ]
                            },
                            "denoiserThreshold" : {
                              "type" : "double",
                              "interp" : "linr",
                              "valueBounds" : {
                                "minValue" : -20.0,
                                "maxValue" : 20.0,
                                "defaultValue" : 0.0
                              },
                              "uiHints" : {
                                "userInterfaceType" : 0,
                                "unitType" : 0
                              },
                              "keyframes" : [
                                {
                                  "time" : 0,
                                  "value" : 0.0,
                                  "duration" : 0
                                }
                              ]
                            },
                            "noiseProfile" : "5KmtPPX0wTyHDfo8OL7hPfN6Lj8xkbE/iK5vP3E2BkDSinA/INtoQUNU/D99DItArA6PQAKdBUCw\r\niyhAHvQnQdou6UCIA8pAM4VoP6BphUDrdPg/qJBAP5yKKj5h/x1AQBLbPtwS5j60VCg/KheCQCDK\r\nSj820Fk/kGlTPhaiWD9aV68/EmVRP7wFLj86LnA/fkaWQPasO0DdxnpAR55SP0xEFUBfLNw/HgCk\r\nQDskkD//7n8/t3+ePy6wHD8wVNo+Jv0MP/AvAj/Hv1xASomGPpQX7D7nWNA+GZ67P/z0Vj8tnac/\r\nDxblPnjgCT/sT+o+isVwPkJ1mT/hTVQ/ZduTP6dKej90cPg/1h3kP0rcJj+k0hk/q/aZP9mjOD9C\r\nk2w/XZMoP14QeT9PAlQ/5lZ5QFyd4D8lBZw/EjP5Pzb/Oz9jDyRAdxPfPzgDZD+Gh/A/Do88Pyd/\r\nzz7eoU0+cF4qPte5jT96haw+FvIZPrv8bz8sdIg/8QepPmZEqj3pKPE+SAd5Pid/mj1oUTY+mLBz\r\nPtjusj4j1RY+lHnPPXhmpD9QU0w+h+8RP7Wg6D5uuNo+QN9NPrcqOD7ZDlw9HYo6PWDdej2uN689\r\ngKUsPZRuiz0f52Y/ENEFPSufCT0V2g09mCnjPFNdDj0U5gw91Sb2PJT2qT1QJLk+CZDQPNB1Rz2g\r\nfoY8kFyxPDcXrDwjuDo97ErZPK8Ijz0fjNg8UOymPdtUOz1zQUA9taxaPQKRyDxSXKc91AVWPqT+\r\nlj2dasc+rkazPkMZPT27pOQ+32c4PxJvzD6o/E4/eJy8Pr8UZT6WIns+9UgkP2T1Lj3QxhM+DkcN\r\nP2DCiTy7V8U9/nRZPnDFdT4ghFE+XlggPW9AwDz2Dys9gfA4PQayGT3ng5w8giKwPTDfNT1wfbM9\r\nCu/OPPpbPD26URU9DopFPff6rTytjFQ9LvBEPUGUXT26GEo9Oo0nPShkcD0W8Do9I9iPPTJeqD0G\r\ng3Q9udaJPeS+fj1ng4w9cDuMPSjt4DxuCJc8pvTUPCx6pjw6WIE8pHqlPAeLIj0HKYo8Le9nPDcv\r\nPDyV0yo9JZI/PRmYOj2dx1c8taqVPHSnHjz3ono8PtnFO65rgDx9uB48NPJePJfX8DvH7hY8rfIX\r\nPLwr8DsKIKc8UZt2Oz4wkjt7DBs8HW2OO6zKPzzhu747LL90O3ZgsTuN5Bw72287OyyXuDphdK86\r\nztafOr0QCjoTpgY6+j8GOuCWUDrnJaM52G6JOstNBDqWr9Q5ZbwXOtyL8TkGWLc5qI+qObMGwjmQ\r\nxA86Jo6eOSDbujmnU9s5S6K8OWGFlTm2WtY5jjLUOWoUrjlekok54r/OOdtDeznwgZg5E53FOZ/x\r\nhDkfKIg5GlDdORUrqjlEnN056C+gOTKV8Tky4lc5FEKMOYSalDnuFNc5MAzeOZir0zkRoc45sLuu\r\nOTwS3znPOSY6ASb4Od4DNjpvP/I5HQmCOi82EzqbAxo6/N9+Ou6ORjraxzU6SIWvOXpnOzowSY46\r\n6IPmOuYTOzpZUUo6vr9gOijQVjrCrj86ZWFHOizuWjpAM5A6R11vOpTY8TkLdIQ6yv1EOi+tfDpe\r\n6gs66BFsOgS7yzqzApY6elkIOyb6xjqILQ07pWSQOsKvRjpSLi86iI9YOsxolDpUEDg6Hy1XOrkW\r\nVzom5gA64DUIOuVIHTqFMgM6HaugOlTJPjrYnrg63yw0OvbEYDqBGIk6LZGjOlahKTqfI7k64IQv\r\nOnYU4zoiGiM6otvrObYyTzoJLsw6z6JNOqVGIzrsmpU6pqHfOQemPjrMH/s5wVApOq46NjrNVpc5\r\nlGfSOrIi5jnjlZw6vjAAOp7HNjomKSE6OkB6OfWwuzmQ7jA6eeBeOrCQYTpcLGo6goGBOn1KzDoS\r\ndlg6Atg3OodThTpGKp86vxDBOjiQkjrNt8s6o9O6OoCWaDpaxUM7nnGLOlpK6jlCFrk6gzPXOlsj\r\nkzq+lWc63pKPOrfMcjoYWTc6AxndOQ5FjzlJe5c5oN0OOqvhLjrZqMs5BYKNOcDoKDpObjE5Giau\r\nOX7RhTkCVRg6Nk6AOfCWcTmqr8w58qVpOYy5izlHTLE5BhikORByejmQap05mEiuOaYuxTlu5z45\r\n75CWOc49DzlEsn05++UfOfOwqzmF3ms5eZGAOTFdazmOuSU5wjg0OeECkjmOstQ5ooWMOZlsqjkT\r\n31057rB4OXbJ5zkadlk5AmcaOSdzrTnfxJs5wXFfOX7miTmwzto4f0w+OWqbNDlkiRc5llgcOTtL\r\nLDkeGTY5aPoXOd7VsTmSdew4PnliORkStjnzIyM5X4gUOZMpfzlhREc51odPOYhk9jnD85s5oosX\r\nOfeYxjn44pc5gs+OOQVdIjnltRs6kh/GOVYwGD0UkEw6kTqmOc5BBzk9IHU5IHc4OdK+kzkgaBg5\r\nuq53OR1PoDk6qHM5gxcmOarzRDl/9z05bHYpOUCpCzlnE6E5ZUz9OLywUTnXSks59tfgOBMHrDhS\r\nLB45YkNCOUC8eTkxPC45FnjROYYB1DjGuhw5DTkDOUowADpiOZw57nNCOYPShjn3Vbs5l9PoOZLc\r\nATnhFxU5tmePObfMDDqdKIs5bWvPOYqruDnhwtg5Y4KROT7IyDka6b85olP1ObbdHzqZzg86iH5H\r\nOrAILjr+D885ScLWOVzJxDmhZgo631+AOnfKRzqtjWA6M6UtOrKgMzoClgQ6Z4okOmTsDDpA+EQ6\r\nyJX3OSTULDlDbRI6dbovOrOsjDm6QF45PK5vORg9ejkHN3s5RgWvOSm6VDlPDYg5ZF8hOokMKjln\r\nLus5w8MKOm79HDp2oRk6OC2ROljOkTrJwMM6JI9bOp7FBzrQua46/9oEOtL1BToeRC06qKjaOeLT\r\nzTmeFHY5PxkvOY4pnTkhIqY55cM2OrVYlTnEHQg6aHLAOUgAWTpEPo857ehEOiq2ijoXSsg5Bc8V\r\nOhMz7zlWkmU54WNROvWKIjqS9As62Fm4Or5YuTkocvY5UIoAOpDYYjpm6ec5aOcFOjBMwDkkKBE6\r\n6pSmOdcEZzqwCRI6qSxoOcRXPjpL3JQ6lwlHOnmx0Tm41Z06vDt6OoN+UDre1x477nPpOeFNADoQ\r\n1Sg6/ZeaOQHcZjlybsE5VfsCOqaKRznySuw56kitOQwtKDon44w5cHZ0OSrRITnKbwo5ogjOOLL+\r\nrTjLBgc57+cDOTiagDgtFgQ5ZfbwOHn/Rjgf1VM4fgIUOQMuqDgdgNU4JxfrOK4SlThX0mQ4BSQd\r\nObGOEznfF9w4l1KyOAEYpjjiV1g4blo1OebEXzi00vI4ZH6KODPHiDhfGMA47qgWOIxUcTjP6rI4\r\ndEF5OKJtuDgX7LU40fWXOE2AiTgy0YQ4qNlnON64bTiqOYY4fqWeOOACiDj1vQU5FNHYN8aQ+zg5\r\n0o44wO+XOILXKjiosoQ4FFPVONhurDheiHg4KQuOOGWjOzhmMWk4lUGUOF5v3jf1rxo4rV6NOK5u\r\nTTg97kE4JKS3OA9SyThCQUk4Ej1WOIXPYTi0X2w4Yx/NN+CnnzjT+Zc4jIq2OG6R3jj9A7E4gH6E\r\nOHKcyTiGlEI47iusOO0LbjjbOqg4jDGCOPAmdzgO7vI4a9WFOM1GqDj+aME4cl3ROHR0ajjua5c5\r\nNP75OK4jpziBr6A4KHFAOFsU7jiXnCw4AlVSOLQUKzhoea04QlyHOFidKziXpGw4ZX2ZOC20kjjG\r\nyOo4+gwgONxPfzgwi004SZWJOJu+PTiGYSM4PypyOI2XTTjopVA4UI1fOEg0ZDgcMV04ma9ZOMma\r\nUDiGXn44JM5ZOPbfcTjBfIA4WfqHOGj1ajjuAmc4DBp2OLE2ZDjW8lo41ydwOLM0ajj4BWA4Kw1z\r\nODCqTzicVYU41NZlOER4cDh5sGE4nHhgOFz1XzhOAWE44n6BOMQlXjgRVmM4kZKHODAufTjHsoE4\r\nG+lqOPqAYzglpmg4YahvOKttfDhVkoA4TSd7OGYkbzjsaFg40tFuOCoeaTgUkXo4MbpnOOIKbDjE\r\n3XU4tQlqOP4PXDiUHXc4Y1VuOCeQajhQB2k4jmR2OBHFhDjZ4zw4JNZmOA/gZzj5Cn84+2ZmODj4\r\ndjjDh3A4RFBmOK1SaDiDRUY4yWF1OLEyWTiEEl84FuNbOP7cYDhURl44PmNXOJ49bDjSJXE49w9x\r\nOAysYzgbqHo4xIVVOFJVaTjObVc4eb9iOJDscTggyFo4A7ZkOLMgZTg3ln84dwdLOOanWDgcBys4\r\nA4xmOJRCSjjQgWM4a/lROBQoZTg3Clo4MJBvODmAWjjpLlU49vNbOCgscTjHR1o4pp59OPPiXDim\r\nE2c4OL5BOB1oZjjfMWw4QFhrOHeFPjhalks4vK4+OPgXPziXwUw4sQRZOGzAbjgGNnU4gIBpOD5X\r\nXzg9KGE458dkOFaMYThqKWQ4SrtbOJarUTgQSXM4PelaOH9eXDifOVk4uwtOOMHLSzh94Vc4JWdy\r\nOFwsYDgNNm44dyhnOO3NVDhmE0Y4wAtUOLKqPTjFLkk4qthDOG6DXThFQEA4PIQqOCUCYTiyXGM4\r\n7F9SOG8iXzg1K0c4H35EODi0RTh+glg4Y1RFOKCRZTgSSGI4McB/OOuxUzgzOkg45GdUOEAUVDiE\r\nOGU4dh9UOKPQPDhrOFw4nqtxODTUTTj2NFM4tHpUOC1EYjjb4kY4H8NFOEkUSzh/j2g4vPJgODHn\r\nOThi/mY4o19ROEdoWDj+x1047rpOOASmQzhaP2I4B6hLOGTVXjh6XVs4E85hOB9gcjgYC1I5SFZg\r\nOO5qRjiCESQ4y4NXOP/9QDgGoVM4mp1XOOisUjipxjk4y96VOHfZNjidGn44HXI7OCC5gjjJs2Q4\r\nQomOONwcPjiwEl04CPNiOLaiYDio1lE4PJ83OBDRWTgqZJc4IxQ3OBxXNDheyk44zar4ONjZTzhO\r\nJqc4ZaVLOEroUDj+qGs44r4vONjFSDiEmnA4NVwuOLeBVjjSD0s4G8qDOK4sXzhRlUE4GWlKOPt6\r\nUzguRz84SANWOLs4SjgZIVY49gVYOJoEaDg6jV44JZFLOLM7TjguXUM4MNYwOEkbbTg432U4pqY6\r\nOGRzRzjEZCE4kH1YOHv1QTisdUg4hOhVOBDFYDhhmV04jh1kOPkqQDgFhk841FtBOHwFYDgS7jI4\r\n8ypDOAVqQjh9t0M4jZxSOM/tVzg0QjY43uNGOO1HNDhCf0c4wpxZOJaCVTgOTUQ4KEReOCY5Pjjt\r\nTjI4W4JAOGNYNziPvVo4z0sXOBPDUDhQ/DM40eA/OHyMYzgKeFk4hlVHONEeVzg8ylM4IpdOOFa9\r\nNTgI3T44+nZIOCslQDiON1s4qKhPOExWNDhGKVQ4uMs5OML8ODgbNzo44LY7OFPdazieG1k4xDlX\r\nOFthUziVoFY4EWtBOJDMOjgqPzw4VGhDOJPvSDjyO2E45JwcOGpHUzhM+2c4W0ZNOABEXTighK08\r\n8+jBPB4/+jxetOE9PHUuP0ijsT/asW8//xYGQJhqcD9242hB/nL8P4cMi0BqGY9AZcMFQGGAKEBT\r\n6ydBJzvpQBsAykClZGg/+GeFQFxd+D+gvUA/OnwqPnACHkAy/9o+aOnlPpdaKD+OHIJAEvtKP9Eh\r\nWj9NTFM+splYP18srz9BcFE/5hQuPwE2cD8UOpZAgLc7QBboekAfxFI/HEAVQG392z9sCqRARx+Q\r\nP5HJfz+UhJ4/cNMcPzCK2j4Dzgw/0+sBPxzTXEAvUYY+khvsPkdu0D6Ysbs/XAVXP2Zzpz9QxuQ+\r\nQg8KP1VP6j6ZiXA+JGiZP3RRVD9O2JM/xEl6PzZ5+D+/ReQ/AvomP87bGT8pBZo/Lps4P1BibD9B\r\nhSg/LC95P/rjUz+qTXlA5HrgP40JnD/FCvk/cjk8P3IcJEBaJd8/osJjP4+W8D9kKzw/MG3PPgRM\r\nTT6Gkyo+DLWNP41JrD5QDho+Xi1wP0uRiD/cEqk+wCmqPcQv8T7kfHk+OcuaPf4JNj6CXHQ+Qw6z\r\nPooIFz4U2889V3KkP60jTD794RE/qJPoPt+X2j72OU4+whs4Pp+UWz2O3zo9/a17PVShrj2SlSw9\r\n6rCLPW/IZj9cpQU9TpwJPXBKDD0L8eE8XgIOPd5XDD0jgfU8W9CpPVPXuD5XSdE8D3hHPSk/hzzh\r\n1bA82yWrPPcsOj2YG9k8FjmPPdxK2DxmCKc92hM8PatOQT0/v1o9VP/HPMVkpz3CxFU+oiGXPW+t\r\nxz4WR7M+oIs8PV1m5D7Wkzg/1KDMPsYATz+Lubw+bm9kPozpej5hLSQ/VhwvPSzKEz6gZw0/iECJ\r\nPEyNxT0Wklk+p+R1PmShUT6RLiA9+GLAPOx5Kj31hDg93rAZPXWsnDxz3q89ChE2PRDzsj0HCs88\r\nCCQ8PdVGFT1VSkU9CnSuPBtDVD1ZykQ9bqFdPao1Sj3YbSc9uhlwPVRlOj0FcY89xFSoPfBEdD10\r\nBoo95bV/PcFfjD3eNIw9hCrhPIyRlzySWtQ8QBynPJgAgjyP8aU8csUiPciWiTxKn2U80Ng8PJqJ\r\nKj0ihT89TcQ6PZbSVjyFhpU8WwgePGPseTzVlcY7k7J+PGD0Hjy7Bl88NVXwOyt8FTya0Bc8VZXv\r\nO3GxqTx6/3g7RKmROxaGHDz0k4w7l+5APGDSvTuus3M7YOOwO54mIjtG/zk7eBq4OmocrDqS2J86\r\nYJESOsOrCDoZZQM6guJSOg6HmjnRbIo6JHkCOg6B1DlQwxk6o5noOaVluzmq+qg5XXi1OataETq4\r\ncIg5oySyOXYg4jmEntQ5UKeWOcms2TkeQM45AmuwOVm7nDnIe8Y5PMJwOR8+mDk7Ctc5F4iNORZ/\r\nljmcu845fYusOZggwDmPSJ85Xx0EOqtMSjmURX85NdGVOaAb3DnwveY5oqHbOeUcwDlxnqg5SP7c\r\nOT1eKDo/MvI5+o43OnF4BDq4c4A61TMSOv+iHjriKIA6YKNMOgycNzpZNLc5sTY3OrcgjzpFsuQ6\r\nTZRAOlAtTjpGWls6OGtQOomtQDoFrEs6OdxfOiSEjzrb53U6NFHtOahigDoeekc6Wgd/OuojCzqi\r\ns2o61J3OOqmOlTqWkgc72JjKOvUzDDuIQJI6vWZPOu+bLzrvZVk6saiROpQZODouy086EzhXOg3t\r\nAzr0OQk6jMIZOlB5ADqJSZ06KV48OgL5tTprtjY6L6paOho8iDqu8aA6dkwkOvYkuDpxYzI6bQnk\r\nOqgXIjrxLeU5I41JOoDgyDpillA61T8oOk7ykjrlud85VXk2OkDv9zm+QSQ6XGk3OqyUnDlMRNQ6\r\njifqOdGjnjo+XgI6pIYyOpv2Hzr82nU5J7O7OU6tMDrwol46z8hiOmlVZDqken4644LQOuKaWjpI\r\n6zY6JG6HOpDCnDpcbMI61DqVOgO9zDoetLg6RKBqOoEkQjv2Soo6QPXoOe7DtzrTddA6zNeVOmhf\r\nYDpCR5A6GQJ1Ou8ZOjr6iOE5VvGLOcCUlzk78gs6s/EmOseKzTnJhY85RFsoOtM/ODnSpq450OSK\r\nOdEsFzqQg205Q7J3OV1LxTnkCmo5+GGJOe2EqzmT25s5X8NzOby2nznGBbE5DWrGOf1XODngyJg5\r\ndqQTOeREfDmoBSY5eVKuOXb5dDkYRYE5yjt5OUrTKjmP0S05zqKOOYY71zkmGJY5kXOpOa7WXDkp\r\nRnI5cBnlOeoQWDktIQ05mo65ObgFnTkvbls5FSqROSSP7jjhyTs5UKs5OYlPIDlwvh05PDI0ORH6\r\nOTnQwhU515OxOTEc7jjqZGU5eHO6OXXHKTnAmBY5mrWFOQ9MPjnQE0o5UrXwObaIjjmULQ056CrH\r\nOTBZozkG5ow5MEchORPnFjpqxcI5zpQYPUtVRzpdw6g5J/sHOdV9eDnf/Do5BdqZOX7WCzlBRoI5\r\n7pGeOdIsbzlxJS45uixIOa1dOjk2ESs56sIKOVgHnDnG5QY5IBpROW3pTjnKLPA4X9OoOJc8HTky\r\nDEE56KCAOUSnJzlumc05JI3KOC2cIDlqaAI5zdP2OeYrmTlP20Y5XWGDOaAkwjmUV+U5aff3OI6O\r\nGDnCq405qD8JOiTnjDkZwNE5tnm6OW9y3TkuwYY54/bHOW+AvTk+k/k5q1AgOtKUCToezU06Jpwr\r\nOu0iyTnCK9052mzAORYRCzpFIIM6qGtLOmQyYjryVTE6vwE0OgrZATpfsyA62ucLOgCxRTqUR+05\r\nNekrOc/uEzpftic6aMCROS/fWTlER3Y5+IOBOWV9gDlyUbU5TutcOcA3iDmFiSI6mDouOZFB5TkI\r\niw06fvcWOu8MGDo5mJA6hWSTOoAjxDrKr1k6lsILOggtrjptlgU6TigEOkjULDrMjdo5DF3LOQ3p\r\ndDk7Hi05VNeaOYHJpTnAMDI6TMmaORkwCjqTBr05GjpWOiUckjlV9j86DMyJOtQjwzlbAxg6i0fs\r\nOc1+XDmUwk06Wm4cOmvfCTpmP7o6vN6+OVh29DlVkf45bklnOus/4DnQCAQ6WAO3OblWEjq2N6k5\r\nCfNoOr1NDTqeR2A5ZQ83OsbnkzonIj86vlzROdCTnzok33Q6U39UOp2eHzseeOg5AxMIOitRJDqN\r\nzZs5tjNmOW13wTmgowA6BGVROWRu6DmMeqk5RmcjOsAgizn1tnY5iuIlOdETFDkB/t04hHTCOC9A\r\nAzlWrAE5ymSOOJNlBDk66PM4ZtFQOK7CQTjenA85oj2hOMWq2zjW+cI45JahOKfxaTgEDRk5hJgV\r\nOT+C2zjmkbI4+kahOHycVjijzDc5QsddOMg66jha64A4qG5+OLQ6tDiYXBw4o8yJOMC/uzigHHs4\r\nBEK3OGwKpzh87aU4+jGRODXcjziMsGI4/7lhOEO5hjhb5Zg4n3+ROPZAAjkjL/M3FPr9ONWhmThk\r\nVJw4OGUlOF3hbjhdqts4hmaiOP8/iDhfNnE4bsEvOAIxbTgJqJQ4XwvwN1GOJDh3SY84DbdAODyf\r\nPjjq26o4zV3eOE+LQjjFsEo4rPR7OIVRbDhIMdQ3jIW2OM2nkzhBs604juHrOECtojjUang4JpXJ\r\nOL+aOjiDkr04osKAOOqCqDiQu4I4x2+EOLye8DhRPYM4e6KYOLquxzhmy9U4vQmBOIkxljkCS/04\r\nMJ6/OMXmqTha5j04nurvOA7POTjwNDo4HiIXOEbJqzi26484ZqAoOEsXZTiEEJ44M2qSOERN7jji\r\noiI42ZaDONBqVzjtT4s4DCA8ODpJIjjFw244XRVMOISdXDhd41k49d1lOKedWTg+IGY4Kx5bOI8a\r\njzhiVnQ4MEd4OPHmdTjrgIY4Z8Z3OOkpVzhJaHo4qyVyOB0qaTgkaGw4PKBsOJRjgzg0cnQ4o01Y\r\nOKi+bTiw1U44/yVfONq8azgNGYA41d94OLpNcjjK8XI45KVTOA8TYTj2UYY48k1lOHRiZzgIemM4\r\nWY5WON4KWThtb2I4zkt9OLS6cTiov4c4mGhkOHMPYTj/aV04ZYN9ON4PbjhCPHo4VAGDOCBBbzja\r\nenc4G09gOIxkejgcEWw4xmJTOONaUTh1Yl84Chp3OD5BPjifjWM4bRtcOEtSejg/23A4F/hsOFwG\r\nbjhMzlY4G21fOLDEUjj0wGk4QqpiOJK6bjjIB144FPdYOIvaYTgIs2Q4Hr9sOF+agTjXD4Y433hP\r\nOKfPXjg412M4QslkOFN/ZTj/ZWM4jhKCONCvVTjQrXE41f90OOZ9ZDignVU4yg57OL6KMzg6bmc4\r\ntq1TOKSzdTgGG204EtRdOJ30VDjcWnY4U11JOPz0LjijaVw497FtOHcIUTjn/nw4DbNIOKpgaThX\r\nvlY4yd1pOKXoWzjXEFA4z4VLOODQWDiozEM4Ups5OLvVVThQiWI4EzxqOEjqYziAAW04yfpxOL9g\r\nTziuX2A4RPJaOCyXYDi2SnI4pktlOAE0QDjKAE84Y7RsOHb2ZTgkomU4TCxPOCt5Yjg02HM4XIBQ\r\nOLMLgDhdwX44cktfOK9aVTh7BE040o9GOLeSRTh31Vc4aN9OOH6SQDgJPDo4NflqONecXjgq+mg4\r\nf6VkOEy4TzijR1o45tI+OMNkZDjuPEM4EH1bOIZXWDg2rG04cdtIOFzBRzha1VE4O0BaOGgpYjhW\r\ntmk41eY3OHwIXDgJoF84tAhAOMQKSTgBwko47OpOOCLKXDi3xlI4xRJKOKLVajhIAXc4xvUsOC0E\r\nYzi7OD84iDJhOKdgajjZ2GA4qnZKOLQRXjiBZlI4xbxPOG6vSjg2L144StRyOLmYSzk6REY4U+48\r\nOHP9MDhJQEo4tV5YOK2LRThv3UA4iNFlOC5rQzg3j5Q4Sps+OB6uZDgrWT84KguDOIEGYjj8wog4\r\n2f4vODvEcTh+C2A4ZpFjOLpgaDh9tEc4dcxaOPCRiThK9kE44CZKOHFEPzh+gfY4DRJJOHVxpzgf\r\nVFE4pCpkOO+/YTgjZFU4cM5WOBxBWzj2oTw4K7lTOBNKTTgimH849JlhOHVzPTiKATU47ldaOFga\r\nTTi7uVU4bBZfOKJcUjh++mQ4WjdSOI2DSDiBGls455VhOEluWjg+Pk04YhBfONpqUjjQLTE4pu9N\r\nOHbqSDigw184LFJdONmOLDgo/z84t1VVOD3RSDh1LFU4N1dTODctYTgnjU84ZVJMOOD8OjhLR1Q4\r\n1P5ZOO0HQTgsYVQ4JgdQOKJ1LzhXwUk4WjRDOAGrSjjmz0s4F8VeOAJ5SzhqHU44mGpWOH8/RDhi\r\ntVU4lgMtOOEYWDgtWCc4MkZeOG7rRDjowUo4saVWOMI/aThbdkk4JNhMOKGMNjjiwE44lK1COG+I\r\nXDjmO0o48ydAOEIcSjg9P1c4MjFJOAffYDhgHkc4f51JOOSbTjhXhUY4zvdWOJT4Tzg1rTs4vfRF\r\nOErKQTjBe0g4v1pFOHlWPDht60E48iRBOJ+RWDjSHCg45TVeOF0/ZzioxTs4AIRAOA==",
                            "noiseTrainingType" : "default"
                          }
                        }
                    ],
                    "start" : 426,
                    "duration" : 482,
                    "mediaStart" : 22,
                    "mediaDuration" : 482,
                    "scalar" : 1,
                    "metadata" : {
                      "WinSubProjectDisplayName" : "",
                      "clipSpeedAttribute" : false
                    },
                    "animationTracks" : {

                    }
                  },
                  {
                    "id" : 65,
                    "_type" : "AMFile",
                    "src" : 10,
                    "trackNumber" : 1,
                    "attributes" : {
                      "ident" : "Rec 12-07-16",
                      "sampleRate" : 44100,
                      "bitDepth" : 16,
                      "gain" : 1.0,
                      "mixToMono" : false
                    },
                      "channelNumber" : "0,1",
                    "parameters" : {
                      "volume" : {
                        "type" : "double",
                        "interp" : "linr",
                        "keyframes" : [
                          {
                            "time" : 0,
                            "value" : 0.671328671328669,
                            "duration" : 0
                          }
                        ]
                      }
                    },
                    "effects" : [
                        {
                          "effectName" : "NoiseReduction",
                          "parameters" : {
                            "denoiserAmount" : {
                              "type" : "double",
                              "interp" : "linr",
                              "valueBounds" : {
                                "minValue" : 0.0,
                                "maxValue" : 48.0,
                                "defaultValue" : 20.0
                              },
                              "uiHints" : {
                                "userInterfaceType" : 0,
                                "unitType" : 0
                              },
                              "keyframes" : [
                                {
                                  "time" : 0,
                                  "value" : 20.0,
                                  "duration" : 0
                                }
                              ]
                            },
                            "denoiserThreshold" : {
                              "type" : "double",
                              "interp" : "linr",
                              "valueBounds" : {
                                "minValue" : -20.0,
                                "maxValue" : 20.0,
                                "defaultValue" : 0.0
                              },
                              "uiHints" : {
                                "userInterfaceType" : 0,
                                "unitType" : 0
                              },
                              "keyframes" : [
                                {
                                  "time" : 0,
                                  "value" : 0.0,
                                  "duration" : 0
                                }
                              ]
                            },
                            "noiseProfile" : "xKpQPVcBjj0Y+t49nb7MPXONikBENRZAJdhSQAXewUAIim0/SlglP1OZ9UCj0PxA7kOTQEK3gT//\r\nvQhAcJhfPxPMOT9/DnE/C1wRPwWBrT6/Lbw98HApPVX7Jz15BS4+azY4PncvlD8QWOg/CKjiP4Zw\r\nSz/UD9U/kNkoQFqCoz+cB4k/Xn+oPgfflj5A0BQ+C1dJP74twD4qaxNAlR4GQTJlQUAsXVRAcdZ2\r\nQISQO0Cl8TRAupgMQAj7rz9gSQE/J4hEP1wZwz8Rww4/bv7LPuEgCz5Hmck+JdfpP5IIbUBi19tA\r\nyfelQK8gRD+dQWY++oVnPb5wkT5l0+M/DKcDQBp9SEB/Zyk/wz4OPs4YbD1qIRU+qta0PezbdD5q\r\nZLI+DVWaPuZphj6/apo+KLNvQI027z439Z0+SsxrP3YzXT9dONk+PoYBPmHauT5lHbQ9I3PdPZZT\r\nkT1osp88Qn3SPC95zzxncow8srePPNWaGD2szKA9StIhPVJsoDwNT8Y8rSTQPMkjrzz6+bo8nFXm\r\nPOhqNT242Kk84K2EPCWToDzSXDQ8bJiPPI9yUzx4GCA8BoxEPA2biDxPWvA77RuQPC0IUTxUAMc8\r\nDMBmPED/9js525Q8bVs9PDK6jzw/84w7RWjdOyj7zzv4y6A7g+ndO33U8TvWK9M7bryyO9DI6zqd\r\nvzM7qLpTOztgIzs95VM7a8fyO0K4JztQKvw6qYdkO9jDwTvECfI7jGOCOzC5qTuUAtY7KSnLO1C6\r\nPDv/JPA7d8ehO3krAjvCbuw7ouaKOz6axDvjQxg7rNyHO6Ei3Tt23tQ79MegO/A/mjuic8g7pfdk\r\nO+JiljteHps7wuZEO3j6BjvkhK471eYTO1OMwjr0GBI7IGJ6O7SPkjs0pPI6NIEWO+WNLju6ueA6\r\nmfMkO3RXVDv5lDQ7fO9AO4r3ujv4Fp07q91RO0OdYDsONGA7YG5TO88yAzwJj5c78PCSO6kwHzwR\r\n7Ys7+2vJOowgOTt0aSc7sPNhOzd8JTv3Pg076fWnO3GcKjvv8yk7wkgnO3ul2Tq3ySA737IyOxTR\r\niTrwjDM7ArLSOk/ZeDsQ08Y6rjW0OsxDtzp8GIs61OPfOjs1tDoxEHg67KXDOiw1mDoU2XE6HoZj\r\nOsiY4zrhEao6AuhlOmK6JzprGoA62KqeOVzwzTmik+05STIJOgIDAzpGGHE5XHluOUTV9znI3vg5\r\nrdBaOUAjVTnUHIQ5lfewOdw6JDk4xB457Fw6OWqHNzldshc5FPELOZQDDjkKvgw5ZFD1OH2DEjmi\r\nZgU5BDMhORryETkcHus4UwYMOaeDITl2/AI5JIoMOb9I2jgyGA05j+8GOca5+Di0Gfw490vbOBMv\r\n1DiUHh45FSMJObuR9TiJUSo5UyKoOJBfpTj9/fM4e0+qOMV+1jhmRI04MnKMOAOjvjiHRbI4NtRA\r\nOYTCcDg84+04sKcDObNQ7zgxYn05UhAAOUNSVzmuGUw5951COcsPXDm6g6s4qJDmOXdh2jgypGk5\r\nCPw6OdaH6jjH5VM5RkFLOc/IVznV4xc5cEIkOSDHBjl5Dpc5zL0DOYLn5zjO2tI4WEw1Ob+FMzkU\r\nPac5IvsFOSLzTDkaOI857H72OKjS9jk0yGk5VNcyOSmATTljIiI5zfoUOQO1mTlsKyY5/QgpOVNF\r\nTzk2QqY4moyIOXTAGTk2Lno5453UOdCwKzkZbKo5lb71Oew+ZDkAzO84uLIXOfSCrzg8u105AC92\r\nOey7LDkH/rU5nBknOQFtSzlo1Lo4A5asOEFyWTnwPKE5j42qOHrJezmzG+o4MJbHOCuJ0TjJtSA5\r\nllKeOQbbuzjV7uE4ovAJOab3HzmPARo5UM6pONyrGDkzCho5fhMLOW68wDj/CGs41HwmOREGDjlT\r\njYA4OaWcOC0KATnouTM5xpsIOQMD2zicncw4BxHTOO04njjBjBc6/YXkOB59iTi7tbw4hszOOPKK\r\njDl0T9444PjxOEuHpDgVmpo4uku+OL2QujjRoYU4gjGaOAPJ0zjwy4g4abbbOJ6VVThQQ7c47oWm\r\nOMm1hzikUgo5aRdjOE5ZkjgNcqU4JdpTOAkpkDgIZpI4+qSLOFSiSDgH4Jc4sn70OL+/0DgQr144\r\n44IROeVy8jdRK/c3Lw5ZOLb4sjjOIoY4ZO2jONgMDDkJeU44kNYkOYimnDivUcg4bDd+OPfGPDi5\r\nazo4kmsFOErQWzj4cTQ4OgE3OCCyLTjIHo44sbpyOB0Z/Thqr404rgIrOF5duDiwQCU4X2qgOFgx\r\nFDjOi0I4vyBsOOhrvzit4RM4YVAWOHI2WThsNng43GdFOMenITi4cKw4GimcOE7BgTjVuGQ4mhXq\r\nOE62PzkT9qI5yvdrOthazDs+YsE5NoSrOJhdkDjP2QA5qDoxOdT0Uzim6ac4vnTcOMuvfTlsFfg3\r\nST6GOJcW0Tggia04BemqOGr8mDi4jtM4pbyIOAN/SjjG8yY4zq/CN2v3BjhdTYo4vOedOAQKRTiX\r\nzBY4nquXOAq1CjgMyTs4koafOCc+mzjAvcY360kyOMBE8TdxupQ4ujqVOKD2XzjmJik40qdSOJrK\r\nUTimjgU5ZMBVOY7KxDj8dKs4SKONOKXHETnUZ704QMyDOJ/76zg4b7Y4ZMsiOWJlhDgcIgY5gmDn\r\nOPaK1DjGRgQ5vD2VObB8gDndx0Q5OfHOOHDcFDmD3uc4hBqiOOzz4Ti+QMk4XsXvOAdH2DiATgs5\r\nglHJOC7vgThq3YY4nzGJOCbWCji+JTA4Q6LQNxJ9fDgkkMw3/D+1Nxp2Wji+N+c3d7WKODeGLzgM\r\nEFU4LNqgOLCLGDml/po4dhBZOBsOojhsLzc5gODvOON0IDkDjK042H3lOBbm8jg2uq449zV2OHai\r\nhTi+eHY45c2NOM5xxThEj6o4gjOGOd4Olzg5yKY4Yw0POZM4jThhQBU4XBfCON8A/DeE1iU4jH9w\r\nOAXsAjn2Ywk4ZxWBOHnewzc1GQQ4oFMxOMSeQjjB9Tc4j3gmOPoetTiSWgg4g9UpOEXYKTgkdq44\r\ni0EOOExZkDha4vk3UJl7OJGFRTgu/GY4beCGN5ii3TdK2Ck4tepmODBhAjiewkQ4gDjRN/GZCDgo\r\n8QE4OcWMN9SwFDiiIcY3pKUkODRqjjd28hU4SpY+OJlA/jeK9184teKuOHrHbDdOjQY4BGnsN26E\r\nizescNo3QuS4NxT8FDitgwU3KjQkOF7q1DdcUYk37qDLNwvEmzck7d83/GbZNwbOxjcUdPs3zQSR\r\nN1Vy4TdFh5I3zMgcOF/YIDdYPiY4Ay2aN/qX5DdhK5o3V/K5N3TR+zdkuo83InLnN49WwTc49eA3\r\nrbToN44DuDdMWbs34uyTNycrmjdG/QA4IEC2N6rkyDeNz8c3CudXN4oJzjdscRI4gwEFN2JhAzjN\r\nbtg3GYSSNzi38DcE3rs3qka5Nxj26TcR5cM371CVNyOixDfPrqQ3KKTMN4PaozdrJLo3omqbN4fg\r\nojcjBqo3FNqaNzwaxjcx7qM33zzPN+1LqDdcKs031N+/N7+irDeyWI83qAemN4+wyDfwUso3QD27\r\nNwSBrTeNP5Q3xUCxNxRxrDfAP4Q3yAirN/pjkjcYto83yXusN6Q8wjcyKZI3612XN+dSsTeUq6o3\r\nEMSnN5q8zTcMvJc3esyJN2YjpjfhqYo3AJmuNw7ysDevaI832gepN8aaijesJL43Zi19NzltsDd5\r\nD7E3NeGGNxKPsjfuYqc3lHCXN6P7nDeFx5w3vIKKNyIQwjcaIa03rlejN8UVwTd74Jo3/OOnN0L5\r\npDfEXoQ354OkN4FapjdCZ6o36AKSNznQgDe98aE3/duQN6hhrzcLbH43h81lN++vrjfeQHY3tBKe\r\nNwvalTewX5Q3rg+RN8UGxjfcYJ43stezN32Fszeujos3ov2GNzhRqTe8Sp03M/qlN7dmwTcbnY03\r\nKzaVNzdUozew9cA3Tt6nN09fjjfnppI3aYGUN5brpjeq76k3g66cN95qtDdc4603i7KbN9DwjTfM\r\nw7g3bAGPN24jlDfaZZ43PLqFNwQ+qDeUMV43eWuQN4KbqzeTk5s354y2N9DmpTfHfKw3tXONN8JB\r\ndjdNcJQ3G92MN4BSfzef05o3ks2LN2kGoTdn0Jc39uCbN4MJoTfP4Ig3B0uLN+hJfTdf9Z03dgOR\r\nN+xnhDdSUZc3aVSTN1jwSzcRDI83T11/NzwcmjcABpg3sSOUN4Ycsjd4PJc3GTGbN6fmlDfmWag3\r\niXGdNxEvZDdW0pU3Dm51N3tKnTfXNos3yFaJN6U9XTcvF3Y3i1V/N52AMTciva03eyajN+Yiizcb\r\nXXE3vc2ON2hphDdunqY3dlV3N6rBpDd7SYA3fgSLNxrqsTcOi5E3xlZnN2b/iDfV/J03H6WPN+K1\r\nWze93Zg3FgiUN4aLhTcHApg3+qh6N52+qTeiRrI3V6OtN+YSljfQlFA388qeN3Z1mjeuUq833U+F\r\nNzB6gDfuZY83gaGaN+nbOjevuqI3Yl6LN8oGgTceiIQ37fdpN2jpnDcYwoM315eJN7G1lDfhS043\r\ni0yVN5dMejcjmow31lmQNzxokjcsS3A3cCueN0+YiDdl3403XzSaNyC5jTdepXk38+lXN2ZYcTfu\r\nJ4o3WFScN0cYmje9PmI3pj+PN9tnsjdXra434cVSN6h5hDeYxoc3uKqdN1RDoTerVX43vFpxNxKF\r\nizcDrTM3NBR/N/NceTeXWYo3UW16NwedizdfjI03c9mTN/mrijdvYGM39BaON68ebzeUO0I3t4Si\r\nN5MOqDfRMaM3rCKPN9W3djc4xoY3OM6DNzVHVzcPdXo3ja1oNy5IhzdsebE3xEiJNwrfnDdGe3E3\r\nDDKGNw1PYzd2aGs3XspvN/QwYzfwMZI3c0WRNzVnazcse6U3plCPNwubgDecFks3h/l6NwGpjjfe\r\nc4E33pSPN77bYzc5eoI3mn2YN/WllDf5GYE3QLmJN7FzkjdejKw3Z42BN3QaqDf0k5Y35ViCN2rw\r\nZzcKBjE3zJ5sN235ejd0VGs3P7JLN/wuhjfxVm83SJJqN/SclTdzQYE3i1SaNzOLizfkWlw3p+eO\r\nN97xmTfymX03j/OPN+egXTfXmG03Nn6AN7BDZzfCFoU3QWOIN/DNgDevppo347aIN6I1YTcqPnQ3\r\nL2SQN9t6QTewq0A31rhLN0DtazfMlZk3aUEtNwZ8njf7nWs3IvtaN1ALOjfuzYQ3L4dQN7ZpZTdP\r\nPIU3w5OQN8ezcjcPc4s3Ji6bN4ihlzc+dIg3OUdnN3yOgTebGTs30ipQN5PPkDdy7lY3OHFlNx+2\r\nQTe4sJk3rtdrNxKZjjefb4Y3OJ9jNyHmOzdI+Xk3TFBmNwv0gTeA9Dg3FyWXN+xCiDeJ7HM3uVFK\r\nNyYaWTeXrok3fdVQNxPPTTdIoaM3BTujN44jgjdy04s3n4Z5N9/3ZzdOW0k3YsV2NwBAUjfZM089\r\nwniNPTXV3j3M1sw9gJSKQMpDFkCC2FJA5e7BQLnZbT+aeyU/AoT1QK3M/EA+NpNAmLyBPyu9CECo\r\nc18/POI5P1FecT9ybRE/KNatPnKUuz1Yoio9hqAnPSh9LT4thDg+xQuUP7M/6D/Oj+I/nVNLP2oX\r\n1T9m8yhAj52jP4n4iD+fvag+FZOWPhSaFD48LEk/KmvAPtx7E0DAGAZB0X5BQNRgVEBr5XZAgpY7\r\nQFYBNUDDawxAWwKwP/VOAT+nh0Q/Qf7CP1rpDj/pEsw+zckKPk6HyT7xuOk/nyRtQHDM20Cx86VA\r\nKTREP+GlZj5Wp2Y9msmRPgDM4z8AkANA7ntIQNmNKT8mOg4+fcxrPSVzFT79T7Q9C0R1PtfzsT7T\r\nWJo+FwSGPkGZmj5xqW9AHlTvPt3LnT6iB2w/KCFdPzVM2T5S6AE+C/W5PoYttD2KwN09/HGSPU9d\r\nnzwq7tI8q13OPLlpjTzOSZE8OM0YPUKXoD2rQiI9doqfPO4RxjwSl888sICvPDz1ujzjc+Y89pE1\r\nPSVGqjwOnIM82pugPCUYMzxp6Y88i99TPNsdHjzrQ0Q8R8WJPMw08DsUP5I8zmZPPHDHyDwFAGY8\r\nzhL4O2KLlTz4zz08DDeQPHrpjjtjn907Sv/PO157ojuEqOA75pP0O+ID0zsO6rQ7+l/mOmUrMjs1\r\nfFM70ywkO7lmVztTXPE7YwslOxTW9zrUKGI734rBO2R77Tvvg4M7gqmqO7oH1ztXYcw7Nqk8O6Xj\r\n8TvHxqA7cDEEO5rK7DsTWI071qLCO2+RGztedog7FNPgO8SB1DuCq6E7LTSWOySaxTskkmQ7hFGX\r\nOyKrlztFq0c7eckFOyi8rTua3RE7m9vEOn6aDzu0RXs7nMSQOw+t8TqpxhM7imkvO1nO4joJfiY7\r\ntplPO+5rLzukdT47R3y9O4jNnDt2yE47hKxkO03EYDv4T1Q7BEsEPLH8mDvUeZM7CJMePAbsijsu\r\nHsg65og3O9xaJTsMJ2A7om8mO22RDTt8aac7ZJ8qO8HJKzuahio7XnPXOo/qHztiWTc7SWSKOj0l\r\nMjs2vtY60X94O4mZxjpKz7g6XiO4OgyeiDpaK+E6H628Oi8geTomE8I6R6aWOnL7bjpAVWY6eHbc\r\nOh7+ojqs0mg6UeIkOsbNgjrv7LA5zgjCOeei8DmXIA06LkD1OaPBiDlsrYU5n5rbOcDX5TkEXGk5\r\nuC5qOY5Ffznso7U5ecM6Od0zNzkM2lM5QENAOex9Fjkzfgc5ZV8GOcAqAjk7FdA4eH/7OMLI+jgV\r\nLCk5jwQiOQhA7zjJtu04Emv/OBKl5jhPLBI5dk3xOLH+ETk+uAI5BFP9OOnaBzl0zuc4g+DFOGpF\r\nAjnNoN44KAHjOL/9Pzk0e8s4FOKwOHLJ9zi4Z8U4JxUIOcp+uDhWJ5k4RKykON+vmzgE6jg5q/GM\r\nOAJQ6jhztCw5L6jUOP1MVjnQLOA4S8RaOW36WTmO6U05tdhWObcHvzgs/+45yOC/OEw2SzmQuTM5\r\nsv3COA8xZTnqAj45fBFLObUZJzlaHxw58KkJOZJkpTnegBE54K0BOWxrCTn/cSM5kOE8OZZuuDlc\r\n6wc5kzRYOQUXjTmAeOI4rgABOhOwRTk2MjI5zgdQORLyKTmu3CI5WmOhORx1RTnLWB85KpM3OZvx\r\nnDjWIHI5+C0fOcLNaDk0muE5INQbOWonnTluRPs5hw9lOfuI0DgsfBs5hCSrONW1WjmsQnc5QuIq\r\nOXNpujkUGyk5mCRROXIM4ji3m7w4AeZaOQMznDmTgZw4GxVtOUnd9zhYsLQ4JD3fOMNmDznoOZs5\r\nppC4ODSu4jgByxk5oHkXOU71ETmUKaU48k0fOWDdDznE4Qs5BJnHOCaRXjgZ7iE5uo8YOZoihjhW\r\nLbw43snwOJsJIjkVTRY5xeTsOCrbsDjdD8k4fCWSOL+eFTo+JNE4fAOKODVJqTgt8b84eAGHOZXD\r\n2jg3XwQ5ASaoOBCKnziF/bk4MEy/OJcPlziClXI4xpS/OGRHgDiC1744dYEqOIygrjgt6aI4iC9+\r\nOLXvDjm8MXo4RKqaON/3jjhM3TU4EkSAOKd6kDi9+YU4xEeMOERBmzgc5P04Wp7JOCJVVzgSFA85\r\nkLb6N5jIBzib0E84vkeoOCJ1hzjcfKE4ap4JOfeyTTggjSg5XLGsOIxB3Dj+mn44uftBOOLSSjir\r\nAg44HjBcOGahFjg03Qs4UO0gOGEbhDjT03o4BUIHOclIaziqSiY4R7mqOIvrOTi5to84RZ0JODng\r\nRTi+/1k4blHBOOVaJTiRtgc4GXtYOAKeOjjNeEg4thkjOAIurzgJIac4cvCGOJ3FbzjaGvc475NP\r\nOQ8trDnEiXQ6SLPJO3WIwDm4OKQ4RUqWOKhb/jhQTi85HNFAOGt6mzgrXdE4bF19OaA1xTeM5ZE4\r\nI+i0OP8QnTgoyJQ46kaTOA4K3zi6BpI4IzdkOPzLLDga27o3IiIKODM6jjhuq5k4ONsyONRuEjjX\r\nVKM492sTOEUrNThF1Jc4nOygOKo60DdQyT84AxIBOFSKjTjIxYY4HP9eOKEdITj5pj84QrlkOGLw\r\nBjlhe1I5mXa/OKxykjjDuY44vIAPOVaz0ThDHns4TlYAOc2yujh6WRM5bFCAOPFu+Dhtxuw4PRLe\r\nOMMu+DgcUJQ5hf51OeX1PDnqUNM4ov4YOZkK+jj59Zc4RpLVOJaCvjigyeQ4MvPPOABFAjm2g7w4\r\nBgqHOJ5rRDhdAXY4wLIPOCgLIjhH1+o3WH2BOIKIvze6/aw3K+VOOIWj2TceXYA4UiIgOAsgYzix\r\nt6A4gAAZOVEPkzjyqnI4bMixOKHqOzmYm+844g0gOfOkwTiql9s4GgYDOUb+tDjWLIE4zriGODd6\r\nhTjH+JI4YWa1OBq7oDgl4Yo5QBOgOO0gpjh5vfU4vOGLOOUZEThMSLo4fdL0N83wLTiaVmc4WAED\r\nOa01ADjW5Vk4pB7bN8DH3DeP5iw4b/g0OMT3NTjCdTw4rO25OFUwDzj55RM4daRBOAIDnzgePyI4\r\nXGSEOKjq/Tf012w4bq4/OGZ+djjulY431xj7N/MVRzgiW1U4lAYGOMz/Ojg/Q9o3mHUUOJBK8De0\r\nyYQ3p2kWOFhRyDeufx845gG8N65m7DcwPkU4lj8ROMeMYTiKQag4vKtjN39PEDgujgc4EBCeN/rQ\r\nxjfaD5s35RgLOD5IDTefnCM4DnzZN2+YojdwkQE4SBG6N0gLzDfrRKY34hCgN/ih4jfKG3c3fwHM\r\nN9LsgDc4bhs4qj4bN5rpITgxI5s38asDOJ+krDeBPbg3G6P0N6cakzeDv+k38BK4N3s/zzfQSNM3\r\nqB6zNxb7zjeIdLI3x36yNxq19zfQTqA31nrCN0lmyzfk31g3gkDFN45xEjiydw03JjEIOM9axzcs\r\nY2M3nnvRN0VwqTcRup03Loq/N9W2sDd+pqM3MP7ZNzQ0mzdOo6s3dU+ON0OirzfFE5g3jdyjN1wJ\r\ntjfwGqU3GkXANzL7nTecYN03q162N+wGyzemabQ36lu1NxKEoTftVac386+wN1mvsjdGz7g35UDB\r\nN1wVrze4Ecg32Yi1N0cviDcdx783uYe1N0xEpje+i6A3eK2hN1CZhDdI96M3TT/DN1zlnjcm7o83\r\nEqTKN7cusje2KaA3ujGmN8DCiDf+ecA30J/LN/iBnDd6C7I3Yt+XN6iCyTcaUnI37ouuN8gwvzdY\r\n2I0376umNz3Kojdz+ro3zrfcN2J6yzeEXpg3bkXFNwZYqDcFSJo3KiC1N8TylDeMuKY3OEKyNy/o\r\noTdIH8037MHANwRpuDfbiaQ3QTSTNy9UpDcoaYU3xwmvN5CBkzeuYoo3c0C9N4wkfDeDi503SRiR\r\nN+JvlTc0dJ834v7cN1iQpTe+HKo35K+kN7c9ezdMP4A3ltyWN6WwgDdc14Q3cFmjN7AWfjf86Is3\r\nDV2VN5LztTdhBqc3kaiLN/HbhjdH6n83k7SWN5UWoje85pY3ZCmtNzy4nTfmeYQ3KAV/N5I0wTfZ\r\n8Js34pKJN00yhTdnv4A3habIN8tdgTd5jIM3OveIN5RGhjcy4Kk3q9yjN3HRrzfwdZQ3xQB7N6e/\r\nlzdtd543aoCZN6uerjfEkZA3gTyfNzWDljc52ZU34WaZN5XYgzfg1JU37MeTNzfitDegt5k3XmR7\r\nN2i3iTc30Jg34Bt2N7mLrTeJQYw3mpKVNzxjmTc6VZ03a3q3N6kXijenBoM39l+EN5rWpzfUlqw3\r\noc2ENzr4qTekI303Dn2MN2RQazeQ6YE35oV3N7rklDdSUJY3+VI9NyqRqjf4ZaU3bjOgN2v8jDet\r\nbJI3hyZqN4HppTerCIw3nAW2N9BPeDeS5Hc3knqfN2z4kjfhDYc3RhSjN1NvsDcSSpk3onVzN8o5\r\nqzenGZA3H99nN7w6kzeR1oQ3YD6RN0n1bDdso4U3jNmiN0tmaDfLRXU338VKN6NQmzd6rpQ3+veM\r\nN0jDlDcrraU3yJk9NyixkDeQDoQ3wRKYNxybnjdVnWU3A5eTNxPFkDcE2Js3PJ6PN6dUODcOap83\r\nNjiUN8Ynkjd5jIM3CRyONzxjeTc8PJc3wKxrN/HTgDds3Zo3/H6RN46ahzcvKH0333eGN3FMgDdJ\r\nwow3OVCqN80OlTeUi543bPiJN1d0hTcbQlc3Zd+cN+AyhzfMBIM3WMyLNxDQczfdwW83mM2TN9CO\r\nWjdmpJU33nKAN72qhjcygIY37liYN2sqjTewrpE38JCVN+mcazdIIH03dRNjN2fuWTc1PqU3ABmH\r\nNzrNgTcSoJU3wRCVN9G9kzeiK4U3jyF3NyzZhzcvpEI3/dE/NzwkjzfULGE3CtppN/JPMzdT3YY3\r\n2MuHNzMmgTf4hmo3PkBlNw0YmTdHkIs30tZMNz33nTdE85o3JZGPN6dNUDcfqGM3tsttN9YKWzf5\r\nQY43QWx6N0M3eTdAcHk3Z0l+N6X4hTcAY5M37vuBNypVijeDIWU3rUOqN5DNkDcmLF435ppaNx23\r\nZzdaE6k3E6maN52DbzfQ8Ew3g6yZN1p2jTcCLXM3FsNwN9y6Nzeml3w39ymKN6y7cTfaZ5U3yYma\r\nN5E3gTchmow31KNJN2S3WzeVvnw3ZrxlN52FZDdil1I3xONFNyIhhDduYn03tFpvN5ggkDcWb6U3\r\n3T1ON3VtTDerjmk3APOEN7CInDegrS43JuarN8saiTeASHo3kcJaN2zVojcabYQ3BFKAN635gDcQ\r\nSYI3L5FNN0/eYTf6GHw30gmDNx+KgzdXX3s34pWON2oLZDfbQWY3T2yhN2OwdDdgp4U3/35nN2sz\r\npTfriFg3nwR7N+FGiDfaeoU3TblFN27wVjdwCUc3SyCJN66lRjdPDYU36o5eN0LKcDfKZXI3eZGC\r\nN2W1mTdHf3g3DwRyNwQBqzdCO6E3wHqBN66gjjeZboE3qfyBN5mqdTceRJY3AACANw==",
                            "noiseTrainingType" : "default"
                          }
                        }
                    ],
                    "start" : 960,
                    "duration" : 1163,
                    "mediaStart" : 0,
                    "mediaDuration" : 1163,
                    "scalar" : 1,
                    "metadata" : {
                      "WinSubProjectDisplayName" : "",
                      "clipSpeedAttribute" : false
                    },
                    "animationTracks" : {

                    }
                  },
                  {
                    "id" : 66,
                    "_type" : "AMFile",
                    "src" : 10,
                    "trackNumber" : 1,
                    "attributes" : {
                      "ident" : "Rec 12-07-16",
                      "sampleRate" : 44100,
                      "bitDepth" : 16,
                      "gain" : 1.0,
                      "mixToMono" : false
                    },
                      "channelNumber" : "0,1",
                    "parameters" : {
                      "volume" : {
                        "type" : "double",
                        "interp" : "linr",
                        "keyframes" : [
                          {
                            "time" : 0,
                            "value" : 0.671328671328669,
                            "duration" : 0
                          }
                        ]
                      }
                    },
                    "effects" : [
                        {
                          "effectName" : "NoiseReduction",
                          "parameters" : {
                            "denoiserAmount" : {
                              "type" : "double",
                              "interp" : "linr",
                              "valueBounds" : {
                                "minValue" : 0.0,
                                "maxValue" : 48.0,
                                "defaultValue" : 20.0
                              },
                              "uiHints" : {
                                "userInterfaceType" : 0,
                                "unitType" : 0
                              },
                              "keyframes" : [
                                {
                                  "time" : 0,
                                  "value" : 20.0,
                                  "duration" : 0
                                }
                              ]
                            },
                            "denoiserThreshold" : {
                              "type" : "double",
                              "interp" : "linr",
                              "valueBounds" : {
                                "minValue" : -20.0,
                                "maxValue" : 20.0,
                                "defaultValue" : 0.0
                              },
                              "uiHints" : {
                                "userInterfaceType" : 0,
                                "unitType" : 0
                              },
                              "keyframes" : [
                                {
                                  "time" : 0,
                                  "value" : 0.0,
                                  "duration" : 0
                                }
                              ]
                            },
                            "noiseProfile" : "xKpQPVcBjj0Y+t49nb7MPXONikBENRZAJdhSQAXewUAIim0/SlglP1OZ9UCj0PxA7kOTQEK3gT//\r\nvQhAcJhfPxPMOT9/DnE/C1wRPwWBrT6/Lbw98HApPVX7Jz15BS4+azY4PncvlD8QWOg/CKjiP4Zw\r\nSz/UD9U/kNkoQFqCoz+cB4k/Xn+oPgfflj5A0BQ+C1dJP74twD4qaxNAlR4GQTJlQUAsXVRAcdZ2\r\nQISQO0Cl8TRAupgMQAj7rz9gSQE/J4hEP1wZwz8Rww4/bv7LPuEgCz5Hmck+JdfpP5IIbUBi19tA\r\nyfelQK8gRD+dQWY++oVnPb5wkT5l0+M/DKcDQBp9SEB/Zyk/wz4OPs4YbD1qIRU+qta0PezbdD5q\r\nZLI+DVWaPuZphj6/apo+KLNvQI027z439Z0+SsxrP3YzXT9dONk+PoYBPmHauT5lHbQ9I3PdPZZT\r\nkT1osp88Qn3SPC95zzxncow8srePPNWaGD2szKA9StIhPVJsoDwNT8Y8rSTQPMkjrzz6+bo8nFXm\r\nPOhqNT242Kk84K2EPCWToDzSXDQ8bJiPPI9yUzx4GCA8BoxEPA2biDxPWvA77RuQPC0IUTxUAMc8\r\nDMBmPED/9js525Q8bVs9PDK6jzw/84w7RWjdOyj7zzv4y6A7g+ndO33U8TvWK9M7bryyO9DI6zqd\r\nvzM7qLpTOztgIzs95VM7a8fyO0K4JztQKvw6qYdkO9jDwTvECfI7jGOCOzC5qTuUAtY7KSnLO1C6\r\nPDv/JPA7d8ehO3krAjvCbuw7ouaKOz6axDvjQxg7rNyHO6Ei3Tt23tQ79MegO/A/mjuic8g7pfdk\r\nO+JiljteHps7wuZEO3j6BjvkhK471eYTO1OMwjr0GBI7IGJ6O7SPkjs0pPI6NIEWO+WNLju6ueA6\r\nmfMkO3RXVDv5lDQ7fO9AO4r3ujv4Fp07q91RO0OdYDsONGA7YG5TO88yAzwJj5c78PCSO6kwHzwR\r\n7Ys7+2vJOowgOTt0aSc7sPNhOzd8JTv3Pg076fWnO3GcKjvv8yk7wkgnO3ul2Tq3ySA737IyOxTR\r\niTrwjDM7ArLSOk/ZeDsQ08Y6rjW0OsxDtzp8GIs61OPfOjs1tDoxEHg67KXDOiw1mDoU2XE6HoZj\r\nOsiY4zrhEao6AuhlOmK6JzprGoA62KqeOVzwzTmik+05STIJOgIDAzpGGHE5XHluOUTV9znI3vg5\r\nrdBaOUAjVTnUHIQ5lfewOdw6JDk4xB457Fw6OWqHNzldshc5FPELOZQDDjkKvgw5ZFD1OH2DEjmi\r\nZgU5BDMhORryETkcHus4UwYMOaeDITl2/AI5JIoMOb9I2jgyGA05j+8GOca5+Di0Gfw490vbOBMv\r\n1DiUHh45FSMJObuR9TiJUSo5UyKoOJBfpTj9/fM4e0+qOMV+1jhmRI04MnKMOAOjvjiHRbI4NtRA\r\nOYTCcDg84+04sKcDObNQ7zgxYn05UhAAOUNSVzmuGUw5951COcsPXDm6g6s4qJDmOXdh2jgypGk5\r\nCPw6OdaH6jjH5VM5RkFLOc/IVznV4xc5cEIkOSDHBjl5Dpc5zL0DOYLn5zjO2tI4WEw1Ob+FMzkU\r\nPac5IvsFOSLzTDkaOI857H72OKjS9jk0yGk5VNcyOSmATTljIiI5zfoUOQO1mTlsKyY5/QgpOVNF\r\nTzk2QqY4moyIOXTAGTk2Lno5453UOdCwKzkZbKo5lb71Oew+ZDkAzO84uLIXOfSCrzg8u105AC92\r\nOey7LDkH/rU5nBknOQFtSzlo1Lo4A5asOEFyWTnwPKE5j42qOHrJezmzG+o4MJbHOCuJ0TjJtSA5\r\nllKeOQbbuzjV7uE4ovAJOab3HzmPARo5UM6pONyrGDkzCho5fhMLOW68wDj/CGs41HwmOREGDjlT\r\njYA4OaWcOC0KATnouTM5xpsIOQMD2zicncw4BxHTOO04njjBjBc6/YXkOB59iTi7tbw4hszOOPKK\r\njDl0T9444PjxOEuHpDgVmpo4uku+OL2QujjRoYU4gjGaOAPJ0zjwy4g4abbbOJ6VVThQQ7c47oWm\r\nOMm1hzikUgo5aRdjOE5ZkjgNcqU4JdpTOAkpkDgIZpI4+qSLOFSiSDgH4Jc4sn70OL+/0DgQr144\r\n44IROeVy8jdRK/c3Lw5ZOLb4sjjOIoY4ZO2jONgMDDkJeU44kNYkOYimnDivUcg4bDd+OPfGPDi5\r\nazo4kmsFOErQWzj4cTQ4OgE3OCCyLTjIHo44sbpyOB0Z/Thqr404rgIrOF5duDiwQCU4X2qgOFgx\r\nFDjOi0I4vyBsOOhrvzit4RM4YVAWOHI2WThsNng43GdFOMenITi4cKw4GimcOE7BgTjVuGQ4mhXq\r\nOE62PzkT9qI5yvdrOthazDs+YsE5NoSrOJhdkDjP2QA5qDoxOdT0Uzim6ac4vnTcOMuvfTlsFfg3\r\nST6GOJcW0Tggia04BemqOGr8mDi4jtM4pbyIOAN/SjjG8yY4zq/CN2v3BjhdTYo4vOedOAQKRTiX\r\nzBY4nquXOAq1CjgMyTs4koafOCc+mzjAvcY360kyOMBE8TdxupQ4ujqVOKD2XzjmJik40qdSOJrK\r\nUTimjgU5ZMBVOY7KxDj8dKs4SKONOKXHETnUZ704QMyDOJ/76zg4b7Y4ZMsiOWJlhDgcIgY5gmDn\r\nOPaK1DjGRgQ5vD2VObB8gDndx0Q5OfHOOHDcFDmD3uc4hBqiOOzz4Ti+QMk4XsXvOAdH2DiATgs5\r\nglHJOC7vgThq3YY4nzGJOCbWCji+JTA4Q6LQNxJ9fDgkkMw3/D+1Nxp2Wji+N+c3d7WKODeGLzgM\r\nEFU4LNqgOLCLGDml/po4dhBZOBsOojhsLzc5gODvOON0IDkDjK042H3lOBbm8jg2uq449zV2OHai\r\nhTi+eHY45c2NOM5xxThEj6o4gjOGOd4Olzg5yKY4Yw0POZM4jThhQBU4XBfCON8A/DeE1iU4jH9w\r\nOAXsAjn2Ywk4ZxWBOHnewzc1GQQ4oFMxOMSeQjjB9Tc4j3gmOPoetTiSWgg4g9UpOEXYKTgkdq44\r\ni0EOOExZkDha4vk3UJl7OJGFRTgu/GY4beCGN5ii3TdK2Ck4tepmODBhAjiewkQ4gDjRN/GZCDgo\r\n8QE4OcWMN9SwFDiiIcY3pKUkODRqjjd28hU4SpY+OJlA/jeK9184teKuOHrHbDdOjQY4BGnsN26E\r\nizescNo3QuS4NxT8FDitgwU3KjQkOF7q1DdcUYk37qDLNwvEmzck7d83/GbZNwbOxjcUdPs3zQSR\r\nN1Vy4TdFh5I3zMgcOF/YIDdYPiY4Ay2aN/qX5DdhK5o3V/K5N3TR+zdkuo83InLnN49WwTc49eA3\r\nrbToN44DuDdMWbs34uyTNycrmjdG/QA4IEC2N6rkyDeNz8c3CudXN4oJzjdscRI4gwEFN2JhAzjN\r\nbtg3GYSSNzi38DcE3rs3qka5Nxj26TcR5cM371CVNyOixDfPrqQ3KKTMN4PaozdrJLo3omqbN4fg\r\nojcjBqo3FNqaNzwaxjcx7qM33zzPN+1LqDdcKs031N+/N7+irDeyWI83qAemN4+wyDfwUso3QD27\r\nNwSBrTeNP5Q3xUCxNxRxrDfAP4Q3yAirN/pjkjcYto83yXusN6Q8wjcyKZI3612XN+dSsTeUq6o3\r\nEMSnN5q8zTcMvJc3esyJN2YjpjfhqYo3AJmuNw7ysDevaI832gepN8aaijesJL43Zi19NzltsDd5\r\nD7E3NeGGNxKPsjfuYqc3lHCXN6P7nDeFx5w3vIKKNyIQwjcaIa03rlejN8UVwTd74Jo3/OOnN0L5\r\npDfEXoQ354OkN4FapjdCZ6o36AKSNznQgDe98aE3/duQN6hhrzcLbH43h81lN++vrjfeQHY3tBKe\r\nNwvalTewX5Q3rg+RN8UGxjfcYJ43stezN32Fszeujos3ov2GNzhRqTe8Sp03M/qlN7dmwTcbnY03\r\nKzaVNzdUozew9cA3Tt6nN09fjjfnppI3aYGUN5brpjeq76k3g66cN95qtDdc4603i7KbN9DwjTfM\r\nw7g3bAGPN24jlDfaZZ43PLqFNwQ+qDeUMV43eWuQN4KbqzeTk5s354y2N9DmpTfHfKw3tXONN8JB\r\ndjdNcJQ3G92MN4BSfzef05o3ks2LN2kGoTdn0Jc39uCbN4MJoTfP4Ig3B0uLN+hJfTdf9Z03dgOR\r\nN+xnhDdSUZc3aVSTN1jwSzcRDI83T11/NzwcmjcABpg3sSOUN4Ycsjd4PJc3GTGbN6fmlDfmWag3\r\niXGdNxEvZDdW0pU3Dm51N3tKnTfXNos3yFaJN6U9XTcvF3Y3i1V/N52AMTciva03eyajN+Yiizcb\r\nXXE3vc2ON2hphDdunqY3dlV3N6rBpDd7SYA3fgSLNxrqsTcOi5E3xlZnN2b/iDfV/J03H6WPN+K1\r\nWze93Zg3FgiUN4aLhTcHApg3+qh6N52+qTeiRrI3V6OtN+YSljfQlFA388qeN3Z1mjeuUq833U+F\r\nNzB6gDfuZY83gaGaN+nbOjevuqI3Yl6LN8oGgTceiIQ37fdpN2jpnDcYwoM315eJN7G1lDfhS043\r\ni0yVN5dMejcjmow31lmQNzxokjcsS3A3cCueN0+YiDdl3403XzSaNyC5jTdepXk38+lXN2ZYcTfu\r\nJ4o3WFScN0cYmje9PmI3pj+PN9tnsjdXra434cVSN6h5hDeYxoc3uKqdN1RDoTerVX43vFpxNxKF\r\nizcDrTM3NBR/N/NceTeXWYo3UW16NwedizdfjI03c9mTN/mrijdvYGM39BaON68ebzeUO0I3t4Si\r\nN5MOqDfRMaM3rCKPN9W3djc4xoY3OM6DNzVHVzcPdXo3ja1oNy5IhzdsebE3xEiJNwrfnDdGe3E3\r\nDDKGNw1PYzd2aGs3XspvN/QwYzfwMZI3c0WRNzVnazcse6U3plCPNwubgDecFks3h/l6NwGpjjfe\r\nc4E33pSPN77bYzc5eoI3mn2YN/WllDf5GYE3QLmJN7FzkjdejKw3Z42BN3QaqDf0k5Y35ViCN2rw\r\nZzcKBjE3zJ5sN235ejd0VGs3P7JLN/wuhjfxVm83SJJqN/SclTdzQYE3i1SaNzOLizfkWlw3p+eO\r\nN97xmTfymX03j/OPN+egXTfXmG03Nn6AN7BDZzfCFoU3QWOIN/DNgDevppo347aIN6I1YTcqPnQ3\r\nL2SQN9t6QTewq0A31rhLN0DtazfMlZk3aUEtNwZ8njf7nWs3IvtaN1ALOjfuzYQ3L4dQN7ZpZTdP\r\nPIU3w5OQN8ezcjcPc4s3Ji6bN4ihlzc+dIg3OUdnN3yOgTebGTs30ipQN5PPkDdy7lY3OHFlNx+2\r\nQTe4sJk3rtdrNxKZjjefb4Y3OJ9jNyHmOzdI+Xk3TFBmNwv0gTeA9Dg3FyWXN+xCiDeJ7HM3uVFK\r\nNyYaWTeXrok3fdVQNxPPTTdIoaM3BTujN44jgjdy04s3n4Z5N9/3ZzdOW0k3YsV2NwBAUjfZM089\r\nwniNPTXV3j3M1sw9gJSKQMpDFkCC2FJA5e7BQLnZbT+aeyU/AoT1QK3M/EA+NpNAmLyBPyu9CECo\r\nc18/POI5P1FecT9ybRE/KNatPnKUuz1Yoio9hqAnPSh9LT4thDg+xQuUP7M/6D/Oj+I/nVNLP2oX\r\n1T9m8yhAj52jP4n4iD+fvag+FZOWPhSaFD48LEk/KmvAPtx7E0DAGAZB0X5BQNRgVEBr5XZAgpY7\r\nQFYBNUDDawxAWwKwP/VOAT+nh0Q/Qf7CP1rpDj/pEsw+zckKPk6HyT7xuOk/nyRtQHDM20Cx86VA\r\nKTREP+GlZj5Wp2Y9msmRPgDM4z8AkANA7ntIQNmNKT8mOg4+fcxrPSVzFT79T7Q9C0R1PtfzsT7T\r\nWJo+FwSGPkGZmj5xqW9AHlTvPt3LnT6iB2w/KCFdPzVM2T5S6AE+C/W5PoYttD2KwN09/HGSPU9d\r\nnzwq7tI8q13OPLlpjTzOSZE8OM0YPUKXoD2rQiI9doqfPO4RxjwSl888sICvPDz1ujzjc+Y89pE1\r\nPSVGqjwOnIM82pugPCUYMzxp6Y88i99TPNsdHjzrQ0Q8R8WJPMw08DsUP5I8zmZPPHDHyDwFAGY8\r\nzhL4O2KLlTz4zz08DDeQPHrpjjtjn907Sv/PO157ojuEqOA75pP0O+ID0zsO6rQ7+l/mOmUrMjs1\r\nfFM70ywkO7lmVztTXPE7YwslOxTW9zrUKGI734rBO2R77Tvvg4M7gqmqO7oH1ztXYcw7Nqk8O6Xj\r\n8TvHxqA7cDEEO5rK7DsTWI071qLCO2+RGztedog7FNPgO8SB1DuCq6E7LTSWOySaxTskkmQ7hFGX\r\nOyKrlztFq0c7eckFOyi8rTua3RE7m9vEOn6aDzu0RXs7nMSQOw+t8TqpxhM7imkvO1nO4joJfiY7\r\ntplPO+5rLzukdT47R3y9O4jNnDt2yE47hKxkO03EYDv4T1Q7BEsEPLH8mDvUeZM7CJMePAbsijsu\r\nHsg65og3O9xaJTsMJ2A7om8mO22RDTt8aac7ZJ8qO8HJKzuahio7XnPXOo/qHztiWTc7SWSKOj0l\r\nMjs2vtY60X94O4mZxjpKz7g6XiO4OgyeiDpaK+E6H628Oi8geTomE8I6R6aWOnL7bjpAVWY6eHbc\r\nOh7+ojqs0mg6UeIkOsbNgjrv7LA5zgjCOeei8DmXIA06LkD1OaPBiDlsrYU5n5rbOcDX5TkEXGk5\r\nuC5qOY5Ffznso7U5ecM6Od0zNzkM2lM5QENAOex9Fjkzfgc5ZV8GOcAqAjk7FdA4eH/7OMLI+jgV\r\nLCk5jwQiOQhA7zjJtu04Emv/OBKl5jhPLBI5dk3xOLH+ETk+uAI5BFP9OOnaBzl0zuc4g+DFOGpF\r\nAjnNoN44KAHjOL/9Pzk0e8s4FOKwOHLJ9zi4Z8U4JxUIOcp+uDhWJ5k4RKykON+vmzgE6jg5q/GM\r\nOAJQ6jhztCw5L6jUOP1MVjnQLOA4S8RaOW36WTmO6U05tdhWObcHvzgs/+45yOC/OEw2SzmQuTM5\r\nsv3COA8xZTnqAj45fBFLObUZJzlaHxw58KkJOZJkpTnegBE54K0BOWxrCTn/cSM5kOE8OZZuuDlc\r\n6wc5kzRYOQUXjTmAeOI4rgABOhOwRTk2MjI5zgdQORLyKTmu3CI5WmOhORx1RTnLWB85KpM3OZvx\r\nnDjWIHI5+C0fOcLNaDk0muE5INQbOWonnTluRPs5hw9lOfuI0DgsfBs5hCSrONW1WjmsQnc5QuIq\r\nOXNpujkUGyk5mCRROXIM4ji3m7w4AeZaOQMznDmTgZw4GxVtOUnd9zhYsLQ4JD3fOMNmDznoOZs5\r\nppC4ODSu4jgByxk5oHkXOU71ETmUKaU48k0fOWDdDznE4Qs5BJnHOCaRXjgZ7iE5uo8YOZoihjhW\r\nLbw43snwOJsJIjkVTRY5xeTsOCrbsDjdD8k4fCWSOL+eFTo+JNE4fAOKODVJqTgt8b84eAGHOZXD\r\n2jg3XwQ5ASaoOBCKnziF/bk4MEy/OJcPlziClXI4xpS/OGRHgDiC1744dYEqOIygrjgt6aI4iC9+\r\nOLXvDjm8MXo4RKqaON/3jjhM3TU4EkSAOKd6kDi9+YU4xEeMOERBmzgc5P04Wp7JOCJVVzgSFA85\r\nkLb6N5jIBzib0E84vkeoOCJ1hzjcfKE4ap4JOfeyTTggjSg5XLGsOIxB3Dj+mn44uftBOOLSSjir\r\nAg44HjBcOGahFjg03Qs4UO0gOGEbhDjT03o4BUIHOclIaziqSiY4R7mqOIvrOTi5to84RZ0JODng\r\nRTi+/1k4blHBOOVaJTiRtgc4GXtYOAKeOjjNeEg4thkjOAIurzgJIac4cvCGOJ3FbzjaGvc475NP\r\nOQ8trDnEiXQ6SLPJO3WIwDm4OKQ4RUqWOKhb/jhQTi85HNFAOGt6mzgrXdE4bF19OaA1xTeM5ZE4\r\nI+i0OP8QnTgoyJQ46kaTOA4K3zi6BpI4IzdkOPzLLDga27o3IiIKODM6jjhuq5k4ONsyONRuEjjX\r\nVKM492sTOEUrNThF1Jc4nOygOKo60DdQyT84AxIBOFSKjTjIxYY4HP9eOKEdITj5pj84QrlkOGLw\r\nBjlhe1I5mXa/OKxykjjDuY44vIAPOVaz0ThDHns4TlYAOc2yujh6WRM5bFCAOPFu+Dhtxuw4PRLe\r\nOMMu+DgcUJQ5hf51OeX1PDnqUNM4ov4YOZkK+jj59Zc4RpLVOJaCvjigyeQ4MvPPOABFAjm2g7w4\r\nBgqHOJ5rRDhdAXY4wLIPOCgLIjhH1+o3WH2BOIKIvze6/aw3K+VOOIWj2TceXYA4UiIgOAsgYzix\r\nt6A4gAAZOVEPkzjyqnI4bMixOKHqOzmYm+844g0gOfOkwTiql9s4GgYDOUb+tDjWLIE4zriGODd6\r\nhTjH+JI4YWa1OBq7oDgl4Yo5QBOgOO0gpjh5vfU4vOGLOOUZEThMSLo4fdL0N83wLTiaVmc4WAED\r\nOa01ADjW5Vk4pB7bN8DH3DeP5iw4b/g0OMT3NTjCdTw4rO25OFUwDzj55RM4daRBOAIDnzgePyI4\r\nXGSEOKjq/Tf012w4bq4/OGZ+djjulY431xj7N/MVRzgiW1U4lAYGOMz/Ojg/Q9o3mHUUOJBK8De0\r\nyYQ3p2kWOFhRyDeufx845gG8N65m7DcwPkU4lj8ROMeMYTiKQag4vKtjN39PEDgujgc4EBCeN/rQ\r\nxjfaD5s35RgLOD5IDTefnCM4DnzZN2+YojdwkQE4SBG6N0gLzDfrRKY34hCgN/ih4jfKG3c3fwHM\r\nN9LsgDc4bhs4qj4bN5rpITgxI5s38asDOJ+krDeBPbg3G6P0N6cakzeDv+k38BK4N3s/zzfQSNM3\r\nqB6zNxb7zjeIdLI3x36yNxq19zfQTqA31nrCN0lmyzfk31g3gkDFN45xEjiydw03JjEIOM9axzcs\r\nY2M3nnvRN0VwqTcRup03Loq/N9W2sDd+pqM3MP7ZNzQ0mzdOo6s3dU+ON0OirzfFE5g3jdyjN1wJ\r\ntjfwGqU3GkXANzL7nTecYN03q162N+wGyzemabQ36lu1NxKEoTftVac386+wN1mvsjdGz7g35UDB\r\nN1wVrze4Ecg32Yi1N0cviDcdx783uYe1N0xEpje+i6A3eK2hN1CZhDdI96M3TT/DN1zlnjcm7o83\r\nEqTKN7cusje2KaA3ujGmN8DCiDf+ecA30J/LN/iBnDd6C7I3Yt+XN6iCyTcaUnI37ouuN8gwvzdY\r\n2I0376umNz3Kojdz+ro3zrfcN2J6yzeEXpg3bkXFNwZYqDcFSJo3KiC1N8TylDeMuKY3OEKyNy/o\r\noTdIH8037MHANwRpuDfbiaQ3QTSTNy9UpDcoaYU3xwmvN5CBkzeuYoo3c0C9N4wkfDeDi503SRiR\r\nN+JvlTc0dJ834v7cN1iQpTe+HKo35K+kN7c9ezdMP4A3ltyWN6WwgDdc14Q3cFmjN7AWfjf86Is3\r\nDV2VN5LztTdhBqc3kaiLN/HbhjdH6n83k7SWN5UWoje85pY3ZCmtNzy4nTfmeYQ3KAV/N5I0wTfZ\r\n8Js34pKJN00yhTdnv4A3habIN8tdgTd5jIM3OveIN5RGhjcy4Kk3q9yjN3HRrzfwdZQ3xQB7N6e/\r\nlzdtd543aoCZN6uerjfEkZA3gTyfNzWDljc52ZU34WaZN5XYgzfg1JU37MeTNzfitDegt5k3XmR7\r\nN2i3iTc30Jg34Bt2N7mLrTeJQYw3mpKVNzxjmTc6VZ03a3q3N6kXijenBoM39l+EN5rWpzfUlqw3\r\noc2ENzr4qTekI303Dn2MN2RQazeQ6YE35oV3N7rklDdSUJY3+VI9NyqRqjf4ZaU3bjOgN2v8jDet\r\nbJI3hyZqN4HppTerCIw3nAW2N9BPeDeS5Hc3knqfN2z4kjfhDYc3RhSjN1NvsDcSSpk3onVzN8o5\r\nqzenGZA3H99nN7w6kzeR1oQ3YD6RN0n1bDdso4U3jNmiN0tmaDfLRXU338VKN6NQmzd6rpQ3+veM\r\nN0jDlDcrraU3yJk9NyixkDeQDoQ3wRKYNxybnjdVnWU3A5eTNxPFkDcE2Js3PJ6PN6dUODcOap83\r\nNjiUN8Ynkjd5jIM3CRyONzxjeTc8PJc3wKxrN/HTgDds3Zo3/H6RN46ahzcvKH0333eGN3FMgDdJ\r\nwow3OVCqN80OlTeUi543bPiJN1d0hTcbQlc3Zd+cN+AyhzfMBIM3WMyLNxDQczfdwW83mM2TN9CO\r\nWjdmpJU33nKAN72qhjcygIY37liYN2sqjTewrpE38JCVN+mcazdIIH03dRNjN2fuWTc1PqU3ABmH\r\nNzrNgTcSoJU3wRCVN9G9kzeiK4U3jyF3NyzZhzcvpEI3/dE/NzwkjzfULGE3CtppN/JPMzdT3YY3\r\n2MuHNzMmgTf4hmo3PkBlNw0YmTdHkIs30tZMNz33nTdE85o3JZGPN6dNUDcfqGM3tsttN9YKWzf5\r\nQY43QWx6N0M3eTdAcHk3Z0l+N6X4hTcAY5M37vuBNypVijeDIWU3rUOqN5DNkDcmLF435ppaNx23\r\nZzdaE6k3E6maN52DbzfQ8Ew3g6yZN1p2jTcCLXM3FsNwN9y6Nzeml3w39ymKN6y7cTfaZ5U3yYma\r\nN5E3gTchmow31KNJN2S3WzeVvnw3ZrxlN52FZDdil1I3xONFNyIhhDduYn03tFpvN5ggkDcWb6U3\r\n3T1ON3VtTDerjmk3APOEN7CInDegrS43JuarN8saiTeASHo3kcJaN2zVojcabYQ3BFKAN635gDcQ\r\nSYI3L5FNN0/eYTf6GHw30gmDNx+KgzdXX3s34pWON2oLZDfbQWY3T2yhN2OwdDdgp4U3/35nN2sz\r\npTfriFg3nwR7N+FGiDfaeoU3TblFN27wVjdwCUc3SyCJN66lRjdPDYU36o5eN0LKcDfKZXI3eZGC\r\nN2W1mTdHf3g3DwRyNwQBqzdCO6E3wHqBN66gjjeZboE3qfyBN5mqdTceRJY3AACANw==",
                            "noiseTrainingType" : "default"
                          }
                        }
                    ],
                    "start" : 2123,
                    "duration" : 488,
                    "mediaStart" : 1375,
                    "mediaDuration" : 488,
                    "scalar" : 1,
                    "metadata" : {
                      "WinSubProjectDisplayName" : "",
                      "clipSpeedAttribute" : false
                    },
                    "animationTracks" : {

                    }
                  },
                  {
                    "id" : 67,
                    "_type" : "AMFile",
                    "src" : 10,
                    "trackNumber" : 1,
                    "attributes" : {
                      "ident" : "Rec 12-07-16",
                      "sampleRate" : 44100,
                      "bitDepth" : 16,
                      "gain" : 1.0,
                      "mixToMono" : false
                    },
                      "channelNumber" : "0,1",
                    "parameters" : {
                      "volume" : {
                        "type" : "double",
                        "interp" : "linr",
                        "keyframes" : [
                          {
                            "time" : 0,
                            "value" : 0.671328671328669,
                            "duration" : 0
                          }
                        ]
                      }
                    },
                    "effects" : [
                        {
                          "effectName" : "NoiseReduction",
                          "parameters" : {
                            "denoiserAmount" : {
                              "type" : "double",
                              "interp" : "linr",
                              "valueBounds" : {
                                "minValue" : 0.0,
                                "maxValue" : 48.0,
                                "defaultValue" : 20.0
                              },
                              "uiHints" : {
                                "userInterfaceType" : 0,
                                "unitType" : 0
                              },
                              "keyframes" : [
                                {
                                  "time" : 0,
                                  "value" : 20.0,
                                  "duration" : 0
                                }
                              ]
                            },
                            "denoiserThreshold" : {
                              "type" : "double",
                              "interp" : "linr",
                              "valueBounds" : {
                                "minValue" : -20.0,
                                "maxValue" : 20.0,
                                "defaultValue" : 0.0
                              },
                              "uiHints" : {
                                "userInterfaceType" : 0,
                                "unitType" : 0
                              },
                              "keyframes" : [
                                {
                                  "time" : 0,
                                  "value" : 0.0,
                                  "duration" : 0
                                }
                              ]
                            },
                            "noiseProfile" : "xKpQPVcBjj0Y+t49nb7MPXONikBENRZAJdhSQAXewUAIim0/SlglP1OZ9UCj0PxA7kOTQEK3gT//\r\nvQhAcJhfPxPMOT9/DnE/C1wRPwWBrT6/Lbw98HApPVX7Jz15BS4+azY4PncvlD8QWOg/CKjiP4Zw\r\nSz/UD9U/kNkoQFqCoz+cB4k/Xn+oPgfflj5A0BQ+C1dJP74twD4qaxNAlR4GQTJlQUAsXVRAcdZ2\r\nQISQO0Cl8TRAupgMQAj7rz9gSQE/J4hEP1wZwz8Rww4/bv7LPuEgCz5Hmck+JdfpP5IIbUBi19tA\r\nyfelQK8gRD+dQWY++oVnPb5wkT5l0+M/DKcDQBp9SEB/Zyk/wz4OPs4YbD1qIRU+qta0PezbdD5q\r\nZLI+DVWaPuZphj6/apo+KLNvQI027z439Z0+SsxrP3YzXT9dONk+PoYBPmHauT5lHbQ9I3PdPZZT\r\nkT1osp88Qn3SPC95zzxncow8srePPNWaGD2szKA9StIhPVJsoDwNT8Y8rSTQPMkjrzz6+bo8nFXm\r\nPOhqNT242Kk84K2EPCWToDzSXDQ8bJiPPI9yUzx4GCA8BoxEPA2biDxPWvA77RuQPC0IUTxUAMc8\r\nDMBmPED/9js525Q8bVs9PDK6jzw/84w7RWjdOyj7zzv4y6A7g+ndO33U8TvWK9M7bryyO9DI6zqd\r\nvzM7qLpTOztgIzs95VM7a8fyO0K4JztQKvw6qYdkO9jDwTvECfI7jGOCOzC5qTuUAtY7KSnLO1C6\r\nPDv/JPA7d8ehO3krAjvCbuw7ouaKOz6axDvjQxg7rNyHO6Ei3Tt23tQ79MegO/A/mjuic8g7pfdk\r\nO+JiljteHps7wuZEO3j6BjvkhK471eYTO1OMwjr0GBI7IGJ6O7SPkjs0pPI6NIEWO+WNLju6ueA6\r\nmfMkO3RXVDv5lDQ7fO9AO4r3ujv4Fp07q91RO0OdYDsONGA7YG5TO88yAzwJj5c78PCSO6kwHzwR\r\n7Ys7+2vJOowgOTt0aSc7sPNhOzd8JTv3Pg076fWnO3GcKjvv8yk7wkgnO3ul2Tq3ySA737IyOxTR\r\niTrwjDM7ArLSOk/ZeDsQ08Y6rjW0OsxDtzp8GIs61OPfOjs1tDoxEHg67KXDOiw1mDoU2XE6HoZj\r\nOsiY4zrhEao6AuhlOmK6JzprGoA62KqeOVzwzTmik+05STIJOgIDAzpGGHE5XHluOUTV9znI3vg5\r\nrdBaOUAjVTnUHIQ5lfewOdw6JDk4xB457Fw6OWqHNzldshc5FPELOZQDDjkKvgw5ZFD1OH2DEjmi\r\nZgU5BDMhORryETkcHus4UwYMOaeDITl2/AI5JIoMOb9I2jgyGA05j+8GOca5+Di0Gfw490vbOBMv\r\n1DiUHh45FSMJObuR9TiJUSo5UyKoOJBfpTj9/fM4e0+qOMV+1jhmRI04MnKMOAOjvjiHRbI4NtRA\r\nOYTCcDg84+04sKcDObNQ7zgxYn05UhAAOUNSVzmuGUw5951COcsPXDm6g6s4qJDmOXdh2jgypGk5\r\nCPw6OdaH6jjH5VM5RkFLOc/IVznV4xc5cEIkOSDHBjl5Dpc5zL0DOYLn5zjO2tI4WEw1Ob+FMzkU\r\nPac5IvsFOSLzTDkaOI857H72OKjS9jk0yGk5VNcyOSmATTljIiI5zfoUOQO1mTlsKyY5/QgpOVNF\r\nTzk2QqY4moyIOXTAGTk2Lno5453UOdCwKzkZbKo5lb71Oew+ZDkAzO84uLIXOfSCrzg8u105AC92\r\nOey7LDkH/rU5nBknOQFtSzlo1Lo4A5asOEFyWTnwPKE5j42qOHrJezmzG+o4MJbHOCuJ0TjJtSA5\r\nllKeOQbbuzjV7uE4ovAJOab3HzmPARo5UM6pONyrGDkzCho5fhMLOW68wDj/CGs41HwmOREGDjlT\r\njYA4OaWcOC0KATnouTM5xpsIOQMD2zicncw4BxHTOO04njjBjBc6/YXkOB59iTi7tbw4hszOOPKK\r\njDl0T9444PjxOEuHpDgVmpo4uku+OL2QujjRoYU4gjGaOAPJ0zjwy4g4abbbOJ6VVThQQ7c47oWm\r\nOMm1hzikUgo5aRdjOE5ZkjgNcqU4JdpTOAkpkDgIZpI4+qSLOFSiSDgH4Jc4sn70OL+/0DgQr144\r\n44IROeVy8jdRK/c3Lw5ZOLb4sjjOIoY4ZO2jONgMDDkJeU44kNYkOYimnDivUcg4bDd+OPfGPDi5\r\nazo4kmsFOErQWzj4cTQ4OgE3OCCyLTjIHo44sbpyOB0Z/Thqr404rgIrOF5duDiwQCU4X2qgOFgx\r\nFDjOi0I4vyBsOOhrvzit4RM4YVAWOHI2WThsNng43GdFOMenITi4cKw4GimcOE7BgTjVuGQ4mhXq\r\nOE62PzkT9qI5yvdrOthazDs+YsE5NoSrOJhdkDjP2QA5qDoxOdT0Uzim6ac4vnTcOMuvfTlsFfg3\r\nST6GOJcW0Tggia04BemqOGr8mDi4jtM4pbyIOAN/SjjG8yY4zq/CN2v3BjhdTYo4vOedOAQKRTiX\r\nzBY4nquXOAq1CjgMyTs4koafOCc+mzjAvcY360kyOMBE8TdxupQ4ujqVOKD2XzjmJik40qdSOJrK\r\nUTimjgU5ZMBVOY7KxDj8dKs4SKONOKXHETnUZ704QMyDOJ/76zg4b7Y4ZMsiOWJlhDgcIgY5gmDn\r\nOPaK1DjGRgQ5vD2VObB8gDndx0Q5OfHOOHDcFDmD3uc4hBqiOOzz4Ti+QMk4XsXvOAdH2DiATgs5\r\nglHJOC7vgThq3YY4nzGJOCbWCji+JTA4Q6LQNxJ9fDgkkMw3/D+1Nxp2Wji+N+c3d7WKODeGLzgM\r\nEFU4LNqgOLCLGDml/po4dhBZOBsOojhsLzc5gODvOON0IDkDjK042H3lOBbm8jg2uq449zV2OHai\r\nhTi+eHY45c2NOM5xxThEj6o4gjOGOd4Olzg5yKY4Yw0POZM4jThhQBU4XBfCON8A/DeE1iU4jH9w\r\nOAXsAjn2Ywk4ZxWBOHnewzc1GQQ4oFMxOMSeQjjB9Tc4j3gmOPoetTiSWgg4g9UpOEXYKTgkdq44\r\ni0EOOExZkDha4vk3UJl7OJGFRTgu/GY4beCGN5ii3TdK2Ck4tepmODBhAjiewkQ4gDjRN/GZCDgo\r\n8QE4OcWMN9SwFDiiIcY3pKUkODRqjjd28hU4SpY+OJlA/jeK9184teKuOHrHbDdOjQY4BGnsN26E\r\nizescNo3QuS4NxT8FDitgwU3KjQkOF7q1DdcUYk37qDLNwvEmzck7d83/GbZNwbOxjcUdPs3zQSR\r\nN1Vy4TdFh5I3zMgcOF/YIDdYPiY4Ay2aN/qX5DdhK5o3V/K5N3TR+zdkuo83InLnN49WwTc49eA3\r\nrbToN44DuDdMWbs34uyTNycrmjdG/QA4IEC2N6rkyDeNz8c3CudXN4oJzjdscRI4gwEFN2JhAzjN\r\nbtg3GYSSNzi38DcE3rs3qka5Nxj26TcR5cM371CVNyOixDfPrqQ3KKTMN4PaozdrJLo3omqbN4fg\r\nojcjBqo3FNqaNzwaxjcx7qM33zzPN+1LqDdcKs031N+/N7+irDeyWI83qAemN4+wyDfwUso3QD27\r\nNwSBrTeNP5Q3xUCxNxRxrDfAP4Q3yAirN/pjkjcYto83yXusN6Q8wjcyKZI3612XN+dSsTeUq6o3\r\nEMSnN5q8zTcMvJc3esyJN2YjpjfhqYo3AJmuNw7ysDevaI832gepN8aaijesJL43Zi19NzltsDd5\r\nD7E3NeGGNxKPsjfuYqc3lHCXN6P7nDeFx5w3vIKKNyIQwjcaIa03rlejN8UVwTd74Jo3/OOnN0L5\r\npDfEXoQ354OkN4FapjdCZ6o36AKSNznQgDe98aE3/duQN6hhrzcLbH43h81lN++vrjfeQHY3tBKe\r\nNwvalTewX5Q3rg+RN8UGxjfcYJ43stezN32Fszeujos3ov2GNzhRqTe8Sp03M/qlN7dmwTcbnY03\r\nKzaVNzdUozew9cA3Tt6nN09fjjfnppI3aYGUN5brpjeq76k3g66cN95qtDdc4603i7KbN9DwjTfM\r\nw7g3bAGPN24jlDfaZZ43PLqFNwQ+qDeUMV43eWuQN4KbqzeTk5s354y2N9DmpTfHfKw3tXONN8JB\r\ndjdNcJQ3G92MN4BSfzef05o3ks2LN2kGoTdn0Jc39uCbN4MJoTfP4Ig3B0uLN+hJfTdf9Z03dgOR\r\nN+xnhDdSUZc3aVSTN1jwSzcRDI83T11/NzwcmjcABpg3sSOUN4Ycsjd4PJc3GTGbN6fmlDfmWag3\r\niXGdNxEvZDdW0pU3Dm51N3tKnTfXNos3yFaJN6U9XTcvF3Y3i1V/N52AMTciva03eyajN+Yiizcb\r\nXXE3vc2ON2hphDdunqY3dlV3N6rBpDd7SYA3fgSLNxrqsTcOi5E3xlZnN2b/iDfV/J03H6WPN+K1\r\nWze93Zg3FgiUN4aLhTcHApg3+qh6N52+qTeiRrI3V6OtN+YSljfQlFA388qeN3Z1mjeuUq833U+F\r\nNzB6gDfuZY83gaGaN+nbOjevuqI3Yl6LN8oGgTceiIQ37fdpN2jpnDcYwoM315eJN7G1lDfhS043\r\ni0yVN5dMejcjmow31lmQNzxokjcsS3A3cCueN0+YiDdl3403XzSaNyC5jTdepXk38+lXN2ZYcTfu\r\nJ4o3WFScN0cYmje9PmI3pj+PN9tnsjdXra434cVSN6h5hDeYxoc3uKqdN1RDoTerVX43vFpxNxKF\r\nizcDrTM3NBR/N/NceTeXWYo3UW16NwedizdfjI03c9mTN/mrijdvYGM39BaON68ebzeUO0I3t4Si\r\nN5MOqDfRMaM3rCKPN9W3djc4xoY3OM6DNzVHVzcPdXo3ja1oNy5IhzdsebE3xEiJNwrfnDdGe3E3\r\nDDKGNw1PYzd2aGs3XspvN/QwYzfwMZI3c0WRNzVnazcse6U3plCPNwubgDecFks3h/l6NwGpjjfe\r\nc4E33pSPN77bYzc5eoI3mn2YN/WllDf5GYE3QLmJN7FzkjdejKw3Z42BN3QaqDf0k5Y35ViCN2rw\r\nZzcKBjE3zJ5sN235ejd0VGs3P7JLN/wuhjfxVm83SJJqN/SclTdzQYE3i1SaNzOLizfkWlw3p+eO\r\nN97xmTfymX03j/OPN+egXTfXmG03Nn6AN7BDZzfCFoU3QWOIN/DNgDevppo347aIN6I1YTcqPnQ3\r\nL2SQN9t6QTewq0A31rhLN0DtazfMlZk3aUEtNwZ8njf7nWs3IvtaN1ALOjfuzYQ3L4dQN7ZpZTdP\r\nPIU3w5OQN8ezcjcPc4s3Ji6bN4ihlzc+dIg3OUdnN3yOgTebGTs30ipQN5PPkDdy7lY3OHFlNx+2\r\nQTe4sJk3rtdrNxKZjjefb4Y3OJ9jNyHmOzdI+Xk3TFBmNwv0gTeA9Dg3FyWXN+xCiDeJ7HM3uVFK\r\nNyYaWTeXrok3fdVQNxPPTTdIoaM3BTujN44jgjdy04s3n4Z5N9/3ZzdOW0k3YsV2NwBAUjfZM089\r\nwniNPTXV3j3M1sw9gJSKQMpDFkCC2FJA5e7BQLnZbT+aeyU/AoT1QK3M/EA+NpNAmLyBPyu9CECo\r\nc18/POI5P1FecT9ybRE/KNatPnKUuz1Yoio9hqAnPSh9LT4thDg+xQuUP7M/6D/Oj+I/nVNLP2oX\r\n1T9m8yhAj52jP4n4iD+fvag+FZOWPhSaFD48LEk/KmvAPtx7E0DAGAZB0X5BQNRgVEBr5XZAgpY7\r\nQFYBNUDDawxAWwKwP/VOAT+nh0Q/Qf7CP1rpDj/pEsw+zckKPk6HyT7xuOk/nyRtQHDM20Cx86VA\r\nKTREP+GlZj5Wp2Y9msmRPgDM4z8AkANA7ntIQNmNKT8mOg4+fcxrPSVzFT79T7Q9C0R1PtfzsT7T\r\nWJo+FwSGPkGZmj5xqW9AHlTvPt3LnT6iB2w/KCFdPzVM2T5S6AE+C/W5PoYttD2KwN09/HGSPU9d\r\nnzwq7tI8q13OPLlpjTzOSZE8OM0YPUKXoD2rQiI9doqfPO4RxjwSl888sICvPDz1ujzjc+Y89pE1\r\nPSVGqjwOnIM82pugPCUYMzxp6Y88i99TPNsdHjzrQ0Q8R8WJPMw08DsUP5I8zmZPPHDHyDwFAGY8\r\nzhL4O2KLlTz4zz08DDeQPHrpjjtjn907Sv/PO157ojuEqOA75pP0O+ID0zsO6rQ7+l/mOmUrMjs1\r\nfFM70ywkO7lmVztTXPE7YwslOxTW9zrUKGI734rBO2R77Tvvg4M7gqmqO7oH1ztXYcw7Nqk8O6Xj\r\n8TvHxqA7cDEEO5rK7DsTWI071qLCO2+RGztedog7FNPgO8SB1DuCq6E7LTSWOySaxTskkmQ7hFGX\r\nOyKrlztFq0c7eckFOyi8rTua3RE7m9vEOn6aDzu0RXs7nMSQOw+t8TqpxhM7imkvO1nO4joJfiY7\r\ntplPO+5rLzukdT47R3y9O4jNnDt2yE47hKxkO03EYDv4T1Q7BEsEPLH8mDvUeZM7CJMePAbsijsu\r\nHsg65og3O9xaJTsMJ2A7om8mO22RDTt8aac7ZJ8qO8HJKzuahio7XnPXOo/qHztiWTc7SWSKOj0l\r\nMjs2vtY60X94O4mZxjpKz7g6XiO4OgyeiDpaK+E6H628Oi8geTomE8I6R6aWOnL7bjpAVWY6eHbc\r\nOh7+ojqs0mg6UeIkOsbNgjrv7LA5zgjCOeei8DmXIA06LkD1OaPBiDlsrYU5n5rbOcDX5TkEXGk5\r\nuC5qOY5Ffznso7U5ecM6Od0zNzkM2lM5QENAOex9Fjkzfgc5ZV8GOcAqAjk7FdA4eH/7OMLI+jgV\r\nLCk5jwQiOQhA7zjJtu04Emv/OBKl5jhPLBI5dk3xOLH+ETk+uAI5BFP9OOnaBzl0zuc4g+DFOGpF\r\nAjnNoN44KAHjOL/9Pzk0e8s4FOKwOHLJ9zi4Z8U4JxUIOcp+uDhWJ5k4RKykON+vmzgE6jg5q/GM\r\nOAJQ6jhztCw5L6jUOP1MVjnQLOA4S8RaOW36WTmO6U05tdhWObcHvzgs/+45yOC/OEw2SzmQuTM5\r\nsv3COA8xZTnqAj45fBFLObUZJzlaHxw58KkJOZJkpTnegBE54K0BOWxrCTn/cSM5kOE8OZZuuDlc\r\n6wc5kzRYOQUXjTmAeOI4rgABOhOwRTk2MjI5zgdQORLyKTmu3CI5WmOhORx1RTnLWB85KpM3OZvx\r\nnDjWIHI5+C0fOcLNaDk0muE5INQbOWonnTluRPs5hw9lOfuI0DgsfBs5hCSrONW1WjmsQnc5QuIq\r\nOXNpujkUGyk5mCRROXIM4ji3m7w4AeZaOQMznDmTgZw4GxVtOUnd9zhYsLQ4JD3fOMNmDznoOZs5\r\nppC4ODSu4jgByxk5oHkXOU71ETmUKaU48k0fOWDdDznE4Qs5BJnHOCaRXjgZ7iE5uo8YOZoihjhW\r\nLbw43snwOJsJIjkVTRY5xeTsOCrbsDjdD8k4fCWSOL+eFTo+JNE4fAOKODVJqTgt8b84eAGHOZXD\r\n2jg3XwQ5ASaoOBCKnziF/bk4MEy/OJcPlziClXI4xpS/OGRHgDiC1744dYEqOIygrjgt6aI4iC9+\r\nOLXvDjm8MXo4RKqaON/3jjhM3TU4EkSAOKd6kDi9+YU4xEeMOERBmzgc5P04Wp7JOCJVVzgSFA85\r\nkLb6N5jIBzib0E84vkeoOCJ1hzjcfKE4ap4JOfeyTTggjSg5XLGsOIxB3Dj+mn44uftBOOLSSjir\r\nAg44HjBcOGahFjg03Qs4UO0gOGEbhDjT03o4BUIHOclIaziqSiY4R7mqOIvrOTi5to84RZ0JODng\r\nRTi+/1k4blHBOOVaJTiRtgc4GXtYOAKeOjjNeEg4thkjOAIurzgJIac4cvCGOJ3FbzjaGvc475NP\r\nOQ8trDnEiXQ6SLPJO3WIwDm4OKQ4RUqWOKhb/jhQTi85HNFAOGt6mzgrXdE4bF19OaA1xTeM5ZE4\r\nI+i0OP8QnTgoyJQ46kaTOA4K3zi6BpI4IzdkOPzLLDga27o3IiIKODM6jjhuq5k4ONsyONRuEjjX\r\nVKM492sTOEUrNThF1Jc4nOygOKo60DdQyT84AxIBOFSKjTjIxYY4HP9eOKEdITj5pj84QrlkOGLw\r\nBjlhe1I5mXa/OKxykjjDuY44vIAPOVaz0ThDHns4TlYAOc2yujh6WRM5bFCAOPFu+Dhtxuw4PRLe\r\nOMMu+DgcUJQ5hf51OeX1PDnqUNM4ov4YOZkK+jj59Zc4RpLVOJaCvjigyeQ4MvPPOABFAjm2g7w4\r\nBgqHOJ5rRDhdAXY4wLIPOCgLIjhH1+o3WH2BOIKIvze6/aw3K+VOOIWj2TceXYA4UiIgOAsgYzix\r\nt6A4gAAZOVEPkzjyqnI4bMixOKHqOzmYm+844g0gOfOkwTiql9s4GgYDOUb+tDjWLIE4zriGODd6\r\nhTjH+JI4YWa1OBq7oDgl4Yo5QBOgOO0gpjh5vfU4vOGLOOUZEThMSLo4fdL0N83wLTiaVmc4WAED\r\nOa01ADjW5Vk4pB7bN8DH3DeP5iw4b/g0OMT3NTjCdTw4rO25OFUwDzj55RM4daRBOAIDnzgePyI4\r\nXGSEOKjq/Tf012w4bq4/OGZ+djjulY431xj7N/MVRzgiW1U4lAYGOMz/Ojg/Q9o3mHUUOJBK8De0\r\nyYQ3p2kWOFhRyDeufx845gG8N65m7DcwPkU4lj8ROMeMYTiKQag4vKtjN39PEDgujgc4EBCeN/rQ\r\nxjfaD5s35RgLOD5IDTefnCM4DnzZN2+YojdwkQE4SBG6N0gLzDfrRKY34hCgN/ih4jfKG3c3fwHM\r\nN9LsgDc4bhs4qj4bN5rpITgxI5s38asDOJ+krDeBPbg3G6P0N6cakzeDv+k38BK4N3s/zzfQSNM3\r\nqB6zNxb7zjeIdLI3x36yNxq19zfQTqA31nrCN0lmyzfk31g3gkDFN45xEjiydw03JjEIOM9axzcs\r\nY2M3nnvRN0VwqTcRup03Loq/N9W2sDd+pqM3MP7ZNzQ0mzdOo6s3dU+ON0OirzfFE5g3jdyjN1wJ\r\ntjfwGqU3GkXANzL7nTecYN03q162N+wGyzemabQ36lu1NxKEoTftVac386+wN1mvsjdGz7g35UDB\r\nN1wVrze4Ecg32Yi1N0cviDcdx783uYe1N0xEpje+i6A3eK2hN1CZhDdI96M3TT/DN1zlnjcm7o83\r\nEqTKN7cusje2KaA3ujGmN8DCiDf+ecA30J/LN/iBnDd6C7I3Yt+XN6iCyTcaUnI37ouuN8gwvzdY\r\n2I0376umNz3Kojdz+ro3zrfcN2J6yzeEXpg3bkXFNwZYqDcFSJo3KiC1N8TylDeMuKY3OEKyNy/o\r\noTdIH8037MHANwRpuDfbiaQ3QTSTNy9UpDcoaYU3xwmvN5CBkzeuYoo3c0C9N4wkfDeDi503SRiR\r\nN+JvlTc0dJ834v7cN1iQpTe+HKo35K+kN7c9ezdMP4A3ltyWN6WwgDdc14Q3cFmjN7AWfjf86Is3\r\nDV2VN5LztTdhBqc3kaiLN/HbhjdH6n83k7SWN5UWoje85pY3ZCmtNzy4nTfmeYQ3KAV/N5I0wTfZ\r\n8Js34pKJN00yhTdnv4A3habIN8tdgTd5jIM3OveIN5RGhjcy4Kk3q9yjN3HRrzfwdZQ3xQB7N6e/\r\nlzdtd543aoCZN6uerjfEkZA3gTyfNzWDljc52ZU34WaZN5XYgzfg1JU37MeTNzfitDegt5k3XmR7\r\nN2i3iTc30Jg34Bt2N7mLrTeJQYw3mpKVNzxjmTc6VZ03a3q3N6kXijenBoM39l+EN5rWpzfUlqw3\r\noc2ENzr4qTekI303Dn2MN2RQazeQ6YE35oV3N7rklDdSUJY3+VI9NyqRqjf4ZaU3bjOgN2v8jDet\r\nbJI3hyZqN4HppTerCIw3nAW2N9BPeDeS5Hc3knqfN2z4kjfhDYc3RhSjN1NvsDcSSpk3onVzN8o5\r\nqzenGZA3H99nN7w6kzeR1oQ3YD6RN0n1bDdso4U3jNmiN0tmaDfLRXU338VKN6NQmzd6rpQ3+veM\r\nN0jDlDcrraU3yJk9NyixkDeQDoQ3wRKYNxybnjdVnWU3A5eTNxPFkDcE2Js3PJ6PN6dUODcOap83\r\nNjiUN8Ynkjd5jIM3CRyONzxjeTc8PJc3wKxrN/HTgDds3Zo3/H6RN46ahzcvKH0333eGN3FMgDdJ\r\nwow3OVCqN80OlTeUi543bPiJN1d0hTcbQlc3Zd+cN+AyhzfMBIM3WMyLNxDQczfdwW83mM2TN9CO\r\nWjdmpJU33nKAN72qhjcygIY37liYN2sqjTewrpE38JCVN+mcazdIIH03dRNjN2fuWTc1PqU3ABmH\r\nNzrNgTcSoJU3wRCVN9G9kzeiK4U3jyF3NyzZhzcvpEI3/dE/NzwkjzfULGE3CtppN/JPMzdT3YY3\r\n2MuHNzMmgTf4hmo3PkBlNw0YmTdHkIs30tZMNz33nTdE85o3JZGPN6dNUDcfqGM3tsttN9YKWzf5\r\nQY43QWx6N0M3eTdAcHk3Z0l+N6X4hTcAY5M37vuBNypVijeDIWU3rUOqN5DNkDcmLF435ppaNx23\r\nZzdaE6k3E6maN52DbzfQ8Ew3g6yZN1p2jTcCLXM3FsNwN9y6Nzeml3w39ymKN6y7cTfaZ5U3yYma\r\nN5E3gTchmow31KNJN2S3WzeVvnw3ZrxlN52FZDdil1I3xONFNyIhhDduYn03tFpvN5ggkDcWb6U3\r\n3T1ON3VtTDerjmk3APOEN7CInDegrS43JuarN8saiTeASHo3kcJaN2zVojcabYQ3BFKAN635gDcQ\r\nSYI3L5FNN0/eYTf6GHw30gmDNx+KgzdXX3s34pWON2oLZDfbQWY3T2yhN2OwdDdgp4U3/35nN2sz\r\npTfriFg3nwR7N+FGiDfaeoU3TblFN27wVjdwCUc3SyCJN66lRjdPDYU36o5eN0LKcDfKZXI3eZGC\r\nN2W1mTdHf3g3DwRyNwQBqzdCO6E3wHqBN66gjjeZboE3qfyBN5mqdTceRJY3AACANw==",
                            "noiseTrainingType" : "default"
                          }
                        }
                    ],
                    "start" : 2611,
                    "duration" : 544,
                    "mediaStart" : 2147,
                    "mediaDuration" : 544,
                    "scalar" : 1,
                    "metadata" : {
                      "WinSubProjectDisplayName" : "",
                      "clipSpeedAttribute" : false
                    },
                    "animationTracks" : {

                    }
                  },
                  {
                    "id" : 68,
                    "_type" : "AMFile",
                    "src" : 11,
                    "trackNumber" : 1,
                    "attributes" : {
                      "ident" : "Rec 12-07-16 1",
                      "sampleRate" : 44100,
                      "bitDepth" : 16,
                      "gain" : 1.0,
                      "mixToMono" : false
                    },
                      "channelNumber" : "0,1",
                    "parameters" : {
                      "volume" : {
                        "type" : "double",
                        "interp" : "linr",
                        "keyframes" : [
                          {
                            "time" : 0,
                            "value" : 0.703296703296701,
                            "duration" : 0
                          }
                        ]
                      }
                    },
                    "effects" : [

                    ],
                    "start" : 3155,
                    "duration" : 222,
                    "mediaStart" : 39,
                    "mediaDuration" : 222,
                    "scalar" : 1,
                    "metadata" : {
                      "WinSubProjectDisplayName" : "",
                      "clipSpeedAttribute" : false
                    },
                    "animationTracks" : {

                    }
                  },
                  {
                    "id" : 69,
                    "_type" : "AMFile",
                    "src" : 11,
                    "trackNumber" : 1,
                    "attributes" : {
                      "ident" : "Rec 12-07-16 1",
                      "sampleRate" : 44100,
                      "bitDepth" : 16,
                      "gain" : 1.0,
                      "mixToMono" : false
                    },
                      "channelNumber" : "0,1",
                    "parameters" : {
                      "volume" : {
                        "type" : "double",
                        "interp" : "linr",
                        "keyframes" : [
                          {
                            "time" : 0,
                            "value" : 0.703296703296701,
                            "duration" : 0
                          }
                        ]
                      }
                    },
                    "effects" : [

                    ],
                    "start" : 3377,
                    "duration" : 847,
                    "mediaStart" : 303,
                    "mediaDuration" : 847,
                    "scalar" : 1,
                    "metadata" : {
                      "WinSubProjectDisplayName" : "",
                      "clipSpeedAttribute" : false
                    },
                    "animationTracks" : {

                    }
                  },
                  {
                    "id" : 70,
                    "_type" : "AMFile",
                    "src" : 11,
                    "trackNumber" : 1,
                    "attributes" : {
                      "ident" : "Rec 12-07-16 1",
                      "sampleRate" : 44100,
                      "bitDepth" : 16,
                      "gain" : 1.0,
                      "mixToMono" : false
                    },
                      "channelNumber" : "0,1",
                    "parameters" : {
                      "volume" : {
                        "type" : "double",
                        "interp" : "linr",
                        "keyframes" : [
                          {
                            "time" : 0,
                            "value" : 0.703296703296701,
                            "duration" : 0
                          }
                        ]
                      }
                    },
                    "effects" : [

                    ],
                    "start" : 4224,
                    "duration" : 667,
                    "mediaStart" : 1284,
                    "mediaDuration" : 667,
                    "scalar" : 1,
                    "metadata" : {
                      "WinSubProjectDisplayName" : "",
                      "clipSpeedAttribute" : false
                    },
                    "animationTracks" : {

                    }
                  },
                  {
                    "id" : 71,
                    "_type" : "AMFile",
                    "src" : 11,
                    "trackNumber" : 1,
                    "attributes" : {
                      "ident" : "Rec 12-07-16 1",
                      "sampleRate" : 44100,
                      "bitDepth" : 16,
                      "gain" : 1.0,
                      "mixToMono" : false
                    },
                      "channelNumber" : "0,1",
                    "parameters" : {
                      "volume" : {
                        "type" : "double",
                        "interp" : "linr",
                        "keyframes" : [
                          {
                            "time" : 0,
                            "value" : 0.703296703296701,
                            "duration" : 0
                          }
                        ]
                      }
                    },
                    "effects" : [

                    ],
                    "start" : 4891,
                    "duration" : 692,
                    "mediaStart" : 2111,
                    "mediaDuration" : 692,
                    "scalar" : 1,
                    "metadata" : {
                      "WinSubProjectDisplayName" : "",
                      "clipSpeedAttribute" : false
                    },
                    "animationTracks" : {

                    }
                  },
                  {
                    "id" : 72,
                    "_type" : "AMFile",
                    "src" : 12,
                    "trackNumber" : 1,
                    "attributes" : {
                      "ident" : "Rec 12-07-16 2",
                      "sampleRate" : 44100,
                      "bitDepth" : 16,
                      "gain" : 1.0,
                      "mixToMono" : false
                    },
                      "channelNumber" : "0,1",
                    "parameters" : {
                      "volume" : {
                        "type" : "double",
                        "interp" : "linr",
                        "keyframes" : [
                          {
                            "time" : 0,
                            "value" : 0.615384615384615,
                            "duration" : 0
                          }
                        ]
                      }
                    },
                    "effects" : [

                    ],
                    "start" : 5583,
                    "duration" : 1925,
                    "mediaStart" : 29,
                    "mediaDuration" : 1925,
                    "scalar" : 1,
                    "metadata" : {
                      "WinSubProjectDisplayName" : "",
                      "clipSpeedAttribute" : false
                    },
                    "animationTracks" : {

                    }
                  },
                  {
                    "id" : 73,
                    "_type" : "AMFile",
                    "src" : 13,
                    "trackNumber" : 1,
                    "attributes" : {
                      "ident" : "Rec 12-07-16 3",
                      "sampleRate" : 44100,
                      "bitDepth" : 16,
                      "gain" : 1.0,
                      "mixToMono" : false
                    },
                      "channelNumber" : "0,1",
                    "parameters" : {
                      "volume" : {
                        "type" : "double",
                        "interp" : "linr",
                        "keyframes" : [
                          {
                            "time" : 0,
                            "value" : 0.747252747252745,
                            "duration" : 0
                          }
                        ]
                      }
                    },
                    "effects" : [

                    ],
                    "start" : 7508,
                    "duration" : 488,
                    "mediaStart" : 33,
                    "mediaDuration" : 488,
                    "scalar" : 1,
                    "metadata" : {
                      "WinSubProjectDisplayName" : "",
                      "clipSpeedAttribute" : false
                    },
                    "animationTracks" : {

                    }
                  },
                  {
                    "id" : 74,
                    "_type" : "AMFile",
                    "src" : 14,
                    "trackNumber" : 1,
                    "attributes" : {
                      "ident" : "Rec 12-07-16 4",
                      "sampleRate" : 44100,
                      "bitDepth" : 16,
                      "gain" : 1.0,
                      "mixToMono" : false
                    },
                      "channelNumber" : "0,1",
                    "effects" : [

                    ],
                    "start" : 7996,
                    "duration" : 1487,
                    "mediaStart" : 0,
                    "mediaDuration" : 1487,
                    "scalar" : 1,
                    "metadata" : {
                      "WinSubProjectDisplayName" : "",
                      "clipSpeedAttribute" : false
                    },
                    "animationTracks" : {

                    }
                  },
                  {
                    "id" : 75,
                    "_type" : "AMFile",
                    "src" : 15,
                    "trackNumber" : 1,
                    "attributes" : {
                      "ident" : "Rec 12-07-16 5",
                      "sampleRate" : 44100,
                      "bitDepth" : 16,
                      "gain" : 1.0,
                      "mixToMono" : false
                    },
                      "channelNumber" : "0,1",
                    "parameters" : {
                      "volume" : {
                        "type" : "double",
                        "interp" : "linr",
                        "keyframes" : [
                          {
                            "time" : 0,
                            "value" : 0.659340659340656,
                            "duration" : 0
                          }
                        ]
                      }
                    },
                    "effects" : [

                    ],
                    "start" : 9483,
                    "duration" : 3688,
                    "mediaStart" : 0,
                    "mediaDuration" : 3688,
                    "scalar" : 1,
                    "metadata" : {
                      "WinSubProjectDisplayName" : "",
                      "clipSpeedAttribute" : false
                    },
                    "animationTracks" : {

                    }
                  },
                  {
                    "id" : 76,
                    "_type" : "AMFile",
                    "src" : 15,
                    "trackNumber" : 1,
                    "attributes" : {
                      "ident" : "Rec 12-07-16 5",
                      "sampleRate" : 44100,
                      "bitDepth" : 16,
                      "gain" : 1.0,
                      "mixToMono" : false
                    },
                      "channelNumber" : "0,1",
                    "parameters" : {
                      "volume" : {
                        "type" : "double",
                        "interp" : "linr",
                        "keyframes" : [
                          {
                            "time" : 0,
                            "value" : 0.659340659340656,
                            "duration" : 0
                          }
                        ]
                      }
                    },
                    "effects" : [

                    ],
                    "start" : 13171,
                    "duration" : 2898,
                    "mediaStart" : 3892,
                    "mediaDuration" : 2898,
                    "scalar" : 1,
                    "metadata" : {
                      "WinSubProjectDisplayName" : "",
                      "clipSpeedAttribute" : false
                    },
                    "animationTracks" : {

                    }
                  },
                  {
                    "id" : 77,
                    "_type" : "AMFile",
                    "src" : 15,
                    "trackNumber" : 1,
                    "attributes" : {
                      "ident" : "Rec 12-07-16 5",
                      "sampleRate" : 44100,
                      "bitDepth" : 16,
                      "gain" : 1.0,
                      "mixToMono" : false
                    },
                      "channelNumber" : "0,1",
                    "parameters" : {
                      "volume" : {
                        "type" : "double",
                        "interp" : "linr",
                        "keyframes" : [
                          {
                            "time" : 0,
                            "value" : 0.659340659340656,
                            "duration" : 0
                          }
                        ]
                      }
                    },
                    "effects" : [

                    ],
                    "start" : 16209,
                    "duration" : 1,
                    "mediaStart" : 6930,
                    "mediaDuration" : 1,
                    "scalar" : 1,
                    "metadata" : {
                      "WinSubProjectDisplayName" : "",
                      "clipSpeedAttribute" : false
                    },
                    "animationTracks" : {

                    }
                  }
                ]
              },
              {
                "trackIndex" : 2,
                "medias" : [
                  {
                    "id" : 78,
                    "_type" : "UnifiedMedia",
                    "video" : 
                        {
                          "id" : 79,
                          "_type" : "ScreenVMFile",
                          "src" : 16,
                          "trackNumber" : 0,
                          "attributes" : {
                            "ident" : "Rec 12-07-16 6"
                          },
                          "parameters" : {
                            "scale0" : {
                              "type" : "double",
                              "defaultValue" : 0.364583333333333,
                              "interp" : "eioe"
                            },
                            "scale1" : {
                              "type" : "double",
                              "defaultValue" : 0.364583333333333,
                              "interp" : "eioe"
                            },
                            "sourceCrop0" : {
                              "type" : "double",
                              "defaultValue" : 0.0,
                              "interp" : "linr"
                            },
                            "sourceCrop1" : {
                              "type" : "double",
                              "defaultValue" : 0.0,
                              "interp" : "linr"
                            },
                            "sourceCrop2" : {
                              "type" : "double",
                              "defaultValue" : 0.0,
                              "interp" : "linr"
                            },
                            "sourceCrop3" : {
                              "type" : "double",
                              "defaultValue" : 0.0,
                              "interp" : "linr"
                            },
                            "geometryCrop0" : {
                              "type" : "double",
                              "defaultValue" : 0.0,
                              "interp" : "linr"
                            },
                            "geometryCrop1" : {
                              "type" : "double",
                              "defaultValue" : 0.0,
                              "interp" : "linr"
                            },
                            "geometryCrop2" : {
                              "type" : "double",
                              "defaultValue" : 0.0,
                              "interp" : "linr"
                            },
                            "geometryCrop3" : {
                              "type" : "double",
                              "defaultValue" : 0.0,
                              "interp" : "linr"
                            },
                            "opacity" : {
                              "type" : "double",
                              "defaultValue" : 1.0,
                              "interp" : "linr"
                            },
                            "cursorScale" : {
                              "type" : "double",
                              "defaultValue" : 1.0,
                              "interp" : "linr"
                            },
                            "cursorOpacity" : {
                              "type" : "double",
                              "defaultValue" : 1.0,
                              "interp" : "linr"
                            }
                          },
                          "effects" : [

                          ],
                          "start" : 16069,
                          "duration" : 984,
                          "mediaStart" : 0,
                          "mediaDuration" : 984,
                          "scalar" : 1,
                          "animationTracks" : {

                          }
                        },
                    "audio" : 
                        {
                          "id" : 80,
                          "_type" : "AMFile",
                          "src" : 16,
                          "trackNumber" : 2,
                          "attributes" : {
                            "ident" : "",
                            "sampleRate" : 44100,
                            "bitDepth" : 16,
                            "gain" : 1.0,
                            "mixToMono" : false
                          },
                            "channelNumber" : "0,1",
                          "parameters" : {
                            "volume" : {
                              "type" : "double",
                              "interp" : "linr",
                              "keyframes" : [
                                {
                                  "time" : 0,
                                  "value" : 0.659340659340656,
                                  "duration" : 0
                                }
                              ]
                            }
                          },
                          "effects" : [

                          ],
                          "start" : 16069,
                          "duration" : 984,
                          "mediaStart" : 0,
                          "mediaDuration" : 984,
                          "scalar" : 1,
                          "animationTracks" : {

                          }
                        }
,
                    "start" : 16069,
                    "duration" : 984,
                    "mediaStart" : 0,
                    "mediaDuration" : 2349,
                    "scalar" : 1,
                    "metadata" : {
                      "AutoAppliedSmartFocus" : "False",
                      "WinSubProjectDisplayName" : "",
                      "clipSpeedAttribute" : false
                    }
                  },
                  {
                    "id" : 81,
                    "_type" : "UnifiedMedia",
                    "video" : 
                        {
                          "id" : 82,
                          "_type" : "ScreenVMFile",
                          "src" : 16,
                          "trackNumber" : 0,
                          "attributes" : {
                            "ident" : "Rec 12-07-16 6"
                          },
                          "parameters" : {
                            "scale0" : {
                              "type" : "double",
                              "defaultValue" : 0.364583333333333,
                              "interp" : "eioe"
                            },
                            "scale1" : {
                              "type" : "double",
                              "defaultValue" : 0.364583333333333,
                              "interp" : "eioe"
                            },
                            "sourceCrop0" : {
                              "type" : "double",
                              "defaultValue" : 0.0,
                              "interp" : "linr"
                            },
                            "sourceCrop1" : {
                              "type" : "double",
                              "defaultValue" : 0.0,
                              "interp" : "linr"
                            },
                            "sourceCrop2" : {
                              "type" : "double",
                              "defaultValue" : 0.0,
                              "interp" : "linr"
                            },
                            "sourceCrop3" : {
                              "type" : "double",
                              "defaultValue" : 0.0,
                              "interp" : "linr"
                            },
                            "geometryCrop0" : {
                              "type" : "double",
                              "defaultValue" : 0.0,
                              "interp" : "linr"
                            },
                            "geometryCrop1" : {
                              "type" : "double",
                              "defaultValue" : 0.0,
                              "interp" : "linr"
                            },
                            "geometryCrop2" : {
                              "type" : "double",
                              "defaultValue" : 0.0,
                              "interp" : "linr"
                            },
                            "geometryCrop3" : {
                              "type" : "double",
                              "defaultValue" : 0.0,
                              "interp" : "linr"
                            },
                            "opacity" : {
                              "type" : "double",
                              "defaultValue" : 1.0,
                              "interp" : "linr"
                            },
                            "cursorScale" : {
                              "type" : "double",
                              "defaultValue" : 1.0,
                              "interp" : "linr"
                            },
                            "cursorOpacity" : {
                              "type" : "double",
                              "defaultValue" : 1.0,
                              "interp" : "linr"
                            }
                          },
                          "effects" : [

                          ],
                          "start" : 17053,
                          "duration" : 1068,
                          "mediaStart" : 1130,
                          "mediaDuration" : 1068,
                          "scalar" : 1,
                          "animationTracks" : {

                          }
                        },
                    "audio" : 
                        {
                          "id" : 83,
                          "_type" : "AMFile",
                          "src" : 16,
                          "trackNumber" : 2,
                          "attributes" : {
                            "ident" : "",
                            "sampleRate" : 44100,
                            "bitDepth" : 16,
                            "gain" : 1.0,
                            "mixToMono" : false
                          },
                            "channelNumber" : "0,1",
                          "parameters" : {
                            "volume" : {
                              "type" : "double",
                              "interp" : "linr",
                              "keyframes" : [
                                {
                                  "time" : 0,
                                  "value" : 0.659340659340656,
                                  "duration" : 0
                                }
                              ]
                            }
                          },
                          "effects" : [

                          ],
                          "start" : 17053,
                          "duration" : 1068,
                          "mediaStart" : 1130,
                          "mediaDuration" : 1068,
                          "scalar" : 1,
                          "animationTracks" : {

                          }
                        }
,
                    "start" : 17053,
                    "duration" : 1068,
                    "mediaStart" : 0,
                    "mediaDuration" : 2349,
                    "scalar" : 1,
                    "metadata" : {
                      "AutoAppliedSmartFocus" : "False",
                      "WinSubProjectDisplayName" : "",
                      "clipSpeedAttribute" : false
                    }
                  },
                  {
                    "id" : 84,
                    "_type" : "UnifiedMedia",
                    "video" : 
                        {
                          "id" : 85,
                          "_type" : "ScreenVMFile",
                          "src" : 17,
                          "trackNumber" : 0,
                          "attributes" : {
                            "ident" : "Rec 12-07-16 7"
                          },
                          "parameters" : {
                            "scale0" : {
                              "type" : "double",
                              "defaultValue" : 0.364583333333333,
                              "interp" : "eioe"
                            },
                            "scale1" : {
                              "type" : "double",
                              "defaultValue" : 0.364583333333333,
                              "interp" : "eioe"
                            },
                            "sourceCrop0" : {
                              "type" : "double",
                              "defaultValue" : 0.0,
                              "interp" : "linr"
                            },
                            "sourceCrop1" : {
                              "type" : "double",
                              "defaultValue" : 0.0,
                              "interp" : "linr"
                            },
                            "sourceCrop2" : {
                              "type" : "double",
                              "defaultValue" : 0.0,
                              "interp" : "linr"
                            },
                            "sourceCrop3" : {
                              "type" : "double",
                              "defaultValue" : 0.0,
                              "interp" : "linr"
                            },
                            "geometryCrop0" : {
                              "type" : "double",
                              "defaultValue" : 0.0,
                              "interp" : "linr"
                            },
                            "geometryCrop1" : {
                              "type" : "double",
                              "defaultValue" : 0.0,
                              "interp" : "linr"
                            },
                            "geometryCrop2" : {
                              "type" : "double",
                              "defaultValue" : 0.0,
                              "interp" : "linr"
                            },
                            "geometryCrop3" : {
                              "type" : "double",
                              "defaultValue" : 0.0,
                              "interp" : "linr"
                            },
                            "opacity" : {
                              "type" : "double",
                              "defaultValue" : 1.0,
                              "interp" : "linr"
                            },
                            "cursorScale" : {
                              "type" : "double",
                              "defaultValue" : 1.0,
                              "interp" : "linr"
                            },
                            "cursorOpacity" : {
                              "type" : "double",
                              "defaultValue" : 1.0,
                              "interp" : "linr"
                            }
                          },
                          "effects" : [

                          ],
                          "start" : 18121,
                          "duration" : 1125,
                          "mediaStart" : 0,
                          "mediaDuration" : 1125,
                          "scalar" : 1,
                          "animationTracks" : {

                          }
                        },
                    "audio" : 
                        {
                          "id" : 86,
                          "_type" : "AMFile",
                          "src" : 17,
                          "trackNumber" : 2,
                          "attributes" : {
                            "ident" : "",
                            "sampleRate" : 44100,
                            "bitDepth" : 16,
                            "gain" : 1.0,
                            "mixToMono" : false
                          },
                            "channelNumber" : "0,1",
                          "effects" : [

                          ],
                          "start" : 18121,
                          "duration" : 1125,
                          "mediaStart" : 0,
                          "mediaDuration" : 1125,
                          "scalar" : 1,
                          "animationTracks" : {

                          }
                        }
,
                    "start" : 18121,
                    "duration" : 1125,
                    "mediaStart" : 0,
                    "mediaDuration" : 2807,
                    "scalar" : 1,
                    "metadata" : {
                      "AutoAppliedSmartFocus" : "False",
                      "WinSubProjectDisplayName" : "",
                      "clipSpeedAttribute" : false
                    }
                  },
                  {
                    "id" : 87,
                    "_type" : "UnifiedMedia",
                    "video" : 
                        {
                          "id" : 88,
                          "_type" : "ScreenVMFile",
                          "src" : 17,
                          "trackNumber" : 0,
                          "attributes" : {
                            "ident" : "Rec 12-07-16 7"
                          },
                          "parameters" : {
                            "scale0" : {
                              "type" : "double",
                              "defaultValue" : 0.364583333333333,
                              "interp" : "eioe"
                            },
                            "scale1" : {
                              "type" : "double",
                              "defaultValue" : 0.364583333333333,
                              "interp" : "eioe"
                            },
                            "sourceCrop0" : {
                              "type" : "double",
                              "defaultValue" : 0.0,
                              "interp" : "linr"
                            },
                            "sourceCrop1" : {
                              "type" : "double",
                              "defaultValue" : 0.0,
                              "interp" : "linr"
                            },
                            "sourceCrop2" : {
                              "type" : "double",
                              "defaultValue" : 0.0,
                              "interp" : "linr"
                            },
                            "sourceCrop3" : {
                              "type" : "double",
                              "defaultValue" : 0.0,
                              "interp" : "linr"
                            },
                            "geometryCrop0" : {
                              "type" : "double",
                              "defaultValue" : 0.0,
                              "interp" : "linr"
                            },
                            "geometryCrop1" : {
                              "type" : "double",
                              "defaultValue" : 0.0,
                              "interp" : "linr"
                            },
                            "geometryCrop2" : {
                              "type" : "double",
                              "defaultValue" : 0.0,
                              "interp" : "linr"
                            },
                            "geometryCrop3" : {
                              "type" : "double",
                              "defaultValue" : 0.0,
                              "interp" : "linr"
                            },
                            "opacity" : {
                              "type" : "double",
                              "defaultValue" : 1.0,
                              "interp" : "linr"
                            },
                            "cursorScale" : {
                              "type" : "double",
                              "defaultValue" : 1.0,
                              "interp" : "linr"
                            },
                            "cursorOpacity" : {
                              "type" : "double",
                              "defaultValue" : 1.0,
                              "interp" : "linr"
                            }
                          },
                          "effects" : [

                          ],
                          "start" : 19246,
                          "duration" : 630,
                          "mediaStart" : 1459,
                          "mediaDuration" : 630,
                          "scalar" : 1,
                          "animationTracks" : {

                          }
                        },
                    "audio" : 
                        {
                          "id" : 89,
                          "_type" : "AMFile",
                          "src" : 17,
                          "trackNumber" : 2,
                          "attributes" : {
                            "ident" : "",
                            "sampleRate" : 44100,
                            "bitDepth" : 16,
                            "gain" : 1.0,
                            "mixToMono" : false
                          },
                            "channelNumber" : "0,1",
                          "effects" : [

                          ],
                          "start" : 19246,
                          "duration" : 630,
                          "mediaStart" : 1459,
                          "mediaDuration" : 630,
                          "scalar" : 1,
                          "animationTracks" : {

                          }
                        }
,
                    "start" : 19246,
                    "duration" : 630,
                    "mediaStart" : 0,
                    "mediaDuration" : 2807,
                    "scalar" : 1,
                    "metadata" : {
                      "AutoAppliedSmartFocus" : "False",
                      "WinSubProjectDisplayName" : "",
                      "clipSpeedAttribute" : false
                    }
                  },
                  {
                    "id" : 90,
                    "_type" : "UnifiedMedia",
                    "video" : 
                        {
                          "id" : 91,
                          "_type" : "ScreenVMFile",
                          "src" : 18,
                          "trackNumber" : 0,
                          "attributes" : {
                            "ident" : "Rec 12-07-16 8"
                          },
                          "parameters" : {
                            "scale0" : {
                              "type" : "double",
                              "defaultValue" : 0.364583333333333,
                              "interp" : "eioe"
                            },
                            "scale1" : {
                              "type" : "double",
                              "defaultValue" : 0.364583333333333,
                              "interp" : "eioe"
                            },
                            "sourceCrop0" : {
                              "type" : "double",
                              "defaultValue" : 0.0,
                              "interp" : "linr"
                            },
                            "sourceCrop1" : {
                              "type" : "double",
                              "defaultValue" : 0.0,
                              "interp" : "linr"
                            },
                            "sourceCrop2" : {
                              "type" : "double",
                              "defaultValue" : 0.0,
                              "interp" : "linr"
                            },
                            "sourceCrop3" : {
                              "type" : "double",
                              "defaultValue" : 0.0,
                              "interp" : "linr"
                            },
                            "geometryCrop0" : {
                              "type" : "double",
                              "defaultValue" : 0.0,
                              "interp" : "linr"
                            },
                            "geometryCrop1" : {
                              "type" : "double",
                              "defaultValue" : 0.0,
                              "interp" : "linr"
                            },
                            "geometryCrop2" : {
                              "type" : "double",
                              "defaultValue" : 0.0,
                              "interp" : "linr"
                            },
                            "geometryCrop3" : {
                              "type" : "double",
                              "defaultValue" : 0.0,
                              "interp" : "linr"
                            },
                            "opacity" : {
                              "type" : "double",
                              "defaultValue" : 1.0,
                              "interp" : "linr"
                            },
                            "cursorScale" : {
                              "type" : "double",
                              "defaultValue" : 1.0,
                              "interp" : "linr"
                            },
                            "cursorOpacity" : {
                              "type" : "double",
                              "defaultValue" : 1.0,
                              "interp" : "linr"
                            }
                          },
                          "effects" : [

                          ],
                          "start" : 19876,
                          "duration" : 632,
                          "mediaStart" : 0,
                          "mediaDuration" : 632,
                          "scalar" : 1,
                          "animationTracks" : {

                          }
                        },
                    "audio" : 
                        {
                          "id" : 92,
                          "_type" : "AMFile",
                          "src" : 18,
                          "trackNumber" : 2,
                          "attributes" : {
                            "ident" : "",
                            "sampleRate" : 44100,
                            "bitDepth" : 16,
                            "gain" : 1.0,
                            "mixToMono" : false
                          },
                            "channelNumber" : "0,1",
                          "effects" : [

                          ],
                          "start" : 19876,
                          "duration" : 632,
                          "mediaStart" : 0,
                          "mediaDuration" : 632,
                          "scalar" : 1,
                          "animationTracks" : {

                          }
                        }
,
                    "start" : 19876,
                    "duration" : 632,
                    "mediaStart" : 0,
                    "mediaDuration" : 731,
                    "scalar" : 1,
                    "metadata" : {
                      "AutoAppliedSmartFocus" : "False",
                      "WinSubProjectDisplayName" : "",
                      "clipSpeedAttribute" : false
                    }
                  },
                  {
                    "id" : 93,
                    "_type" : "UnifiedMedia",
                    "video" : 
                        {
                          "id" : 94,
                          "_type" : "ScreenVMFile",
                          "src" : 19,
                          "trackNumber" : 0,
                          "attributes" : {
                            "ident" : "Rec 12-07-16 9"
                          },
                          "parameters" : {
                            "scale0" : {
                              "type" : "double",
                              "defaultValue" : 0.364583333333333,
                              "interp" : "eioe"
                            },
                            "scale1" : {
                              "type" : "double",
                              "defaultValue" : 0.364583333333333,
                              "interp" : "eioe"
                            },
                            "sourceCrop0" : {
                              "type" : "double",
                              "defaultValue" : 0.0,
                              "interp" : "linr"
                            },
                            "sourceCrop1" : {
                              "type" : "double",
                              "defaultValue" : 0.0,
                              "interp" : "linr"
                            },
                            "sourceCrop2" : {
                              "type" : "double",
                              "defaultValue" : 0.0,
                              "interp" : "linr"
                            },
                            "sourceCrop3" : {
                              "type" : "double",
                              "defaultValue" : 0.0,
                              "interp" : "linr"
                            },
                            "geometryCrop0" : {
                              "type" : "double",
                              "defaultValue" : 0.0,
                              "interp" : "linr"
                            },
                            "geometryCrop1" : {
                              "type" : "double",
                              "defaultValue" : 0.0,
                              "interp" : "linr"
                            },
                            "geometryCrop2" : {
                              "type" : "double",
                              "defaultValue" : 0.0,
                              "interp" : "linr"
                            },
                            "geometryCrop3" : {
                              "type" : "double",
                              "defaultValue" : 0.0,
                              "interp" : "linr"
                            },
                            "opacity" : {
                              "type" : "double",
                              "defaultValue" : 1.0,
                              "interp" : "linr"
                            },
                            "cursorScale" : {
                              "type" : "double",
                              "defaultValue" : 1.0,
                              "interp" : "linr"
                            },
                            "cursorOpacity" : {
                              "type" : "double",
                              "defaultValue" : 1.0,
                              "interp" : "linr"
                            }
                          },
                          "effects" : [

                          ],
                          "start" : 20508,
                          "duration" : 9388,
                          "mediaStart" : 0,
                          "mediaDuration" : 9388,
                          "scalar" : 1,
                          "animationTracks" : {

                          }
                        },
                    "audio" : 
                        {
                          "id" : 95,
                          "_type" : "AMFile",
                          "src" : 19,
                          "trackNumber" : 2,
                          "attributes" : {
                            "ident" : "",
                            "sampleRate" : 44100,
                            "bitDepth" : 16,
                            "gain" : 1.0,
                            "mixToMono" : false
                          },
                            "channelNumber" : "0,1",
                          "effects" : [

                          ],
                          "start" : 20508,
                          "duration" : 9388,
                          "mediaStart" : 0,
                          "mediaDuration" : 9388,
                          "scalar" : 1,
                          "animationTracks" : {

                          }
                        }
,
                    "start" : 20508,
                    "duration" : 9388,
                    "mediaStart" : 0,
                    "mediaDuration" : 10307,
                    "scalar" : 1,
                    "metadata" : {
                      "AutoAppliedSmartFocus" : "False",
                      "WinSubProjectDisplayName" : "",
                      "clipSpeedAttribute" : false
                    }
                  },
                  {
                    "id" : 96,
                    "_type" : "UnifiedMedia",
                    "video" : 
                        {
                          "id" : 97,
                          "_type" : "ScreenVMFile",
                          "src" : 20,
                          "trackNumber" : 0,
                          "attributes" : {
                            "ident" : "Rec 12-07-16 10"
                          },
                          "parameters" : {
                            "scale0" : {
                              "type" : "double",
                              "defaultValue" : 0.364583333333333,
                              "interp" : "eioe"
                            },
                            "scale1" : {
                              "type" : "double",
                              "defaultValue" : 0.364583333333333,
                              "interp" : "eioe"
                            },
                            "sourceCrop0" : {
                              "type" : "double",
                              "defaultValue" : 0.0,
                              "interp" : "linr"
                            },
                            "sourceCrop1" : {
                              "type" : "double",
                              "defaultValue" : 0.0,
                              "interp" : "linr"
                            },
                            "sourceCrop2" : {
                              "type" : "double",
                              "defaultValue" : 0.0,
                              "interp" : "linr"
                            },
                            "sourceCrop3" : {
                              "type" : "double",
                              "defaultValue" : 0.0,
                              "interp" : "linr"
                            },
                            "geometryCrop0" : {
                              "type" : "double",
                              "defaultValue" : 0.0,
                              "interp" : "linr"
                            },
                            "geometryCrop1" : {
                              "type" : "double",
                              "defaultValue" : 0.0,
                              "interp" : "linr"
                            },
                            "geometryCrop2" : {
                              "type" : "double",
                              "defaultValue" : 0.0,
                              "interp" : "linr"
                            },
                            "geometryCrop3" : {
                              "type" : "double",
                              "defaultValue" : 0.0,
                              "interp" : "linr"
                            },
                            "opacity" : {
                              "type" : "double",
                              "defaultValue" : 1.0,
                              "interp" : "linr"
                            },
                            "cursorScale" : {
                              "type" : "double",
                              "defaultValue" : 1.0,
                              "interp" : "linr"
                            },
                            "cursorOpacity" : {
                              "type" : "double",
                              "defaultValue" : 1.0,
                              "interp" : "linr"
                            }
                          },
                          "effects" : [

                          ],
                          "start" : 29896,
                          "duration" : 2581,
                          "mediaStart" : 0,
                          "mediaDuration" : 2581,
                          "scalar" : 1,
                          "animationTracks" : {

                          }
                        },
                    "audio" : 
                        {
                          "id" : 98,
                          "_type" : "AMFile",
                          "src" : 20,
                          "trackNumber" : 2,
                          "attributes" : {
                            "ident" : "",
                            "sampleRate" : 44100,
                            "bitDepth" : 16,
                            "gain" : 1.0,
                            "mixToMono" : false
                          },
                            "channelNumber" : "0,1",
                          "effects" : [

                          ],
                          "start" : 29896,
                          "duration" : 2581,
                          "mediaStart" : 0,
                          "mediaDuration" : 2581,
                          "scalar" : 1,
                          "animationTracks" : {

                          }
                        }
,
                    "start" : 29896,
                    "duration" : 2581,
                    "mediaStart" : 0,
                    "mediaDuration" : 17843,
                    "scalar" : 1,
                    "metadata" : {
                      "AutoAppliedSmartFocus" : "False",
                      "WinSubProjectDisplayName" : "",
                      "clipSpeedAttribute" : false
                    }
                  },
                  {
                    "id" : 99,
                    "_type" : "UnifiedMedia",
                    "video" : 
                        {
                          "id" : 100,
                          "_type" : "ScreenVMFile",
                          "src" : 20,
                          "trackNumber" : 0,
                          "attributes" : {
                            "ident" : "Rec 12-07-16 10"
                          },
                          "parameters" : {
                            "scale0" : {
                              "type" : "double",
                              "defaultValue" : 0.364583333333333,
                              "interp" : "eioe"
                            },
                            "scale1" : {
                              "type" : "double",
                              "defaultValue" : 0.364583333333333,
                              "interp" : "eioe"
                            },
                            "sourceCrop0" : {
                              "type" : "double",
                              "defaultValue" : 0.0,
                              "interp" : "linr"
                            },
                            "sourceCrop1" : {
                              "type" : "double",
                              "defaultValue" : 0.0,
                              "interp" : "linr"
                            },
                            "sourceCrop2" : {
                              "type" : "double",
                              "defaultValue" : 0.0,
                              "interp" : "linr"
                            },
                            "sourceCrop3" : {
                              "type" : "double",
                              "defaultValue" : 0.0,
                              "interp" : "linr"
                            },
                            "geometryCrop0" : {
                              "type" : "double",
                              "defaultValue" : 0.0,
                              "interp" : "linr"
                            },
                            "geometryCrop1" : {
                              "type" : "double",
                              "defaultValue" : 0.0,
                              "interp" : "linr"
                            },
                            "geometryCrop2" : {
                              "type" : "double",
                              "defaultValue" : 0.0,
                              "interp" : "linr"
                            },
                            "geometryCrop3" : {
                              "type" : "double",
                              "defaultValue" : 0.0,
                              "interp" : "linr"
                            },
                            "opacity" : {
                              "type" : "double",
                              "defaultValue" : 1.0,
                              "interp" : "linr"
                            },
                            "cursorScale" : {
                              "type" : "double",
                              "defaultValue" : 1.0,
                              "interp" : "linr"
                            },
                            "cursorOpacity" : {
                              "type" : "double",
                              "defaultValue" : 1.0,
                              "interp" : "linr"
                            }
                          },
                          "effects" : [

                          ],
                          "start" : 32477,
                          "duration" : 116,
                          "mediaStart" : 2651,
                          "mediaDuration" : 116,
                          "scalar" : 1,
                          "animationTracks" : {

                          }
                        },
                    "audio" : 
                        {
                          "id" : 101,
                          "_type" : "AMFile",
                          "src" : 20,
                          "trackNumber" : 2,
                          "attributes" : {
                            "ident" : "",
                            "sampleRate" : 44100,
                            "bitDepth" : 16,
                            "gain" : 1.0,
                            "mixToMono" : false
                          },
                            "channelNumber" : "0,1",
                          "effects" : [

                          ],
                          "start" : 32477,
                          "duration" : 116,
                          "mediaStart" : 2651,
                          "mediaDuration" : 116,
                          "scalar" : 1,
                          "animationTracks" : {

                          }
                        }
,
                    "start" : 32477,
                    "duration" : 116,
                    "mediaStart" : 0,
                    "mediaDuration" : 17843,
                    "scalar" : 1,
                    "metadata" : {
                      "AutoAppliedSmartFocus" : "False",
                      "WinSubProjectDisplayName" : "",
                      "clipSpeedAttribute" : false
                    }
                  },
                  {
                    "id" : 102,
                    "_type" : "UnifiedMedia",
                    "video" : 
                        {
                          "id" : 103,
                          "_type" : "ScreenVMFile",
                          "src" : 20,
                          "trackNumber" : 0,
                          "attributes" : {
                            "ident" : "Rec 12-07-16 10"
                          },
                          "parameters" : {
                            "scale0" : {
                              "type" : "double",
                              "defaultValue" : 0.364583333333333,
                              "interp" : "eioe"
                            },
                            "scale1" : {
                              "type" : "double",
                              "defaultValue" : 0.364583333333333,
                              "interp" : "eioe"
                            },
                            "sourceCrop0" : {
                              "type" : "double",
                              "defaultValue" : 0.0,
                              "interp" : "linr"
                            },
                            "sourceCrop1" : {
                              "type" : "double",
                              "defaultValue" : 0.0,
                              "interp" : "linr"
                            },
                            "sourceCrop2" : {
                              "type" : "double",
                              "defaultValue" : 0.0,
                              "interp" : "linr"
                            },
                            "sourceCrop3" : {
                              "type" : "double",
                              "defaultValue" : 0.0,
                              "interp" : "linr"
                            },
                            "geometryCrop0" : {
                              "type" : "double",
                              "defaultValue" : 0.0,
                              "interp" : "linr"
                            },
                            "geometryCrop1" : {
                              "type" : "double",
                              "defaultValue" : 0.0,
                              "interp" : "linr"
                            },
                            "geometryCrop2" : {
                              "type" : "double",
                              "defaultValue" : 0.0,
                              "interp" : "linr"
                            },
                            "geometryCrop3" : {
                              "type" : "double",
                              "defaultValue" : 0.0,
                              "interp" : "linr"
                            },
                            "opacity" : {
                              "type" : "double",
                              "defaultValue" : 1.0,
                              "interp" : "linr"
                            },
                            "cursorScale" : {
                              "type" : "double",
                              "defaultValue" : 1.0,
                              "interp" : "linr"
                            },
                            "cursorOpacity" : {
                              "type" : "double",
                              "defaultValue" : 1.0,
                              "interp" : "linr"
                            }
                          },
                          "effects" : [

                          ],
                          "start" : 32593,
                          "duration" : 3980,
                          "mediaStart" : 3299,
                          "mediaDuration" : 3980,
                          "scalar" : 1,
                          "animationTracks" : {

                          }
                        },
                    "audio" : 
                        {
                          "id" : 104,
                          "_type" : "AMFile",
                          "src" : 20,
                          "trackNumber" : 2,
                          "attributes" : {
                            "ident" : "",
                            "sampleRate" : 44100,
                            "bitDepth" : 16,
                            "gain" : 1.0,
                            "mixToMono" : false
                          },
                            "channelNumber" : "0,1",
                          "effects" : [

                          ],
                          "start" : 32593,
                          "duration" : 3980,
                          "mediaStart" : 3299,
                          "mediaDuration" : 3980,
                          "scalar" : 1,
                          "animationTracks" : {

                          }
                        }
,
                    "start" : 32593,
                    "duration" : 3980,
                    "mediaStart" : 0,
                    "mediaDuration" : 17843,
                    "scalar" : 1,
                    "metadata" : {
                      "AutoAppliedSmartFocus" : "False",
                      "WinSubProjectDisplayName" : "",
                      "clipSpeedAttribute" : false
                    }
                  },
                  {
                    "id" : 105,
                    "_type" : "UnifiedMedia",
                    "video" : 
                        {
                          "id" : 106,
                          "_type" : "ScreenVMFile",
                          "src" : 20,
                          "trackNumber" : 0,
                          "attributes" : {
                            "ident" : "Rec 12-07-16 10"
                          },
                          "parameters" : {
                            "scale0" : {
                              "type" : "double",
                              "defaultValue" : 0.364583333333333,
                              "interp" : "eioe"
                            },
                            "scale1" : {
                              "type" : "double",
                              "defaultValue" : 0.364583333333333,
                              "interp" : "eioe"
                            },
                            "sourceCrop0" : {
                              "type" : "double",
                              "defaultValue" : 0.0,
                              "interp" : "linr"
                            },
                            "sourceCrop1" : {
                              "type" : "double",
                              "defaultValue" : 0.0,
                              "interp" : "linr"
                            },
                            "sourceCrop2" : {
                              "type" : "double",
                              "defaultValue" : 0.0,
                              "interp" : "linr"
                            },
                            "sourceCrop3" : {
                              "type" : "double",
                              "defaultValue" : 0.0,
                              "interp" : "linr"
                            },
                            "geometryCrop0" : {
                              "type" : "double",
                              "defaultValue" : 0.0,
                              "interp" : "linr"
                            },
                            "geometryCrop1" : {
                              "type" : "double",
                              "defaultValue" : 0.0,
                              "interp" : "linr"
                            },
                            "geometryCrop2" : {
                              "type" : "double",
                              "defaultValue" : 0.0,
                              "interp" : "linr"
                            },
                            "geometryCrop3" : {
                              "type" : "double",
                              "defaultValue" : 0.0,
                              "interp" : "linr"
                            },
                            "opacity" : {
                              "type" : "double",
                              "defaultValue" : 1.0,
                              "interp" : "linr"
                            },
                            "cursorScale" : {
                              "type" : "double",
                              "defaultValue" : 1.0,
                              "interp" : "linr"
                            },
                            "cursorOpacity" : {
                              "type" : "double",
                              "defaultValue" : 1.0,
                              "interp" : "linr"
                            }
                          },
                          "effects" : [

                          ],
                          "start" : 36573,
                          "duration" : 2279,
                          "mediaStart" : 7661,
                          "mediaDuration" : 2279,
                          "scalar" : 1,
                          "animationTracks" : {

                          }
                        },
                    "audio" : 
                        {
                          "id" : 107,
                          "_type" : "AMFile",
                          "src" : 20,
                          "trackNumber" : 2,
                          "attributes" : {
                            "ident" : "",
                            "sampleRate" : 44100,
                            "bitDepth" : 16,
                            "gain" : 1.0,
                            "mixToMono" : false
                          },
                            "channelNumber" : "0,1",
                          "effects" : [

                          ],
                          "start" : 36573,
                          "duration" : 2279,
                          "mediaStart" : 7661,
                          "mediaDuration" : 2279,
                          "scalar" : 1,
                          "animationTracks" : {

                          }
                        }
,
                    "start" : 36573,
                    "duration" : 2279,
                    "mediaStart" : 0,
                    "mediaDuration" : 17843,
                    "scalar" : 1,
                    "metadata" : {
                      "AutoAppliedSmartFocus" : "False",
                      "WinSubProjectDisplayName" : "",
                      "clipSpeedAttribute" : false
                    }
                  },
                  {
                    "id" : 108,
                    "_type" : "UnifiedMedia",
                    "video" : 
                        {
                          "id" : 109,
                          "_type" : "ScreenVMFile",
                          "src" : 20,
                          "trackNumber" : 0,
                          "attributes" : {
                            "ident" : "Rec 12-07-16 10"
                          },
                          "parameters" : {
                            "scale0" : {
                              "type" : "double",
                              "defaultValue" : 0.364583333333333,
                              "interp" : "eioe"
                            },
                            "scale1" : {
                              "type" : "double",
                              "defaultValue" : 0.364583333333333,
                              "interp" : "eioe"
                            },
                            "sourceCrop0" : {
                              "type" : "double",
                              "defaultValue" : 0.0,
                              "interp" : "linr"
                            },
                            "sourceCrop1" : {
                              "type" : "double",
                              "defaultValue" : 0.0,
                              "interp" : "linr"
                            },
                            "sourceCrop2" : {
                              "type" : "double",
                              "defaultValue" : 0.0,
                              "interp" : "linr"
                            },
                            "sourceCrop3" : {
                              "type" : "double",
                              "defaultValue" : 0.0,
                              "interp" : "linr"
                            },
                            "geometryCrop0" : {
                              "type" : "double",
                              "defaultValue" : 0.0,
                              "interp" : "linr"
                            },
                            "geometryCrop1" : {
                              "type" : "double",
                              "defaultValue" : 0.0,
                              "interp" : "linr"
                            },
                            "geometryCrop2" : {
                              "type" : "double",
                              "defaultValue" : 0.0,
                              "interp" : "linr"
                            },
                            "geometryCrop3" : {
                              "type" : "double",
                              "defaultValue" : 0.0,
                              "interp" : "linr"
                            },
                            "opacity" : {
                              "type" : "double",
                              "defaultValue" : 1.0,
                              "interp" : "linr"
                            },
                            "cursorScale" : {
                              "type" : "double",
                              "defaultValue" : 1.0,
                              "interp" : "linr"
                            },
                            "cursorOpacity" : {
                              "type" : "double",
                              "defaultValue" : 1.0,
                              "interp" : "linr"
                            }
                          },
                          "effects" : [

                          ],
                          "start" : 38852,
                          "duration" : 6892,
                          "mediaStart" : 10746,
                          "mediaDuration" : 6892,
                          "scalar" : 1,
                          "animationTracks" : {

                          }
                        },
                    "audio" : 
                        {
                          "id" : 110,
                          "_type" : "AMFile",
                          "src" : 20,
                          "trackNumber" : 2,
                          "attributes" : {
                            "ident" : "",
                            "sampleRate" : 44100,
                            "bitDepth" : 16,
                            "gain" : 1.0,
                            "mixToMono" : false
                          },
                            "channelNumber" : "0,1",
                          "effects" : [

                          ],
                          "start" : 38852,
                          "duration" : 6892,
                          "mediaStart" : 10746,
                          "mediaDuration" : 6892,
                          "scalar" : 1,
                          "animationTracks" : {

                          }
                        }
,
                    "start" : 38852,
                    "duration" : 6892,
                    "mediaStart" : 0,
                    "mediaDuration" : 17843,
                    "scalar" : 1,
                    "metadata" : {
                      "AutoAppliedSmartFocus" : "False",
                      "WinSubProjectDisplayName" : "",
                      "clipSpeedAttribute" : false
                    }
                  },
                  {
                    "id" : 111,
                    "_type" : "UnifiedMedia",
                    "video" : 
                        {
                          "id" : 112,
                          "_type" : "ScreenVMFile",
                          "src" : 20,
                          "trackNumber" : 0,
                          "attributes" : {
                            "ident" : "Rec 12-07-16 10"
                          },
                          "parameters" : {
                            "scale0" : {
                              "type" : "double",
                              "defaultValue" : 0.364583333333333,
                              "interp" : "eioe"
                            },
                            "scale1" : {
                              "type" : "double",
                              "defaultValue" : 0.364583333333333,
                              "interp" : "eioe"
                            },
                            "sourceCrop0" : {
                              "type" : "double",
                              "defaultValue" : 0.0,
                              "interp" : "linr"
                            },
                            "sourceCrop1" : {
                              "type" : "double",
                              "defaultValue" : 0.0,
                              "interp" : "linr"
                            },
                            "sourceCrop2" : {
                              "type" : "double",
                              "defaultValue" : 0.0,
                              "interp" : "linr"
                            },
                            "sourceCrop3" : {
                              "type" : "double",
                              "defaultValue" : 0.0,
                              "interp" : "linr"
                            },
                            "geometryCrop0" : {
                              "type" : "double",
                              "defaultValue" : 0.0,
                              "interp" : "linr"
                            },
                            "geometryCrop1" : {
                              "type" : "double",
                              "defaultValue" : 0.0,
                              "interp" : "linr"
                            },
                            "geometryCrop2" : {
                              "type" : "double",
                              "defaultValue" : 0.0,
                              "interp" : "linr"
                            },
                            "geometryCrop3" : {
                              "type" : "double",
                              "defaultValue" : 0.0,
                              "interp" : "linr"
                            },
                            "opacity" : {
                              "type" : "double",
                              "defaultValue" : 1.0,
                              "interp" : "linr"
                            },
                            "cursorScale" : {
                              "type" : "double",
                              "defaultValue" : 1.0,
                              "interp" : "linr"
                            },
                            "cursorOpacity" : {
                              "type" : "double",
                              "defaultValue" : 1.0,
                              "interp" : "linr"
                            }
                          },
                          "effects" : [

                          ],
                          "start" : 45948,
                          "duration" : 1,
                          "mediaStart" : 17842,
                          "mediaDuration" : 1,
                          "scalar" : 1,
                          "animationTracks" : {

                          }
                        },
                    "audio" : 
                        {
                          "id" : 113,
                          "_type" : "AMFile",
                          "src" : 20,
                          "trackNumber" : 2,
                          "attributes" : {
                            "ident" : "",
                            "sampleRate" : 44100,
                            "bitDepth" : 16,
                            "gain" : 1.0,
                            "mixToMono" : false
                          },
                            "channelNumber" : "0,1",
                          "effects" : [

                          ],
                          "start" : 45948,
                          "duration" : 1,
                          "mediaStart" : 17842,
                          "mediaDuration" : 1,
                          "scalar" : 1,
                          "animationTracks" : {

                          }
                        }
,
                    "start" : 45948,
                    "duration" : 1,
                    "mediaStart" : 0,
                    "mediaDuration" : 17843,
                    "scalar" : 1,
                    "metadata" : {
                      "AutoAppliedSmartFocus" : "False",
                      "WinSubProjectDisplayName" : "",
                      "clipSpeedAttribute" : false
                    }
                  }
                ]
              },
              {
                "trackIndex" : 3,
                "medias" : [
                  {
                    "id" : 114,
                    "_type" : "AMFile",
                    "src" : 16,
                    "trackNumber" : 1,
                    "attributes" : {
                      "ident" : "Rec 12-07-16 6",
                      "sampleRate" : 44100,
                      "bitDepth" : 16,
                      "gain" : 1.0,
                      "mixToMono" : false
                    },
                      "channelNumber" : "0,1",
                    "parameters" : {
                      "volume" : {
                        "type" : "double",
                        "interp" : "linr",
                        "keyframes" : [
                          {
                            "time" : 0,
                            "value" : 0.703296703296701,
                            "duration" : 0
                          }
                        ]
                      }
                    },
                    "effects" : [

                    ],
                    "start" : 16069,
                    "duration" : 984,
                    "mediaStart" : 0,
                    "mediaDuration" : 984,
                    "scalar" : 1,
                    "metadata" : {
                      "WinSubProjectDisplayName" : "",
                      "clipSpeedAttribute" : false
                    },
                    "animationTracks" : {

                    }
                  },
                  {
                    "id" : 115,
                    "_type" : "AMFile",
                    "src" : 16,
                    "trackNumber" : 1,
                    "attributes" : {
                      "ident" : "Rec 12-07-16 6",
                      "sampleRate" : 44100,
                      "bitDepth" : 16,
                      "gain" : 1.0,
                      "mixToMono" : false
                    },
                      "channelNumber" : "0,1",
                    "parameters" : {
                      "volume" : {
                        "type" : "double",
                        "interp" : "linr",
                        "keyframes" : [
                          {
                            "time" : 0,
                            "value" : 0.703296703296701,
                            "duration" : 0
                          }
                        ]
                      }
                    },
                    "effects" : [

                    ],
                    "start" : 17053,
                    "duration" : 1068,
                    "mediaStart" : 1130,
                    "mediaDuration" : 1068,
                    "scalar" : 1,
                    "metadata" : {
                      "WinSubProjectDisplayName" : "",
                      "clipSpeedAttribute" : false
                    },
                    "animationTracks" : {

                    }
                  },
                  {
                    "id" : 116,
                    "_type" : "AMFile",
                    "src" : 17,
                    "trackNumber" : 1,
                    "attributes" : {
                      "ident" : "Rec 12-07-16 7",
                      "sampleRate" : 44100,
                      "bitDepth" : 16,
                      "gain" : 1.0,
                      "mixToMono" : false
                    },
                      "channelNumber" : "0,1",
                    "parameters" : {
                      "volume" : {
                        "type" : "double",
                        "interp" : "linr",
                        "keyframes" : [
                          {
                            "time" : 0,
                            "value" : 0.68131868131868,
                            "duration" : 0
                          }
                        ]
                      }
                    },
                    "effects" : [

                    ],
                    "start" : 18121,
                    "duration" : 1125,
                    "mediaStart" : 0,
                    "mediaDuration" : 1125,
                    "scalar" : 1,
                    "metadata" : {
                      "WinSubProjectDisplayName" : "",
                      "clipSpeedAttribute" : false
                    },
                    "animationTracks" : {

                    }
                  },
                  {
                    "id" : 117,
                    "_type" : "AMFile",
                    "src" : 17,
                    "trackNumber" : 1,
                    "attributes" : {
                      "ident" : "Rec 12-07-16 7",
                      "sampleRate" : 44100,
                      "bitDepth" : 16,
                      "gain" : 1.0,
                      "mixToMono" : false
                    },
                      "channelNumber" : "0,1",
                    "parameters" : {
                      "volume" : {
                        "type" : "double",
                        "interp" : "linr",
                        "keyframes" : [
                          {
                            "time" : 0,
                            "value" : 0.68131868131868,
                            "duration" : 0
                          }
                        ]
                      }
                    },
                    "effects" : [

                    ],
                    "start" : 19246,
                    "duration" : 630,
                    "mediaStart" : 1459,
                    "mediaDuration" : 630,
                    "scalar" : 1,
                    "metadata" : {
                      "WinSubProjectDisplayName" : "",
                      "clipSpeedAttribute" : false
                    },
                    "animationTracks" : {

                    }
                  },
                  {
                    "id" : 118,
                    "_type" : "AMFile",
                    "src" : 18,
                    "trackNumber" : 1,
                    "attributes" : {
                      "ident" : "Rec 12-07-16 8",
                      "sampleRate" : 44100,
                      "bitDepth" : 16,
                      "gain" : 1.0,
                      "mixToMono" : false
                    },
                      "channelNumber" : "0,1",
                    "parameters" : {
                      "volume" : {
                        "type" : "double",
                        "interp" : "linr",
                        "keyframes" : [
                          {
                            "time" : 0,
                            "value" : 0.747252747252745,
                            "duration" : 0
                          }
                        ]
                      }
                    },
                    "effects" : [

                    ],
                    "start" : 19876,
                    "duration" : 632,
                    "mediaStart" : 0,
                    "mediaDuration" : 632,
                    "scalar" : 1,
                    "metadata" : {
                      "WinSubProjectDisplayName" : "",
                      "clipSpeedAttribute" : false
                    },
                    "animationTracks" : {

                    }
                  },
                  {
                    "id" : 119,
                    "_type" : "AMFile",
                    "src" : 19,
                    "trackNumber" : 1,
                    "attributes" : {
                      "ident" : "Rec 12-07-16 9",
                      "sampleRate" : 44100,
                      "bitDepth" : 16,
                      "gain" : 1.0,
                      "mixToMono" : false
                    },
                      "channelNumber" : "0,1",
                    "parameters" : {
                      "volume" : {
                        "type" : "double",
                        "interp" : "linr",
                        "keyframes" : [
                          {
                            "time" : 0,
                            "value" : 0.725274725274725,
                            "duration" : 0
                          }
                        ]
                      }
                    },
                    "effects" : [

                    ],
                    "start" : 20508,
                    "duration" : 9388,
                    "mediaStart" : 0,
                    "mediaDuration" : 9388,
                    "scalar" : 1,
                    "metadata" : {
                      "WinSubProjectDisplayName" : "",
                      "clipSpeedAttribute" : false
                    },
                    "animationTracks" : {

                    }
                  },
                  {
                    "id" : 120,
                    "_type" : "AMFile",
                    "src" : 20,
                    "trackNumber" : 1,
                    "attributes" : {
                      "ident" : "Rec 12-07-16 10",
                      "sampleRate" : 44100,
                      "bitDepth" : 16,
                      "gain" : 1.0,
                      "mixToMono" : false
                    },
                      "channelNumber" : "0,1",
                    "parameters" : {
                      "volume" : {
                        "type" : "double",
                        "interp" : "linr",
                        "keyframes" : [
                          {
                            "time" : 0,
                            "value" : 0.813186813186811,
                            "duration" : 0
                          }
                        ]
                      }
                    },
                    "effects" : [

                    ],
                    "start" : 29896,
                    "duration" : 2581,
                    "mediaStart" : 0,
                    "mediaDuration" : 2581,
                    "scalar" : 1,
                    "metadata" : {
                      "WinSubProjectDisplayName" : "",
                      "clipSpeedAttribute" : false
                    },
                    "animationTracks" : {

                    }
                  },
                  {
                    "id" : 121,
                    "_type" : "AMFile",
                    "src" : 20,
                    "trackNumber" : 1,
                    "attributes" : {
                      "ident" : "Rec 12-07-16 10",
                      "sampleRate" : 44100,
                      "bitDepth" : 16,
                      "gain" : 1.0,
                      "mixToMono" : false
                    },
                      "channelNumber" : "0,1",
                    "parameters" : {
                      "volume" : {
                        "type" : "double",
                        "interp" : "linr",
                        "keyframes" : [
                          {
                            "time" : 0,
                            "value" : 0.813186813186811,
                            "duration" : 0
                          }
                        ]
                      }
                    },
                    "effects" : [

                    ],
                    "start" : 32477,
                    "duration" : 116,
                    "mediaStart" : 2651,
                    "mediaDuration" : 116,
                    "scalar" : 1,
                    "metadata" : {
                      "WinSubProjectDisplayName" : "",
                      "clipSpeedAttribute" : false
                    },
                    "animationTracks" : {

                    }
                  },
                  {
                    "id" : 122,
                    "_type" : "AMFile",
                    "src" : 20,
                    "trackNumber" : 1,
                    "attributes" : {
                      "ident" : "Rec 12-07-16 10",
                      "sampleRate" : 44100,
                      "bitDepth" : 16,
                      "gain" : 1.0,
                      "mixToMono" : false
                    },
                      "channelNumber" : "0,1",
                    "parameters" : {
                      "volume" : {
                        "type" : "double",
                        "interp" : "linr",
                        "keyframes" : [
                          {
                            "time" : 0,
                            "value" : 0.813186813186811,
                            "duration" : 0
                          }
                        ]
                      }
                    },
                    "effects" : [

                    ],
                    "start" : 32593,
                    "duration" : 3980,
                    "mediaStart" : 3299,
                    "mediaDuration" : 3980,
                    "scalar" : 1,
                    "metadata" : {
                      "WinSubProjectDisplayName" : "",
                      "clipSpeedAttribute" : false
                    },
                    "animationTracks" : {

                    }
                  },
                  {
                    "id" : 123,
                    "_type" : "AMFile",
                    "src" : 20,
                    "trackNumber" : 1,
                    "attributes" : {
                      "ident" : "Rec 12-07-16 10",
                      "sampleRate" : 44100,
                      "bitDepth" : 16,
                      "gain" : 1.0,
                      "mixToMono" : false
                    },
                      "channelNumber" : "0,1",
                    "parameters" : {
                      "volume" : {
                        "type" : "double",
                        "interp" : "linr",
                        "keyframes" : [
                          {
                            "time" : 0,
                            "value" : 0.813186813186811,
                            "duration" : 0
                          }
                        ]
                      }
                    },
                    "effects" : [

                    ],
                    "start" : 36573,
                    "duration" : 2279,
                    "mediaStart" : 7661,
                    "mediaDuration" : 2279,
                    "scalar" : 1,
                    "metadata" : {
                      "WinSubProjectDisplayName" : "",
                      "clipSpeedAttribute" : false
                    },
                    "animationTracks" : {

                    }
                  },
                  {
                    "id" : 124,
                    "_type" : "AMFile",
                    "src" : 20,
                    "trackNumber" : 1,
                    "attributes" : {
                      "ident" : "Rec 12-07-16 10",
                      "sampleRate" : 44100,
                      "bitDepth" : 16,
                      "gain" : 1.0,
                      "mixToMono" : false
                    },
                      "channelNumber" : "0,1",
                    "parameters" : {
                      "volume" : {
                        "type" : "double",
                        "interp" : "linr",
                        "keyframes" : [
                          {
                            "time" : 0,
                            "value" : 0.68131868131868,
                            "duration" : 0
                          }
                        ]
                      }
                    },
                    "effects" : [

                    ],
                    "start" : 38852,
                    "duration" : 6892,
                    "mediaStart" : 10746,
                    "mediaDuration" : 6892,
                    "scalar" : 1,
                    "metadata" : {
                      "WinSubProjectDisplayName" : "",
                      "clipSpeedAttribute" : false
                    },
                    "animationTracks" : {

                    }
                  },
                  {
                    "id" : 125,
                    "_type" : "UnifiedMedia",
                    "video" : 
                        {
                          "id" : 126,
                          "_type" : "ScreenVMFile",
                          "src" : 21,
                          "trackNumber" : 0,
                          "attributes" : {
                            "ident" : "Rec 12-07-16 11"
                          },
                          "parameters" : {
                            "scale0" : {
                              "type" : "double",
                              "defaultValue" : 0.364583333333333,
                              "interp" : "eioe"
                            },
                            "scale1" : {
                              "type" : "double",
                              "defaultValue" : 0.364583333333333,
                              "interp" : "eioe"
                            },
                            "sourceCrop0" : {
                              "type" : "double",
                              "defaultValue" : 0.0,
                              "interp" : "linr"
                            },
                            "sourceCrop1" : {
                              "type" : "double",
                              "defaultValue" : 0.0,
                              "interp" : "linr"
                            },
                            "sourceCrop2" : {
                              "type" : "double",
                              "defaultValue" : 0.0,
                              "interp" : "linr"
                            },
                            "sourceCrop3" : {
                              "type" : "double",
                              "defaultValue" : 0.0,
                              "interp" : "linr"
                            },
                            "geometryCrop0" : {
                              "type" : "double",
                              "defaultValue" : 0.0,
                              "interp" : "linr"
                            },
                            "geometryCrop1" : {
                              "type" : "double",
                              "defaultValue" : 0.0,
                              "interp" : "linr"
                            },
                            "geometryCrop2" : {
                              "type" : "double",
                              "defaultValue" : 0.0,
                              "interp" : "linr"
                            },
                            "geometryCrop3" : {
                              "type" : "double",
                              "defaultValue" : 0.0,
                              "interp" : "linr"
                            },
                            "opacity" : {
                              "type" : "double",
                              "defaultValue" : 1.0,
                              "interp" : "linr"
                            },
                            "cursorScale" : {
                              "type" : "double",
                              "defaultValue" : 1.0,
                              "interp" : "linr"
                            },
                            "cursorOpacity" : {
                              "type" : "double",
                              "defaultValue" : 1.0,
                              "interp" : "linr"
                            }
                          },
                          "effects" : [

                          ],
                          "start" : 45744,
                          "duration" : 926,
                          "mediaStart" : 24,
                          "mediaDuration" : 926,
                          "scalar" : 1,
                          "animationTracks" : {

                          }
                        },
                    "audio" : 
                        {
                          "id" : 127,
                          "_type" : "AMFile",
                          "src" : 21,
                          "trackNumber" : 2,
                          "attributes" : {
                            "ident" : "",
                            "sampleRate" : 44100,
                            "bitDepth" : 16,
                            "gain" : 1.0,
                            "mixToMono" : false
                          },
                            "channelNumber" : "0,1",
                          "effects" : [

                          ],
                          "start" : 45744,
                          "duration" : 926,
                          "mediaStart" : 24,
                          "mediaDuration" : 926,
                          "scalar" : 1,
                          "animationTracks" : {

                          }
                        }
,
                    "start" : 45744,
                    "duration" : 926,
                    "mediaStart" : 0,
                    "mediaDuration" : 11859,
                    "scalar" : 1,
                    "metadata" : {
                      "AutoAppliedSmartFocus" : "False",
                      "WinSubProjectDisplayName" : "",
                      "clipSpeedAttribute" : false
                    }
                  },
                  {
                    "id" : 128,
                    "_type" : "UnifiedMedia",
                    "video" : 
                        {
                          "id" : 129,
                          "_type" : "ScreenVMFile",
                          "src" : 21,
                          "trackNumber" : 0,
                          "attributes" : {
                            "ident" : "Rec 12-07-16 11"
                          },
                          "parameters" : {
                            "scale0" : {
                              "type" : "double",
                              "defaultValue" : 0.364583333333333,
                              "interp" : "eioe"
                            },
                            "scale1" : {
                              "type" : "double",
                              "defaultValue" : 0.364583333333333,
                              "interp" : "eioe"
                            },
                            "sourceCrop0" : {
                              "type" : "double",
                              "defaultValue" : 0.0,
                              "interp" : "linr"
                            },
                            "sourceCrop1" : {
                              "type" : "double",
                              "defaultValue" : 0.0,
                              "interp" : "linr"
                            },
                            "sourceCrop2" : {
                              "type" : "double",
                              "defaultValue" : 0.0,
                              "interp" : "linr"
                            },
                            "sourceCrop3" : {
                              "type" : "double",
                              "defaultValue" : 0.0,
                              "interp" : "linr"
                            },
                            "geometryCrop0" : {
                              "type" : "double",
                              "defaultValue" : 0.0,
                              "interp" : "linr"
                            },
                            "geometryCrop1" : {
                              "type" : "double",
                              "defaultValue" : 0.0,
                              "interp" : "linr"
                            },
                            "geometryCrop2" : {
                              "type" : "double",
                              "defaultValue" : 0.0,
                              "interp" : "linr"
                            },
                            "geometryCrop3" : {
                              "type" : "double",
                              "defaultValue" : 0.0,
                              "interp" : "linr"
                            },
                            "opacity" : {
                              "type" : "double",
                              "defaultValue" : 1.0,
                              "interp" : "linr"
                            },
                            "cursorScale" : {
                              "type" : "double",
                              "defaultValue" : 1.0,
                              "interp" : "linr"
                            },
                            "cursorOpacity" : {
                              "type" : "double",
                              "defaultValue" : 1.0,
                              "interp" : "linr"
                            }
                          },
                          "effects" : [

                          ],
                          "start" : 46670,
                          "duration" : 7926,
                          "mediaStart" : 2922,
                          "mediaDuration" : 7926,
                          "scalar" : 1,
                          "animationTracks" : {

                          }
                        },
                    "audio" : 
                        {
                          "id" : 130,
                          "_type" : "AMFile",
                          "src" : 21,
                          "trackNumber" : 2,
                          "attributes" : {
                            "ident" : "",
                            "sampleRate" : 44100,
                            "bitDepth" : 16,
                            "gain" : 1.0,
                            "mixToMono" : false
                          },
                            "channelNumber" : "0,1",
                          "effects" : [

                          ],
                          "start" : 46670,
                          "duration" : 7926,
                          "mediaStart" : 2922,
                          "mediaDuration" : 7926,
                          "scalar" : 1,
                          "animationTracks" : {

                          }
                        }
,
                    "start" : 46670,
                    "duration" : 7926,
                    "mediaStart" : 0,
                    "mediaDuration" : 11859,
                    "scalar" : 1,
                    "metadata" : {
                      "AutoAppliedSmartFocus" : "False",
                      "WinSubProjectDisplayName" : "",
                      "clipSpeedAttribute" : false
                    }
                  },
                  {
                    "id" : 131,
                    "_type" : "UnifiedMedia",
                    "video" : 
                        {
                          "id" : 132,
                          "_type" : "ScreenVMFile",
                          "src" : 22,
                          "trackNumber" : 0,
                          "attributes" : {
                            "ident" : "Rec 12-07-16 12"
                          },
                          "parameters" : {
                            "scale0" : {
                              "type" : "double",
                              "defaultValue" : 0.364583333333333,
                              "interp" : "eioe"
                            },
                            "scale1" : {
                              "type" : "double",
                              "defaultValue" : 0.364583333333333,
                              "interp" : "eioe"
                            },
                            "sourceCrop0" : {
                              "type" : "double",
                              "defaultValue" : 0.0,
                              "interp" : "linr"
                            },
                            "sourceCrop1" : {
                              "type" : "double",
                              "defaultValue" : 0.0,
                              "interp" : "linr"
                            },
                            "sourceCrop2" : {
                              "type" : "double",
                              "defaultValue" : 0.0,
                              "interp" : "linr"
                            },
                            "sourceCrop3" : {
                              "type" : "double",
                              "defaultValue" : 0.0,
                              "interp" : "linr"
                            },
                            "geometryCrop0" : {
                              "type" : "double",
                              "defaultValue" : 0.0,
                              "interp" : "linr"
                            },
                            "geometryCrop1" : {
                              "type" : "double",
                              "defaultValue" : 0.0,
                              "interp" : "linr"
                            },
                            "geometryCrop2" : {
                              "type" : "double",
                              "defaultValue" : 0.0,
                              "interp" : "linr"
                            },
                            "geometryCrop3" : {
                              "type" : "double",
                              "defaultValue" : 0.0,
                              "interp" : "linr"
                            },
                            "opacity" : {
                              "type" : "double",
                              "defaultValue" : 1.0,
                              "interp" : "linr"
                            },
                            "cursorScale" : {
                              "type" : "double",
                              "defaultValue" : 1.0,
                              "interp" : "linr"
                            },
                            "cursorOpacity" : {
                              "type" : "double",
                              "defaultValue" : 1.0,
                              "interp" : "linr"
                            }
                          },
                          "effects" : [

                          ],
                          "start" : 54596,
                          "duration" : 16456,
                          "mediaStart" : 0,
                          "mediaDuration" : 16456,
                          "scalar" : 1,
                          "animationTracks" : {

                          }
                        },
                    "audio" : 
                        {
                          "id" : 133,
                          "_type" : "AMFile",
                          "src" : 22,
                          "trackNumber" : 2,
                          "attributes" : {
                            "ident" : "",
                            "sampleRate" : 44100,
                            "bitDepth" : 16,
                            "gain" : 1.0,
                            "mixToMono" : false
                          },
                            "channelNumber" : "0,1",
                          "effects" : [

                          ],
                          "start" : 54596,
                          "duration" : 16456,
                          "mediaStart" : 0,
                          "mediaDuration" : 16456,
                          "scalar" : 1,
                          "animationTracks" : {

                          }
                        }
,
                    "start" : 54596,
                    "duration" : 16456,
                    "mediaStart" : 0,
                    "mediaDuration" : 16456,
                    "scalar" : 1,
                    "metadata" : {
                      "AutoAppliedSmartFocus" : "False",
                      "WinSubProjectDisplayName" : "",
                      "clipSpeedAttribute" : false
                    }
                  }
                ]
              },
              {
                "trackIndex" : 4,
                "medias" : [
                  {
                    "id" : 134,
                    "_type" : "AMFile",
                    "src" : 21,
                    "trackNumber" : 1,
                    "attributes" : {
                      "ident" : "Rec 12-07-16 11",
                      "sampleRate" : 44100,
                      "bitDepth" : 16,
                      "gain" : 1.0,
                      "mixToMono" : false
                    },
                      "channelNumber" : "0,1",
                    "parameters" : {
                      "volume" : {
                        "type" : "double",
                        "interp" : "linr",
                        "keyframes" : [
                          {
                            "time" : 0,
                            "value" : 0.593406593406591,
                            "duration" : 0
                          }
                        ]
                      }
                    },
                    "effects" : [

                    ],
                    "start" : 45744,
                    "duration" : 926,
                    "mediaStart" : 24,
                    "mediaDuration" : 926,
                    "scalar" : 1,
                    "metadata" : {
                      "WinSubProjectDisplayName" : "",
                      "clipSpeedAttribute" : false
                    },
                    "animationTracks" : {

                    }
                  },
                  {
                    "id" : 135,
                    "_type" : "AMFile",
                    "src" : 21,
                    "trackNumber" : 1,
                    "attributes" : {
                      "ident" : "Rec 12-07-16 11",
                      "sampleRate" : 44100,
                      "bitDepth" : 16,
                      "gain" : 0.573895203218629,
                      "mixToMono" : true
                    },
                      "channelNumber" : "0,1",
                    "parameters" : {
                      "volume" : {
                        "type" : "double",
                        "interp" : "linr",
                        "keyframes" : [
                          {
                            "time" : 0,
                            "value" : 0.527472527472526,
                            "duration" : 0
                          }
                        ]
                      }
                    },
                    "effects" : [

                    ],
                    "start" : 46670,
                    "duration" : 7926,
                    "mediaStart" : 2922,
                    "mediaDuration" : 7926,
                    "scalar" : 1,
                    "metadata" : {
                      "WinSubProjectDisplayName" : "",
                      "clipSpeedAttribute" : false
                    },
                    "animationTracks" : {

                    }
                  },
                  {
                    "id" : 136,
                    "_type" : "AMFile",
                    "src" : 22,
                    "trackNumber" : 1,
                    "attributes" : {
                      "ident" : "Rec 12-07-16 12",
                      "sampleRate" : 44100,
                      "bitDepth" : 16,
                      "gain" : 0.654506944444446,
                      "mixToMono" : false
                    },
                      "channelNumber" : "0,1",
                    "parameters" : {
                      "volume" : {
                        "type" : "double",
                        "interp" : "linr",
                        "keyframes" : [
                          {
                            "time" : 0,
                            "value" : 0.68131868131868,
                            "duration" : 0
                          }
                        ]
                      }
                    },
                    "effects" : [

                    ],
                    "start" : 54596,
                    "duration" : 16455,
                    "mediaStart" : 0,
                    "mediaDuration" : 16455,
                    "scalar" : 1,
                    "metadata" : {
                      "WinSubProjectDisplayName" : "",
                      "clipSpeedAttribute" : false
                    },
                    "animationTracks" : {

                    }
                  }
                ]
              },
              {
                "trackIndex" : 5,
                "medias" : [
                  {
                    "id" : 137,
                    "_type" : "IMFile",
                    "src" : 1,
                    "trackNumber" : 0,
                    "trimStartSum" : 0,
                    "attributes" : {
                      "ident" : "CawboyRadizeiro"
                    },
                    "parameters" : {
                      "sourceCrop0" : {
                        "type" : "double",
                        "defaultValue" : 0.0,
                        "interp" : "linr"
                      },
                      "sourceCrop1" : {
                        "type" : "double",
                        "defaultValue" : 0.0,
                        "interp" : "linr"
                      },
                      "sourceCrop2" : {
                        "type" : "double",
                        "defaultValue" : 0.0,
                        "interp" : "linr"
                      },
                      "sourceCrop3" : {
                        "type" : "double",
                        "defaultValue" : 0.0,
                        "interp" : "linr"
                      },
                      "geometryCrop0" : {
                        "type" : "double",
                        "defaultValue" : 0.0,
                        "interp" : "linr"
                      },
                      "geometryCrop1" : {
                        "type" : "double",
                        "defaultValue" : 0.0,
                        "interp" : "linr"
                      },
                      "geometryCrop2" : {
                        "type" : "double",
                        "defaultValue" : 0.0,
                        "interp" : "linr"
                      },
                      "geometryCrop3" : {
                        "type" : "double",
                        "defaultValue" : 0.0,
                        "interp" : "linr"
                      },
                      "opacity" : {
                        "type" : "double",
                        "defaultValue" : 1.0,
                        "interp" : "linr"
                      }
                    },
                    "effects" : [

                    ],
                    "start" : 70818,
                    "duration" : 340,
                    "mediaStart" : 0,
                    "mediaDuration" : 1,
                    "scalar" : 1,
                    "metadata" : {
                      "WinSubProjectDisplayName" : "",
                      "clipSpeedAttribute" : false
                    },
                    "animationTracks" : {

                    }
                  }
                ]
              },
              {
                "trackIndex" : 6,
                "medias" : [
                ]
              }
            ]
          }
        }
      ]
    },
    "trackAttributes" : [
      {
        "ident" : "",
        "audioMuted" : false,
        "videoHidden" : false,
        "metadata" : {
          "IsLocked" : "False",
          "WinTrackHeight" : "56"
        }
      },
      {
        "ident" : "",
        "audioMuted" : false,
        "videoHidden" : false,
        "metadata" : {
          "IsLocked" : "False",
          "WinTrackHeight" : "56"
        }
      },
      {
        "ident" : "",
        "audioMuted" : false,
        "videoHidden" : false,
        "metadata" : {
          "IsLocked" : "False",
          "WinTrackHeight" : "56"
        }
      },
      {
        "ident" : "",
        "audioMuted" : false,
        "videoHidden" : false,
        "metadata" : {
          "IsLocked" : "False",
          "WinTrackHeight" : "56"
        }
      },
      {
        "ident" : "",
        "audioMuted" : false,
        "videoHidden" : false,
        "metadata" : {
          "IsLocked" : "False",
          "WinTrackHeight" : "56"
        }
      },
      {
        "ident" : "",
        "audioMuted" : false,
        "videoHidden" : false,
        "metadata" : {
          "IsLocked" : "False",
          "WinTrackHeight" : "56"
        }
      },
      {
        "ident" : "",
        "audioMuted" : false,
        "videoHidden" : false,
        "metadata" : {
          "IsLocked" : "False",
          "WinTrackHeight" : "56"
        }
      }
    ],
    "captionAttributes" : {
      "enabled" : true,
      "fontName" : "Arial",
      "fontSize" : 23,
      "backgroundColor" : [ 0, 0, 0, 191],
      "foregroundColor" : [ 255, 255, 255, 255],
      "lang" : "en",
      "alignment" : 0,
      "defaultFontSize" : true,
      "opacity" : 0.5,
      "backgroundEnabled" : true,
      "backgroundOnlyAroundText" : true
    },
    "backgroundColor" : [ 0, 0, 0, 255]
  },
  "metadata" : {
    "AutoSaveFile" : "C:\\Users\\amari\\AppData\\Local\\TechSmith\\Camtasia Studio\\9.0\\Auto-Saves\\DMongoBr_CriandoComponentesf78e06f.autosave.tscproj",
    "CanvasZoom" : 75,
    "Date" : "2016-12-07 01:43:51 ",
    "Fit" : 0,
    "IsAutoSave" : "0",
    "Language" : "ENU",
    "ProfileName" : "",
    "ProjectDimensionsChanged" : "1",
    "Title" : "DMongoBr_CriandoComponentes",
    "audioNarrationNotes" : "",
    "calloutStyle" : "Basic",
    "canvasDetached" : "False",
    "canvasPositionHeight" : "0",
    "canvasPositionLeft" : "0",
    "canvasPositionTop" : "0",
    "canvasPositionWidth" : "0"
  }
}
